<svg width="40" height="56" viewBox="0 0 40 56" fill="none" xmlns="http://www.w3.org/2000/svg">
<circle cx="20" cy="20" r="19" stroke="#202020" stroke-width="2"/>
<path d="M20 33L20 7" stroke="#202020" stroke-width="2" stroke-linecap="round"/>
<path d="M7 20L33 20" stroke="#202020" stroke-width="2" stroke-linecap="round"/>
<path d="M7.98153 56H6.29403L9.36648 47.2727H11.3182L14.3949 56H12.7074L10.3764 49.0625H10.3082L7.98153 56ZM8.03693 52.5781H12.6392V53.848H8.03693V52.5781ZM18.5018 56H15.5444V47.2727H18.5614C19.4279 47.2727 20.1722 47.4474 20.7944 47.7969C21.4194 48.1435 21.8995 48.642 22.2347 49.2926C22.57 49.9432 22.7376 50.7216 22.7376 51.6278C22.7376 52.5369 22.5685 53.3182 22.2305 53.9716C21.8952 54.625 21.4109 55.1264 20.7773 55.4759C20.1467 55.8253 19.3881 56 18.5018 56ZM17.1254 54.6321H18.4251C19.033 54.6321 19.5401 54.5213 19.9464 54.2997C20.3526 54.0753 20.658 53.7415 20.8626 53.2983C21.0671 52.8523 21.1694 52.2955 21.1694 51.6278C21.1694 50.9602 21.0671 50.4062 20.8626 49.9659C20.658 49.5227 20.3555 49.1918 19.9549 48.973C19.5572 48.7514 19.0629 48.6406 18.4719 48.6406H17.1254V54.6321ZM27.1971 56H24.2397V47.2727H27.2567C28.1232 47.2727 28.8675 47.4474 29.4897 47.7969C30.1147 48.1435 30.5948 48.642 30.93 49.2926C31.2653 49.9432 31.4329 50.7216 31.4329 51.6278C31.4329 52.5369 31.2638 53.3182 30.9258 53.9716C30.5906 54.625 30.1062 55.1264 29.4727 55.4759C28.842 55.8253 28.0835 56 27.1971 56ZM25.8207 54.6321H27.1204C27.7283 54.6321 28.2354 54.5213 28.6417 54.2997C29.0479 54.0753 29.3533 53.7415 29.5579 53.2983C29.7624 52.8523 29.8647 52.2955 29.8647 51.6278C29.8647 50.9602 29.7624 50.4062 29.5579 49.9659C29.3533 49.5227 29.0508 49.1918 28.6502 48.973C28.2525 48.7514 27.7582 48.6406 27.1673 48.6406H25.8207V54.6321Z" fill="#202020"/>
</svg>
