<svg width="57" height="71" viewBox="0 0 57 71" fill="none" xmlns="http://www.w3.org/2000/svg">
<path d="M32.4286 1H13.5714C9.17103 1 6.9708 1 5.29008 1.83563C3.81164 2.57063 2.60965 3.74348 1.85639 5.18608C1 6.82605 1 8.97295 1 13.2667V57.7333C1 62.027 1 64.1741 1.85639 65.814C2.60965 67.2565 3.81164 68.4295 5.29008 69.1643C6.9708 70 9.17103 70 13.5714 70H43.4286C47.829 70 50.0294 70 51.71 69.1643C53.1883 68.4295 54.3905 67.2565 55.1436 65.814C56 64.1741 56 62.027 56 57.7333V24M32.4286 1L56 24M32.4286 1V17.8667C32.4286 20.0135 32.4286 21.087 32.8568 21.907C33.2335 22.6282 33.8342 23.2147 34.5736 23.5822C35.4139 24 36.5139 24 38.7143 24H56M12.7857 12.5H20.6429M12.7857 24H20.6429M44.2143 54.6667H36.3571L32.4286 48.9167L28.5 54.6667L20.6429 43.1667L18.6786 54.6667H12.7857" stroke="#202020" stroke-width="2" stroke-linecap="round" stroke-linejoin="round"/>
</svg>
