<svg width="57" height="71" viewBox="0 0 57 71" fill="none" xmlns="http://www.w3.org/2000/svg">
<path d="M1 62.3333V13.2667C1 8.97295 1 6.82605 1.74934 5.18608C2.40845 3.74348 3.46018 2.57063 4.75382 1.83563C6.22445 1 8.14966 1 12 1H45C48.8503 1 50.7757 1 52.2463 1.83563C53.5398 2.57063 54.5917 3.74348 55.2506 5.18608C56 6.82605 56 8.97295 56 13.2667V54.6667H7.875C4.07804 54.6667 1 58.099 1 62.3333ZM1 62.3333C1 66.5676 4.07804 70 7.875 70H56M18.1875 16.3333H38.8125M18.1875 31.6667H38.8125M52.5625 54.6667V70" stroke="#202020" stroke-width="2" stroke-linecap="round" stroke-linejoin="round"/>
</svg>
