<svg width="61" height="53" viewBox="0 0 61 53" fill="none" xmlns="http://www.w3.org/2000/svg">
<path d="M20.3217 29.8829C20.3217 29.3967 20.4842 28.9214 20.7886 28.5171C21.0931 28.1128 21.5258 27.7978 22.0321 27.6117C22.5384 27.4256 23.0956 27.3769 23.6331 27.4718C24.1705 27.5667 24.6643 27.8008 25.0518 28.1446C25.4393 28.4884 25.7032 28.9264 25.8101 29.4033C25.917 29.8802 25.8621 30.3745 25.6524 30.8237C25.4427 31.2729 25.0875 31.6568 24.6319 31.9269C24.1762 32.1971 23.6405 32.3412 23.0925 32.3412C22.3576 32.3412 21.6528 32.0822 21.1332 31.6212C20.6136 31.1602 20.3217 30.5349 20.3217 29.8829Z" stroke="#202020" stroke-width="2" stroke-miterlimit="10"/>
<path d="M38.8308 29.8829C40.2846 29.8829 41.4631 28.8373 41.4631 27.5475C41.4631 26.2576 40.2846 25.212 38.8308 25.212C37.3771 25.212 36.1985 26.2576 36.1985 27.5475C36.1985 28.8373 37.3771 29.8829 38.8308 29.8829Z" stroke="#202020" stroke-width="2" stroke-miterlimit="10"/>
<path d="M41.4908 27.5476V13.4613L25.614 15.8213V29.883" stroke="#202020" stroke-width="2" stroke-miterlimit="10"/>
<path d="M49.4154 1.73499H12.3971C9.58988 1.73499 6.89765 2.72437 4.91265 4.4855C2.92766 6.24662 1.8125 8.63522 1.8125 11.1258V34.5783C1.8125 37.0689 2.92766 39.4575 4.91265 41.2187C6.89765 42.9798 9.58988 43.9692 12.3971 43.9692H22.9817L30.9062 51L38.8308 43.9692H49.4154C52.2226 43.9692 54.9148 42.9798 56.8998 41.2187C58.8848 39.4575 60 37.0689 60 34.5783V11.1258C60 8.63522 58.8848 6.24662 56.8998 4.4855C54.9148 2.72437 52.2226 1.73499 49.4154 1.73499Z" stroke="#202020" stroke-width="2" stroke-miterlimit="10"/>
</svg>
