<svg width="55" height="48" viewBox="0 0 55 48" fill="none" xmlns="http://www.w3.org/2000/svg">
<path d="M1 9.57784V31C1 33.275 2.01333 35.4568 3.81706 37.0655C5.6208 38.6741 8.06719 39.5778 10.6181 39.5778H15.4271V46L29.9549 39.5778H44.3819C46.9328 39.5778 49.3792 38.6741 51.1829 37.0655C52.9867 35.4568 54 33.275 54 31V9.57784C54 7.30286 52.9867 5.12105 51.1829 3.51239C49.3792 1.90373 46.9328 1 44.3819 1H10.6181C8.06719 1 5.6208 1.90373 3.81706 3.51239C2.01333 5.12105 1 7.30286 1 9.57784Z" stroke="#202020" stroke-width="2" stroke-miterlimit="10"/>
<path d="M27.4371 24.6228V22.0629C27.4361 21.4996 27.5602 20.9417 27.8022 20.4214C28.0442 19.9011 28.3993 19.4287 28.8471 19.0314L30.8361 17.2575C31.7358 16.4523 32.2426 15.3628 32.2461 14.2261V13.8443C32.2394 12.7107 31.7298 11.6256 30.8287 10.8261C29.9276 10.0266 28.7082 9.57783 27.4371 9.57785C26.166 9.57783 24.9466 10.0266 24.0455 10.8261C23.1443 11.6256 22.6347 12.7107 22.6281 13.8443" stroke="#202020" stroke-width="2" stroke-miterlimit="10"/>
<path d="M25.0452 28.8668H29.829" stroke="#202020" stroke-width="2" stroke-miterlimit="10"/>
</svg>
