<svg width="36" height="46" viewBox="0 0 36 46" fill="none" xmlns="http://www.w3.org/2000/svg">
<path d="M35 18.6V23C35 31.5052 27.3889 38.4 18 38.4M18 38.4C8.61117 38.4 1 31.5052 1 23V18.6M18 38.4V45M8.28571 45H27.7143M25.2857 9.8H20.4286M25.2857 18.6H20.4286M18 29.6C13.9761 29.6 10.7143 26.6452 10.7143 23V7.6C10.7143 3.95493 13.9761 1 18 1C22.0239 1 25.2857 3.95493 25.2857 7.6V23C25.2857 26.6452 22.0239 29.6 18 29.6Z" stroke="#202020" stroke-width="2" stroke-linecap="round" stroke-linejoin="round"/>
</svg>
