<svg width="100" height="102" viewBox="0 0 100 102" fill="none" xmlns="http://www.w3.org/2000/svg">
<circle cx="50" cy="52" r="49" fill="#E7FF53" stroke="#202020" stroke-width="2"/>
<mask id="mask0_1_1029" style="mask-type:alpha" maskUnits="userSpaceOnUse" x="0" y="0" width="100" height="100">
<circle cx="50" cy="50" r="49" fill="#E7FF53" stroke="#202020" stroke-width="2"/>
</mask>
<g mask="url(#mask0_1_1029)">
<path fill-rule="evenodd" clip-rule="evenodd" d="M54.5853 66.4946C60.0153 72.0146 64.0153 78.3846 73.5853 85.0046C76.6653 87.1346 78.6753 88.8046 79.3153 89.0846C79.3153 89.0846 79.2253 75.7446 79.2253 75.3046C79.2253 73.6846 73.9453 72.2446 76.6453 59.3046C76.8706 57.9283 77.0042 56.5386 77.0453 55.1446C77.3053 51.6146 80.1553 51.0246 81.4653 53.5446C82.0953 54.7446 82.0853 57.2446 81.9553 58.6646C81.8353 59.8946 83.0353 59.0746 87.5253 59.2746C87.9977 59.2544 88.4657 59.3714 88.8731 59.6113C89.2804 59.8512 89.6097 60.2038 89.8211 60.6267C90.0326 61.0495 90.1171 61.5245 90.0646 61.9944C90.0121 62.4642 89.8248 62.9088 89.5253 63.2746C89.4153 63.4246 92.5253 64.4346 90.5253 67.5546C93.0453 70.3546 89.7453 71.7646 89.6653 72.2546C89.0553 76.0446 91.7253 95.0946 90.2153 98.9846C86.6853 108.065 75.6953 102.465 60.9853 91.3346C55.8753 87.4746 52.9853 75.8246 54.4653 69.5846C54.5453 69.3846 54.5853 66.4846 54.5853 66.4946Z" fill="white"/>
<path d="M54.5853 66.4946C60.0153 72.0146 64.0153 78.3846 73.5853 85.0046C76.6653 87.1346 78.6753 88.8046 79.3153 89.0846C79.3153 89.0846 79.2253 75.7446 79.2253 75.3046C79.2253 73.6846 73.9453 72.2446 76.6453 59.3046C76.8706 57.9283 77.0042 56.5386 77.0453 55.1446C77.3053 51.6146 80.1553 51.0246 81.4653 53.5446C82.0953 54.7446 82.0853 57.2446 81.9553 58.6646C81.8353 59.8946 83.0353 59.0746 87.5253 59.2746C87.9977 59.2544 88.4657 59.3714 88.8731 59.6113C89.2804 59.8512 89.6097 60.2038 89.8211 60.6267C90.0326 61.0495 90.1171 61.5245 90.0646 61.9944C90.0121 62.4642 89.8248 62.9088 89.5253 63.2746C89.4153 63.4246 92.5253 64.4346 90.5253 67.5546C93.0453 70.3546 89.7453 71.7646 89.6653 72.2546C89.0553 76.0446 91.7253 95.0946 90.2153 98.9846C86.6853 108.065 75.6953 102.465 60.9853 91.3346C55.8753 87.4746 52.9853 75.8246 54.4653 69.5846C54.5453 69.3846 54.5853 66.4846 54.5853 66.4946Z" stroke="black" stroke-width="0.57" stroke-miterlimit="22.93" stroke-linecap="round"/>
<path fill-rule="evenodd" clip-rule="evenodd" d="M79.3253 88.3746C79.3253 88.8246 79.3253 92.5546 79.3253 93.6646C79.2669 92.0388 78.8647 90.4438 78.1453 88.9846C78.1453 88.9846 77.4453 87.7446 77.6053 87.8846C78.0953 88.2198 78.618 88.5046 79.1653 88.7346C79.1853 88.6746 79.2853 88.3846 79.3253 88.3746Z" fill="black"/>
<path d="M79.3253 88.3746C79.3253 88.8246 79.3253 92.5546 79.3253 93.6646C79.2669 92.0388 78.8647 90.4438 78.1453 88.9846C78.1453 88.9846 77.4453 87.7446 77.6053 87.8846C78.0953 88.2198 78.618 88.5046 79.1653 88.7346C79.1853 88.6746 79.2853 88.3846 79.3253 88.3746Z" stroke="black" stroke-width="0.57" stroke-linecap="round" stroke-linejoin="round"/>
<path fill-rule="evenodd" clip-rule="evenodd" d="M54.5753 67.1446L57.9453 70.2946C59.9453 79.5746 62.9453 85.0146 64.5053 94.1046C62.5053 92.4446 61.0553 91.1046 59.0553 89.4046L54.5753 67.1446Z" fill="black"/>
<path d="M54.5753 67.1446L57.9453 70.2946C59.9453 79.5746 62.9453 85.0146 64.5053 94.1046C62.5053 92.4446 61.0553 91.1046 59.0553 89.4046L54.5753 67.1446Z" stroke="black" stroke-width="0.57" stroke-miterlimit="22.93" stroke-linecap="round"/>
<path fill-rule="evenodd" clip-rule="evenodd" d="M54.2253 36.9646C54.2253 45.5146 54.2253 45.3746 54.2253 53.9646C54.2253 76.5746 64.5053 81.3446 65.1453 104.595C65.2653 108.845 61.4653 108.315 60.8153 114.025C56.0153 115.195 43.1653 110.505 38.3653 111.665C33.5853 110.505 20.9453 119.995 16.1553 118.835C7.74534 81.8946 25.4953 74.7046 25.4653 55.4646V37.0046C25.4353 18.0146 54.2053 18.6746 54.2253 36.9646Z" fill="white"/>
<path d="M54.2253 36.9646C54.2253 45.5146 54.2253 45.3746 54.2253 53.9646C54.2253 76.5746 64.5053 81.3446 65.1453 104.595C65.2653 108.845 61.4653 108.315 60.8153 114.025C56.0153 115.195 43.1653 110.505 38.3653 111.665C33.5853 110.505 20.9453 119.995 16.1553 118.835C7.74534 81.8946 25.4953 74.7046 25.4653 55.4646V37.0046C25.4353 18.0146 54.2053 18.6746 54.2253 36.9646Z" stroke="black" stroke-width="0.57" stroke-linecap="round" stroke-linejoin="round"/>
<path fill-rule="evenodd" clip-rule="evenodd" d="M54.2253 36.9646C54.2253 45.5146 54.2253 45.3746 54.2253 53.9646C54.2176 56.4806 54.3578 58.995 54.6453 61.4946H24.9053C25.2946 59.5182 25.4922 57.5089 25.4953 55.4946V37.0346C25.4353 18.0146 54.2053 18.6746 54.2253 36.9646Z" fill="white"/>
<path d="M54.2253 36.9646C54.2253 45.5146 54.2253 45.3746 54.2253 53.9646C54.2176 56.4806 54.3578 58.995 54.6453 61.4946H24.9053C25.2946 59.5182 25.4922 57.5089 25.4953 55.4946V37.0346C25.4353 18.0146 54.2053 18.6746 54.2253 36.9646Z" stroke="black" stroke-width="0.57" stroke-linecap="round" stroke-linejoin="round"/>
<path fill-rule="evenodd" clip-rule="evenodd" d="M25.5353 35.4546C26.9553 18.5746 52.6353 19.1246 54.1553 35.4546H25.5353Z" fill="white"/>
<path d="M25.5353 35.4546C26.9553 18.5746 52.6353 19.1246 54.1553 35.4546H25.5353Z" stroke="black" stroke-width="0.57" stroke-linecap="round" stroke-linejoin="round"/>
<path fill-rule="evenodd" clip-rule="evenodd" d="M52.9553 46.9246C52.6251 46.9246 52.3022 46.8267 52.0275 46.6432C51.7529 46.4596 51.5389 46.1988 51.4125 45.8937C51.2861 45.5885 51.253 45.2527 51.3174 44.9288C51.3819 44.6048 51.5409 44.3073 51.7745 44.0737C52.008 43.8402 52.3056 43.6811 52.6295 43.6167C52.9535 43.5522 53.2893 43.5853 53.5944 43.7117C53.8996 43.8381 54.1604 44.0522 54.3439 44.3268C54.5274 44.6014 54.6253 44.9243 54.6253 45.2546C54.6253 45.6975 54.4494 46.1223 54.1362 46.4355C53.823 46.7486 53.3983 46.9246 52.9553 46.9246Z" fill="#FEFEFE"/>
<path d="M52.9553 46.9246C52.6251 46.9246 52.3022 46.8267 52.0275 46.6432C51.7529 46.4596 51.5389 46.1988 51.4125 45.8937C51.2861 45.5885 51.253 45.2527 51.3174 44.9288C51.3819 44.6048 51.5409 44.3073 51.7745 44.0737C52.008 43.8402 52.3056 43.6811 52.6295 43.6167C52.9535 43.5522 53.2893 43.5853 53.5944 43.7117C53.8996 43.8381 54.1604 44.0522 54.3439 44.3268C54.5274 44.6014 54.6253 44.9243 54.6253 45.2546C54.6253 45.6975 54.4494 46.1223 54.1362 46.4355C53.823 46.7486 53.3983 46.9246 52.9553 46.9246Z" stroke="black" stroke-width="0.57" stroke-linecap="round" stroke-linejoin="round"/>
<path fill-rule="evenodd" clip-rule="evenodd" d="M38.9254 43.5846C39.2557 43.5846 39.5785 43.6825 39.8532 43.866C40.1278 44.0495 40.3419 44.3104 40.4683 44.6155C40.5947 44.9207 40.6277 45.2564 40.5633 45.5804C40.4988 45.9043 40.3398 46.2019 40.1062 46.4355C39.8727 46.669 39.5751 46.8281 39.2512 46.8925C38.9272 46.9569 38.5914 46.9239 38.2863 46.7975C37.9811 46.6711 37.7203 46.457 37.5368 46.1824C37.3533 45.9078 37.2554 45.5849 37.2554 45.2546C37.2554 44.8117 37.4313 44.3869 37.7445 44.0737C38.0577 43.7605 38.4825 43.5846 38.9254 43.5846Z" fill="#FEFEFE"/>
<path d="M38.9254 43.5846C39.2557 43.5846 39.5785 43.6825 39.8532 43.866C40.1278 44.0495 40.3419 44.3104 40.4683 44.6155C40.5947 44.9207 40.6277 45.2564 40.5633 45.5804C40.4988 45.9043 40.3398 46.2019 40.1062 46.4355C39.8727 46.669 39.5751 46.8281 39.2512 46.8925C38.9272 46.9569 38.5914 46.9239 38.2863 46.7975C37.9811 46.6711 37.7203 46.457 37.5368 46.1824C37.3533 45.9078 37.2554 45.5849 37.2554 45.2546C37.2554 44.8117 37.4313 44.3869 37.7445 44.0737C38.0577 43.7605 38.4825 43.5846 38.9254 43.5846Z" stroke="black" stroke-width="0.57" stroke-linecap="round" stroke-linejoin="round"/>
<path d="M52.3253 38.7746C52.9842 38.6831 53.6554 38.7874 54.2553 39.0746" stroke="black" stroke-width="0.57" stroke-miterlimit="22.93" stroke-linecap="round"/>
<path d="M39.6354 38.7746C38.9765 38.6813 38.3048 38.7857 37.7054 39.0746" stroke="black" stroke-width="0.57" stroke-miterlimit="22.93" stroke-linecap="round"/>
<path fill-rule="evenodd" clip-rule="evenodd" d="M25.7353 58.8546H54.2353C54.7724 58.8546 55.2875 59.068 55.6672 59.4477C56.047 59.8275 56.2603 60.3426 56.2603 60.8796C56.2603 61.4167 56.047 61.9317 55.6672 62.3115C55.2875 62.6913 54.7724 62.9046 54.2353 62.9046H25.7353C25.1983 62.9046 24.6832 62.6913 24.3034 62.3115C23.9237 61.9317 23.7103 61.4167 23.7103 60.8796C23.7103 60.3426 23.9237 59.8275 24.3034 59.4477C24.6832 59.068 25.1983 58.8546 25.7353 58.8546Z" fill="white"/>
<path d="M25.7353 58.8546H54.2353C54.7724 58.8546 55.2875 59.068 55.6672 59.4477C56.047 59.8275 56.2603 60.3426 56.2603 60.8796C56.2603 61.4167 56.047 61.9317 55.6672 62.3115C55.2875 62.6913 54.7724 62.9046 54.2353 62.9046H25.7353C25.1983 62.9046 24.6832 62.6913 24.3034 62.3115C23.9237 61.9317 23.7103 61.4167 23.7103 60.8796C23.7103 60.3426 23.9237 59.8275 24.3034 59.4477C24.6832 59.068 25.1983 58.8546 25.7353 58.8546Z" stroke="black" stroke-width="0.57" stroke-miterlimit="22.93" stroke-linecap="round"/>
<path d="M25.4653 35.3046H69.3153" stroke="black" stroke-width="0.57" stroke-miterlimit="22.93" stroke-linecap="round"/>
<path fill-rule="evenodd" clip-rule="evenodd" d="M54.6353 62.8046L55.0653 64.5746C49.5106 63.6766 43.9074 63.109 38.2853 62.8746L54.6353 62.8046Z" fill="black"/>
<path d="M54.6353 62.8046L55.0653 64.5746C49.5106 63.6766 43.9074 63.109 38.2853 62.8746L54.6353 62.8046Z" stroke="black" stroke-width="0.57" stroke-miterlimit="22.93" stroke-linecap="round"/>
<path fill-rule="evenodd" clip-rule="evenodd" d="M53.7854 35.2346L54.2154 37.0046C48.6606 36.1066 43.0574 35.539 37.4354 35.3046L53.7854 35.2346Z" fill="black"/>
<path d="M53.7854 35.2346L54.2154 37.0046C48.6606 36.1066 43.0574 35.539 37.4354 35.3046L53.7854 35.2346Z" stroke="black" stroke-width="0.57" stroke-miterlimit="22.93" stroke-linecap="round"/>
<path fill-rule="evenodd" clip-rule="evenodd" d="M52.7853 44.9646C52.8367 44.9645 52.8861 44.9842 52.9233 45.0196C52.9606 45.055 52.9828 45.1033 52.9853 45.1546C52.9854 45.1804 52.9801 45.206 52.97 45.2297C52.9598 45.2534 52.9449 45.2748 52.9262 45.2926C52.9075 45.3104 52.8853 45.3242 52.8611 45.3331C52.8369 45.3421 52.8111 45.346 52.7853 45.3446C52.7349 45.3446 52.6866 45.3246 52.651 45.2889C52.6154 45.2533 52.5953 45.205 52.5953 45.1546C52.5978 45.105 52.6186 45.0581 52.6537 45.0229C52.6888 44.9878 52.7357 44.967 52.7853 44.9646Z" fill="black"/>
<path d="M52.7853 44.9646C52.8367 44.9645 52.8861 44.9842 52.9233 45.0196C52.9606 45.055 52.9828 45.1033 52.9853 45.1546C52.9854 45.1804 52.9801 45.206 52.97 45.2297C52.9598 45.2534 52.9449 45.2748 52.9262 45.2926C52.9075 45.3104 52.8853 45.3242 52.8611 45.3331C52.8369 45.3421 52.8111 45.346 52.7853 45.3446C52.7349 45.3446 52.6866 45.3246 52.651 45.2889C52.6154 45.2533 52.5953 45.205 52.5953 45.1546C52.5978 45.105 52.6186 45.0581 52.6537 45.0229C52.6888 44.9878 52.7357 44.967 52.7853 44.9646Z" stroke="black" stroke-width="0.57" stroke-linecap="round" stroke-linejoin="round"/>
<path fill-rule="evenodd" clip-rule="evenodd" d="M38.9554 45.3646C38.905 45.3646 38.8567 45.3446 38.821 45.309C38.7854 45.2733 38.7654 45.225 38.7654 45.1746C38.7654 45.1242 38.7854 45.0759 38.821 45.0403C38.8567 45.0046 38.905 44.9846 38.9554 44.9846C39.0058 44.9846 39.0541 45.0046 39.0897 45.0403C39.1254 45.0759 39.1454 45.1242 39.1454 45.1746C39.1454 45.225 39.1254 45.2733 39.0897 45.309C39.0541 45.3446 39.0058 45.3646 38.9554 45.3646Z" fill="black"/>
<path d="M38.9554 45.3646C38.905 45.3646 38.8567 45.3446 38.821 45.309C38.7854 45.2733 38.7654 45.225 38.7654 45.1746C38.7654 45.1242 38.7854 45.0759 38.821 45.0403C38.8567 45.0046 38.905 44.9846 38.9554 44.9846C39.0058 44.9846 39.0541 45.0046 39.0897 45.0403C39.1254 45.0759 39.1454 45.1242 39.1454 45.1746C39.1454 45.225 39.1254 45.2733 39.0897 45.309C39.0541 45.3446 39.0058 45.3646 38.9554 45.3646Z" stroke="black" stroke-width="0.57" stroke-linecap="round" stroke-linejoin="round"/>
<path fill-rule="evenodd" clip-rule="evenodd" d="M14.1154 97.5446L28.4054 82.7746C28.1354 83.4746 24.0654 87.8646 19.8654 93.5546C19.7054 93.7646 13.6654 103.885 13.9354 103.935C14.2054 103.985 14.1154 97.5446 14.1154 97.5446Z" fill="black"/>
<path d="M14.1154 97.5446L28.4054 82.7746C28.1354 83.4746 24.0654 87.8646 19.8654 93.5546C19.7054 93.7646 13.6654 103.885 13.9354 103.935C14.2054 103.985 14.1154 97.5446 14.1154 97.5446Z" stroke="black" stroke-width="0.57" stroke-miterlimit="22.93" stroke-linecap="round"/>
<path fill-rule="evenodd" clip-rule="evenodd" d="M-8.09465 121.265C-8.60464 120.775 -9.38465 126.775 -10.2046 127.515C-11.7846 128.915 -13.4846 125.825 -13.5446 124.755C-13.5446 124.225 -18.2746 125.105 -14.6046 117.875C-13.4346 115.585 -7.25464 108.055 -5.40464 105.105C3.04536 91.5446 15.3654 74.7046 24.9554 68.4946C26.2954 67.6346 29.2654 69.7446 29.8954 70.3046C30.8954 71.2046 31.5454 72.4846 30.4754 77.0746C29.3554 81.9146 33.5954 80.6446 28.7154 80.9746C19.0453 92.1446 14.2054 97.5146 6.45536 110.215C4.79536 112.935 3.39536 114.705 2.95536 116.565C2.57536 118.135 3.12536 119.685 2.41536 122.565C1.94536 124.565 -2.85464 127.375 -3.84464 126.065C-4.48464 125.205 -4.34464 124.465 -3.65464 121.015C-3.48464 120.155 -3.01465 116.665 -3.39465 116.145C-4.21465 114.845 -7.33465 119.365 -8.09465 121.225" fill="white"/>
<path d="M-7.57462 120.245C-8.63665 122.084 -9.2914 124.13 -9.49462 126.245C-9.67462 127.705 -10.7246 127.815 -11.6546 127.425C-12.9546 126.875 -13.4146 125.425 -12.9946 122.515C-12.5281 120.038 -11.5802 117.677 -10.2046 115.565C-9.40462 114.355 -10.8346 113.165 -9.65461 111.355C-4.71461 104.425 7.34539 84.3546 22.7054 69.5546" stroke="black" stroke-width="0.57" stroke-linecap="round" stroke-linejoin="round"/>
<path d="M-8.09467 121.265C-7.33467 119.405 -4.21467 114.885 -3.39467 116.185C-3.01467 116.705 -3.48466 120.185 -3.65466 121.055C-3.92466 122.425 -4.59466 123.875 -4.65466 124.655C-4.88466 127.315 -0.534664 126.095 0.985336 124.435C3.91534 121.235 2.86534 117.125 2.98534 116.565C3.31534 114.665 5.32534 112.115 6.48534 110.215C14.2353 97.5146 21.6553 90.3846 31.3453 79.2146" stroke="black" stroke-width="0.57" stroke-linecap="round" stroke-linejoin="round"/>
<path d="M41.5654 50.1446C41.9554 51.0846 43.0454 51.2046 43.9454 51.2046" stroke="#373435" stroke-width="0.57" stroke-miterlimit="22.93" stroke-linecap="round"/>
<path d="M82.7753 59.3946C79.7753 59.7546 78.9853 63.9446 82.8953 63.7646C84.4253 63.6946 86.4053 63.5246 86.2753 63.5546C85.7953 63.6646 79.7253 63.9846 81.5353 66.6646C82.6753 68.3546 87.4253 67.6646 87.2653 67.6646C86.246 67.763 85.2513 68.0371 84.3253 68.4746C81.5153 69.5946 82.2353 71.9646 84.9853 72.2046C85.6853 72.2646 86.6953 72.2846 87.4253 72.2846" stroke="black" stroke-width="0.57" stroke-miterlimit="22.93" stroke-linecap="round"/>
</g>
</svg>
