<svg width="100" height="102" viewBox="0 0 100 102" fill="none" xmlns="http://www.w3.org/2000/svg">
<circle cx="50" cy="52" r="49" fill="#E7FF53" stroke="#202020" stroke-width="2"/>
<mask id="mask0_1_1343" style="mask-type:alpha" maskUnits="userSpaceOnUse" x="0" y="0" width="100" height="100">
<circle cx="50" cy="50" r="49" fill="#E7FF53" stroke="#202020" stroke-width="2"/>
</mask>
<g mask="url(#mask0_1_1343)">
<path d="M21.5026 39.8971H13.7026C12.2943 39.8971 11.1526 41.0388 11.1526 42.4471V59.5271C11.1526 60.9354 12.2943 62.0771 13.7026 62.0771H21.5026C22.9109 62.0771 24.0526 60.9354 24.0526 59.5271V42.4471C24.0526 41.0388 22.9109 39.8971 21.5026 39.8971Z" fill="black"/>
<path d="M21.5026 39.8971H13.7026C12.2943 39.8971 11.1526 41.0388 11.1526 42.4471V59.5271C11.1526 60.9354 12.2943 62.0771 13.7026 62.0771H21.5026C22.9109 62.0771 24.0526 60.9354 24.0526 59.5271V42.4471C24.0526 41.0388 22.9109 39.8971 21.5026 39.8971Z" stroke="black" stroke-width="0.57" stroke-miterlimit="22.93" stroke-linecap="round"/>
<path fill-rule="evenodd" clip-rule="evenodd" d="M48.1126 56.4871C42.6726 62.0171 38.6826 68.3771 29.1126 75.0071C26.0326 77.1371 24.0326 78.7971 23.3926 79.0871C23.3926 79.0871 23.4826 65.7371 23.4826 65.3071C23.4326 64.2171 26.8526 63.0171 28.1226 58.2171C28.4371 57.1619 28.4228 56.036 28.0816 54.9892C27.7404 53.9423 27.0885 53.0242 26.2126 52.3571C23.5526 50.0171 20.9626 51.1571 22.2126 54.2971C22.7036 55.2108 23.3233 56.0494 24.0526 56.7871V59.5671C24.0526 59.5671 17.0526 58.6271 13.6026 58.6371C12.2726 58.6371 11.2326 58.9771 11.8526 58.7171C14.6126 57.5471 15.5926 53.5771 12.7826 53.6571C13.5083 53.5247 14.1598 53.1295 14.6126 52.5471C15.1526 51.5471 15.2526 49.8071 12.7326 49.5471C12.6126 49.5471 14.4726 49.7071 15.1726 49.0371C15.8726 48.3671 16.4326 45.6971 12.0426 45.2171C9.87261 44.9671 8.70261 46.6971 9.51261 49.7771C9.63261 50.2071 6.0826 49.9671 7.8926 54.6271C4.3726 60.0471 12.3926 63.8371 12.4926 65.8071C12.9626 74.8071 11.4926 85.1471 13.0126 89.0471C16.5426 98.1371 27.0126 92.5271 41.6726 81.3971C46.7926 77.5271 49.6726 65.8771 48.2026 59.6471C48.1526 59.3771 48.1126 56.4871 48.1126 56.4871Z" fill="white"/>
<path d="M48.1126 56.4871C42.6726 62.0171 38.6826 68.3771 29.1126 75.0071C26.0326 77.1371 24.0326 78.7971 23.3926 79.0871C23.3926 79.0871 23.4826 65.7371 23.4826 65.3071C23.4326 64.2171 26.8526 63.0171 28.1226 58.2171C28.4371 57.1619 28.4228 56.036 28.0816 54.9892C27.7404 53.9423 27.0885 53.0242 26.2126 52.3571C23.5526 50.0171 20.9626 51.1571 22.2126 54.2971C22.7036 55.2108 23.3233 56.0494 24.0526 56.7871V59.5671C24.0526 59.5671 17.0526 58.6271 13.6026 58.6371C12.2726 58.6371 11.2326 58.9771 11.8526 58.7171C14.6126 57.5471 15.5926 53.5771 12.7826 53.6571C13.5083 53.5247 14.1598 53.1295 14.6126 52.5471C15.1526 51.5471 15.2526 49.8071 12.7326 49.5471C12.6126 49.5471 14.4726 49.7071 15.1726 49.0371C15.8726 48.3671 16.4326 45.6971 12.0426 45.2171C9.87261 44.9671 8.70261 46.6971 9.51261 49.7771C9.63261 50.2071 6.0826 49.9671 7.8926 54.6271C4.3726 60.0471 12.3926 63.8371 12.4926 65.8071C12.9626 74.8071 11.4926 85.1471 13.0126 89.0471C16.5426 98.1371 27.0126 92.5271 41.6726 81.3971C46.7926 77.5271 49.6726 65.8771 48.2026 59.6471C48.1526 59.3771 48.1126 56.4871 48.1126 56.4871Z" stroke="black" stroke-width="0.57" stroke-miterlimit="22.93" stroke-linecap="round"/>
<path fill-rule="evenodd" clip-rule="evenodd" d="M15.4326 57.2171L21.5126 56.9371C22.1889 56.9371 22.8375 57.2058 23.3158 57.684C23.794 58.1622 24.0626 58.8108 24.0626 59.4871C24.0626 60.1634 23.794 60.812 23.3158 61.2903C22.8375 61.7685 22.1889 62.0371 21.5126 62.0371H13.7126C13.0363 62.0371 12.3877 61.7685 11.9095 61.2903C11.4313 60.812 11.1626 60.1634 11.1626 59.4871C11.1626 59.4871 11.3426 58.6971 11.8626 58.6771C13.6026 58.6371 14.4326 57.3071 15.4326 57.2171Z" fill="black"/>
<path d="M15.4326 57.2171L21.5126 56.9371C22.1889 56.9371 22.8375 57.2058 23.3158 57.684C23.794 58.1622 24.0626 58.8108 24.0626 59.4871C24.0626 60.1634 23.794 60.812 23.3158 61.2903C22.8375 61.7685 22.1889 62.0371 21.5126 62.0371H13.7126C13.0363 62.0371 12.3877 61.7685 11.9095 61.2903C11.4313 60.812 11.1626 60.1634 11.1626 59.4871C11.1626 59.4871 11.3426 58.6971 11.8626 58.6771C13.6026 58.6371 14.4326 57.3071 15.4326 57.2171Z" stroke="black" stroke-width="0.57" stroke-miterlimit="22.93" stroke-linecap="round"/>
<path fill-rule="evenodd" clip-rule="evenodd" d="M23.3626 78.3771C23.3626 78.8271 23.3626 82.5571 23.3626 83.6671C23.4245 82.0406 23.8301 80.4456 24.5526 78.9871C24.5526 78.9871 25.2526 77.7471 25.0826 77.8871C24.5938 78.2185 24.0748 78.5031 23.5326 78.7371C23.5026 78.6771 23.4326 78.3871 23.3626 78.3771Z" fill="black"/>
<path d="M23.3626 78.3771C23.3626 78.8271 23.3626 82.5571 23.3626 83.6671C23.4245 82.0406 23.8301 80.4456 24.5526 78.9871C24.5526 78.9871 25.2526 77.7471 25.0826 77.8871C24.5938 78.2185 24.0748 78.5031 23.5326 78.7371C23.5026 78.6771 23.4326 78.3871 23.3626 78.3771Z" stroke="black" stroke-width="0.57" stroke-linecap="round" stroke-linejoin="round"/>
<path fill-rule="evenodd" clip-rule="evenodd" d="M48.1226 57.1071L44.7526 60.2671C42.7526 69.5471 39.7526 74.9871 38.1926 84.0771C40.1926 82.4171 41.6326 81.0771 43.6426 79.3771L48.1226 57.1071Z" fill="black"/>
<path d="M48.1226 57.1071L44.7526 60.2671C42.7526 69.5471 39.7526 74.9871 38.1926 84.0771C40.1926 82.4171 41.6326 81.0771 43.6426 79.3771L48.1226 57.1071Z" stroke="black" stroke-width="0.57" stroke-miterlimit="22.93" stroke-linecap="round"/>
<path fill-rule="evenodd" clip-rule="evenodd" d="M48.4326 26.9671C48.4326 35.5171 48.4326 35.3771 48.4326 43.9671C48.4326 66.5671 38.1526 71.3371 37.5026 94.5971C37.3826 98.8471 41.1926 98.3171 41.8326 104.027C46.6426 105.197 59.4826 100.497 64.2826 101.667C69.0726 100.497 81.7126 109.997 86.5026 108.827C94.9126 71.8971 77.1626 64.7071 77.1926 45.4671V27.0071C77.2526 8.01713 48.4926 8.66713 48.4326 26.9671Z" fill="white"/>
<path d="M48.4326 26.9671C48.4326 35.5171 48.4326 35.3771 48.4326 43.9671C48.4326 66.5671 38.1526 71.3371 37.5026 94.5971C37.3826 98.8471 41.1926 98.3171 41.8326 104.027C46.6426 105.197 59.4826 100.497 64.2826 101.667C69.0726 100.497 81.7126 109.997 86.5026 108.827C94.9126 71.8971 77.1626 64.7071 77.1926 45.4671V27.0071C77.2526 8.01713 48.4926 8.66713 48.4326 26.9671Z" stroke="black" stroke-width="0.57" stroke-linecap="round" stroke-linejoin="round"/>
<path fill-rule="evenodd" clip-rule="evenodd" d="M48.4326 26.9671C48.4326 35.5171 48.4326 35.3771 48.4326 43.9671C48.4407 46.4799 48.3005 48.9909 48.0126 51.4871H77.7826C77.3824 49.5124 77.1847 47.502 77.1926 45.4871V27.0271C77.2526 8.01713 48.4926 8.66713 48.4326 26.9671Z" fill="white"/>
<path d="M48.4326 26.9671C48.4326 35.5171 48.4326 35.3771 48.4326 43.9671C48.4407 46.4799 48.3005 48.9909 48.0126 51.4871H77.7826C77.3824 49.5124 77.1847 47.502 77.1926 45.4871V27.0271C77.2526 8.01713 48.4926 8.66713 48.4326 26.9671Z" stroke="black" stroke-width="0.57" stroke-linecap="round" stroke-linejoin="round"/>
<path fill-rule="evenodd" clip-rule="evenodd" d="M77.1626 25.4471C75.7326 8.5771 50.0626 9.1271 48.5426 25.4471H77.1626Z" fill="white"/>
<path d="M77.1626 25.4471C75.7326 8.5771 50.0626 9.1271 48.5426 25.4471H77.1626Z" stroke="black" stroke-width="0.57" stroke-linecap="round" stroke-linejoin="round"/>
<path fill-rule="evenodd" clip-rule="evenodd" d="M88.4826 93.9371C88.4826 94.1471 88.4826 94.3471 88.4826 94.5571C88.6626 104.227 85.5426 109.557 85.5726 118.387C85.5726 137.537 86.1526 186.767 86.0926 187.767H41.4326C41.4326 187.767 41.0326 137.657 41.3126 118.877C41.4526 108.877 38.5526 106.017 37.4726 94.6671C37.4576 94.424 37.4576 94.1802 37.4726 93.9371H88.4826Z" fill="white"/>
<path d="M88.4826 93.9371C88.4826 94.1471 88.4826 94.3471 88.4826 94.5571C88.6626 104.227 85.5426 109.557 85.5726 118.387C85.5726 137.537 86.1526 186.767 86.0926 187.767H41.4326C41.4326 187.767 41.0326 137.657 41.3126 118.877C41.4526 108.877 38.5526 106.017 37.4726 94.6671C37.4576 94.424 37.4576 94.1802 37.4726 93.9371H88.4826Z" stroke="black" stroke-width="0.57" stroke-linecap="round" stroke-linejoin="round"/>
<path fill-rule="evenodd" clip-rule="evenodd" d="M49.7426 36.9271C50.0712 36.927 50.3924 36.83 50.6661 36.6482C50.9398 36.4664 51.1538 36.2079 51.2813 35.9051C51.4088 35.6022 51.4441 35.2685 51.3829 34.9457C51.3216 34.6229 51.1665 34.3254 50.9369 34.0903C50.7073 33.8552 50.4135 33.6931 50.0923 33.6242C49.771 33.5553 49.4365 33.5827 49.1308 33.703C48.825 33.8233 48.5615 34.0311 48.3733 34.3004C48.1851 34.5698 48.0805 34.8886 48.0726 35.2171C48.0673 35.4397 48.1065 35.6612 48.1881 35.8685C48.2696 36.0757 48.3918 36.2646 48.5474 36.4239C48.703 36.5832 48.8889 36.7098 49.0942 36.7963C49.2994 36.8827 49.5199 36.9272 49.7426 36.9271Z" fill="#FEFEFE"/>
<path d="M49.7426 36.9271C50.0712 36.927 50.3924 36.83 50.6661 36.6482C50.9398 36.4664 51.1538 36.2079 51.2813 35.9051C51.4088 35.6022 51.4441 35.2685 51.3829 34.9457C51.3216 34.6229 51.1665 34.3254 50.9369 34.0903C50.7073 33.8552 50.4135 33.6931 50.0923 33.6242C49.771 33.5553 49.4365 33.5827 49.1308 33.703C48.825 33.8233 48.5615 34.0311 48.3733 34.3004C48.1851 34.5698 48.0805 34.8886 48.0726 35.2171C48.0673 35.4397 48.1065 35.6612 48.1881 35.8685C48.2696 36.0757 48.3918 36.2646 48.5474 36.4239C48.703 36.5832 48.8889 36.7098 49.0942 36.7963C49.2994 36.8827 49.5199 36.9272 49.7426 36.9271Z" stroke="black" stroke-width="0.57" stroke-linecap="round" stroke-linejoin="round"/>
<path fill-rule="evenodd" clip-rule="evenodd" d="M63.7626 33.5871C63.4306 33.5872 63.1062 33.6862 62.8308 33.8716C62.5554 34.0569 62.3414 34.3201 62.2163 34.6276C62.0911 34.9351 62.0605 35.2729 62.1282 35.5979C62.196 35.9229 62.359 36.2203 62.5966 36.4522C62.8342 36.6841 63.1355 36.8399 63.462 36.8997C63.7886 36.9596 64.1255 36.9207 64.4299 36.7882C64.7343 36.6556 64.9922 36.4354 65.1708 36.1555C65.3494 35.8757 65.4406 35.549 65.4326 35.2171C65.4222 34.7812 65.2416 34.3666 64.9296 34.062C64.6175 33.7574 64.1987 33.587 63.7626 33.5871Z" fill="#FEFEFE"/>
<path d="M63.7626 33.5871C63.4306 33.5872 63.1062 33.6862 62.8308 33.8716C62.5554 34.0569 62.3414 34.3201 62.2163 34.6276C62.0911 34.9351 62.0605 35.2729 62.1282 35.5979C62.196 35.9229 62.359 36.2203 62.5966 36.4522C62.8342 36.6841 63.1355 36.8399 63.462 36.8997C63.7886 36.9596 64.1255 36.9207 64.4299 36.7882C64.7343 36.6556 64.9922 36.4354 65.1708 36.1555C65.3494 35.8757 65.4406 35.549 65.4326 35.2171C65.4222 34.7812 65.2416 34.3666 64.9296 34.062C64.6175 33.7574 64.1987 33.587 63.7626 33.5871Z" stroke="black" stroke-width="0.57" stroke-linecap="round" stroke-linejoin="round"/>
<path d="M50.3726 28.7771C49.7138 28.6788 49.0406 28.7834 48.4426 29.0771" stroke="black" stroke-width="0.57" stroke-miterlimit="22.93" stroke-linecap="round"/>
<path d="M63.0626 28.7771C63.7215 28.6807 64.3941 28.7853 64.9926 29.0771" stroke="black" stroke-width="0.57" stroke-miterlimit="22.93" stroke-linecap="round"/>
<path fill-rule="evenodd" clip-rule="evenodd" d="M76.9526 48.8571H48.4326C47.9022 48.8571 47.3935 49.0678 47.0184 49.4429C46.6433 49.818 46.4326 50.3267 46.4326 50.8571C46.4326 51.3875 46.6433 51.8963 47.0184 52.2713C47.3935 52.6464 47.9022 52.8571 48.4326 52.8571H76.9326C77.4631 52.8571 77.9718 52.6464 78.3468 52.2713C78.7219 51.8963 78.9326 51.3875 78.9326 50.8571C78.9326 50.3267 78.7219 49.818 78.3468 49.4429C77.9718 49.0678 77.4631 48.8571 76.9326 48.8571H76.9526Z" fill="white"/>
<path d="M76.9526 48.8571H48.4326C47.9022 48.8571 47.3935 49.0678 47.0184 49.4429C46.6433 49.818 46.4326 50.3267 46.4326 50.8571C46.4326 51.3875 46.6433 51.8963 47.0184 52.2713C47.3935 52.6464 47.9022 52.8571 48.4326 52.8571H76.9326C77.4631 52.8571 77.9718 52.6464 78.3468 52.2713C78.7219 51.8963 78.9326 51.3875 78.9326 50.8571C78.9326 50.3267 78.7219 49.818 78.3468 49.4429C77.9718 49.0678 77.4631 48.8571 76.9326 48.8571H76.9526Z" stroke="black" stroke-width="0.57" stroke-miterlimit="22.93" stroke-linecap="round"/>
<path d="M77.2226 25.3071H33.3826" stroke="black" stroke-width="0.57" stroke-miterlimit="22.93" stroke-linecap="round"/>
<path fill-rule="evenodd" clip-rule="evenodd" d="M85.6126 117.617L77.0926 79.0371C76.9826 79.7871 77.9926 86.9271 78.9326 93.9371C78.9326 94.1971 79.9326 93.6371 79.9926 93.9371C81.8126 107.497 85.0726 124.257 83.0526 137.617C82.4626 141.527 85.2726 142.547 85.1326 142.257C84.469 140.759 84.3042 139.086 84.6626 137.487C85.0226 135.487 86.3426 134.487 85.6626 133.487L85.6126 117.617Z" fill="black"/>
<path d="M85.6126 117.617L77.0926 79.0371C76.9826 79.7871 77.9926 86.9271 78.9326 93.9371C78.9326 94.1971 79.9326 93.6371 79.9926 93.9371C81.8126 107.497 85.0726 124.257 83.0526 137.617C82.4626 141.527 85.2726 142.547 85.1326 142.257C84.469 140.759 84.3042 139.086 84.6626 137.487C85.0226 135.487 86.3426 134.487 85.6626 133.487L85.6126 117.617Z" stroke="black" stroke-width="0.57" stroke-miterlimit="22.93" stroke-linecap="round"/>
<path fill-rule="evenodd" clip-rule="evenodd" d="M48.0626 52.8071L47.6226 54.5771C53.1876 53.6779 58.8006 53.1069 64.4326 52.8671L48.0626 52.8071Z" fill="black"/>
<path d="M48.0626 52.8071L47.6226 54.5771C53.1876 53.6779 58.8006 53.1069 64.4326 52.8671L48.0626 52.8071Z" stroke="black" stroke-width="0.57" stroke-miterlimit="22.93" stroke-linecap="round"/>
<path fill-rule="evenodd" clip-rule="evenodd" d="M48.9126 25.2171L48.4326 27.0071C53.991 26.1087 59.5973 25.5377 65.2226 25.2971L48.9126 25.2171Z" fill="black"/>
<path d="M48.9126 25.2171L48.4326 27.0071C53.991 26.1087 59.5973 25.5377 65.2226 25.2971L48.9126 25.2171Z" stroke="black" stroke-width="0.57" stroke-miterlimit="22.93" stroke-linecap="round"/>
<path fill-rule="evenodd" clip-rule="evenodd" d="M48.9926 35.4171C48.943 35.4195 48.8961 35.4403 48.8609 35.4755C48.8258 35.5106 48.805 35.5575 48.8026 35.6071C48.8026 35.6575 48.8226 35.7058 48.8583 35.7415C48.8939 35.7771 48.9422 35.7971 48.9926 35.7971C49.0179 35.7986 49.0433 35.7946 49.067 35.7856C49.0907 35.7766 49.1122 35.7626 49.1302 35.7447C49.1481 35.7267 49.1621 35.7052 49.1711 35.6815C49.1801 35.6578 49.1841 35.6324 49.1826 35.6071C49.1826 35.5567 49.1626 35.5084 49.127 35.4728C49.0913 35.4371 49.043 35.4171 48.9926 35.4171Z" fill="black"/>
<path d="M48.9926 35.4171C48.943 35.4195 48.8961 35.4403 48.8609 35.4755C48.8258 35.5106 48.805 35.5575 48.8026 35.6071C48.8026 35.6575 48.8226 35.7058 48.8583 35.7415C48.8939 35.7771 48.9422 35.7971 48.9926 35.7971C49.0179 35.7986 49.0433 35.7946 49.067 35.7856C49.0907 35.7766 49.1122 35.7626 49.1302 35.7447C49.1481 35.7267 49.1621 35.7052 49.1711 35.6815C49.1801 35.6578 49.1841 35.6324 49.1826 35.6071C49.1826 35.5567 49.1626 35.5084 49.127 35.4728C49.0913 35.4371 49.043 35.4171 48.9926 35.4171Z" stroke="black" stroke-width="0.57" stroke-linecap="round" stroke-linejoin="round"/>
<path fill-rule="evenodd" clip-rule="evenodd" d="M62.8326 35.8171C62.883 35.8171 62.9313 35.7971 62.967 35.7615C63.0026 35.7259 63.0226 35.6775 63.0226 35.6271C63.0226 35.5767 63.0026 35.5284 62.967 35.4928C62.9313 35.4572 62.883 35.4371 62.8326 35.4371C62.7822 35.4371 62.7339 35.4572 62.6983 35.4928C62.6627 35.5284 62.6426 35.5767 62.6426 35.6271C62.6426 35.6775 62.6627 35.7259 62.6983 35.7615C62.7339 35.7971 62.7822 35.8171 62.8326 35.8171Z" fill="black"/>
<path d="M62.8326 35.8171C62.883 35.8171 62.9313 35.7971 62.967 35.7615C63.0026 35.7259 63.0226 35.6775 63.0226 35.6271C63.0226 35.5767 63.0026 35.5284 62.967 35.4928C62.9313 35.4572 62.883 35.4371 62.8326 35.4371C62.7822 35.4371 62.7339 35.4572 62.6983 35.4928C62.6627 35.5284 62.6426 35.5767 62.6426 35.6271C62.6426 35.6775 62.6627 35.7259 62.6983 35.7615C62.7339 35.7971 62.7822 35.8171 62.8326 35.8171Z" stroke="black" stroke-width="0.57" stroke-linecap="round" stroke-linejoin="round"/>
<path fill-rule="evenodd" clip-rule="evenodd" d="M92.6226 142.677C93.3126 142.487 91.0926 148.127 91.4626 149.167C92.1626 151.167 95.1426 149.267 95.7126 148.357C95.9926 147.907 99.7126 150.947 99.9526 142.837C100.043 140.277 98.2526 130.697 98.0626 127.217C97.1926 111.267 91.4526 71.4071 78.1326 54.6571C77.1326 53.4071 76.2926 54.2471 75.4626 54.4371C74.1626 54.7371 72.9726 55.5571 71.6926 60.0871C70.3426 64.8671 72.5226 76.3971 76.6326 79.0371C79.7426 93.5071 84.5326 111.107 85.2026 125.977C85.3426 129.157 85.7126 131.387 85.2026 133.227C84.7726 134.777 83.5526 135.877 82.7526 138.777C82.2126 140.777 85.0526 145.537 86.5526 144.867C87.5526 144.427 87.7626 143.707 88.8226 140.347C89.0826 139.507 90.3626 136.227 90.9426 135.957C92.2826 135.217 92.8426 140.677 92.6126 142.677" fill="white"/>
<path d="M92.6626 141.527C92.7051 143.658 92.2855 145.773 91.4326 147.727C90.8926 149.097 91.7626 149.727 92.7626 149.797C94.1626 149.947 95.2526 148.937 96.3026 146.147C97.092 143.754 97.4013 141.23 97.2126 138.717C97.0926 137.277 98.9226 136.917 98.7526 134.717C97.5126 124.067 96.0526 81.9471 78.5126 54.3871" stroke="black" stroke-width="0.57" stroke-linecap="round" stroke-linejoin="round"/>
<path d="M92.6226 142.677C92.8526 140.677 92.2926 135.217 90.9526 135.957C90.3726 136.227 89.0926 139.507 88.8326 140.347C88.4126 141.687 88.2926 143.267 87.9726 143.987C86.9026 146.437 83.6826 143.267 83.1426 141.077C82.1426 136.867 85.0226 133.767 85.2126 133.227C85.8426 131.407 85.3026 128.227 85.2126 125.977C84.5426 111.107 79.7526 93.5071 76.6426 79.0371" stroke="black" stroke-width="0.57" stroke-linecap="round" stroke-linejoin="round"/>
<path d="M55.7726 38.6071C54.9626 38.8071 54.1926 39.8771 55.3926 40.3171C57.2726 41.0271 53.8226 41.7671 55.3926 42.9571C55.6726 43.1671 56.0726 43.0171 56.3926 42.9571" stroke="#373435" stroke-width="0.57" stroke-miterlimit="22.93" stroke-linecap="round"/>
<path d="M11.1526 49.5771C12.0267 49.4991 12.9076 49.5599 13.7626 49.7571" stroke="black" stroke-width="0.57" stroke-miterlimit="22.93" stroke-linecap="round"/>
<path d="M9.71262 54.3271C9.95262 54.1971 14.0426 53.4171 14.5326 53.3271" stroke="black" stroke-width="0.57" stroke-miterlimit="22.93" stroke-linecap="round"/>
<path d="M49.8626 30.6871C50.7484 30.6792 51.6165 30.9346 52.3568 31.4209C53.0971 31.9073 53.6763 32.6026 54.0208 33.4186C54.3652 34.2347 54.4595 35.1347 54.2915 36.0044C54.1236 36.8741 53.7011 37.6743 53.0776 38.3035C52.454 38.9326 51.6577 39.3623 50.7895 39.5381C49.9213 39.7138 49.0205 39.6277 48.2014 39.2906C47.3823 38.9534 46.6818 38.3806 46.1888 37.6446C45.6959 36.9087 45.4327 36.0429 45.4326 35.1571C45.4326 33.9785 45.898 32.8476 46.7277 32.0104C47.5573 31.1733 48.684 30.6977 49.8626 30.6871Z" stroke="#373435" stroke-width="0.57" stroke-miterlimit="22.93" stroke-linecap="round"/>
<path d="M63.5626 30.6871C64.4467 30.6871 65.3109 30.9492 66.046 31.4404C66.7811 31.9316 67.354 32.6297 67.6924 33.4465C68.0307 34.2633 68.1192 35.162 67.9467 36.0291C67.7743 36.8962 67.3485 37.6927 66.7234 38.3178C66.0982 38.943 65.3018 39.3687 64.4347 39.5412C63.5676 39.7137 62.6688 39.6251 61.852 39.2868C61.0352 38.9485 60.3371 38.3756 59.8459 37.6405C59.3548 36.9054 59.0926 36.0412 59.0926 35.1571C59.0926 33.9716 59.5636 32.8346 60.4019 31.9963C61.2401 31.158 62.3771 30.6871 63.5626 30.6871Z" stroke="#373435" stroke-width="0.57" stroke-miterlimit="22.93" stroke-linecap="round"/>
<path d="M68.2626 34.5571H77.2126" stroke="#373435" stroke-width="0.57" stroke-miterlimit="22.93" stroke-linecap="round"/>
<path d="M53.8626 33.2171C54.8626 31.3971 58.3826 31.2171 59.8026 33.0471" stroke="#373435" stroke-width="0.57" stroke-miterlimit="22.93" stroke-linecap="round"/>
<path d="M23.3626 37.0671L23.9526 33.1371" stroke="#373435" stroke-width="0.57" stroke-miterlimit="22.93" stroke-linecap="round"/>
<path d="M26.3226 39.2071L30.9226 35.9671" stroke="#373435" stroke-width="0.57" stroke-miterlimit="22.93" stroke-linecap="round"/>
<path d="M31.6426 42.6371L28.3226 43.1771" stroke="#373435" stroke-width="0.57" stroke-miterlimit="22.93" stroke-linecap="round"/>
</g>
</svg>
