<svg width="100" height="102" viewBox="0 0 100 102" fill="none" xmlns="http://www.w3.org/2000/svg">
<circle cx="50" cy="52" r="49" fill="#E7FF53" stroke="#202020" stroke-width="2"/>
<mask id="mask0_1_965" style="mask-type:alpha" maskUnits="userSpaceOnUse" x="0" y="0" width="100" height="100">
<circle cx="50" cy="50" r="49" fill="#E7FF53" stroke="#202020" stroke-width="2"/>
</mask>
<g mask="url(#mask0_1_965)">
<path fill-rule="evenodd" clip-rule="evenodd" d="M26.064 155.675C25.684 155.575 31.134 159.365 31.624 161.045C31.6839 161.381 31.6718 161.726 31.5887 162.058C31.5055 162.389 31.3531 162.699 31.1415 162.967C30.9299 163.236 30.6639 163.456 30.361 163.614C30.058 163.772 29.7251 163.864 29.384 163.885C28.824 163.955 28.444 165.255 27.644 165.445C26.844 165.635 25.184 164.505 25.114 164.625C24.114 166.215 19.264 160.965 19.014 155.845C18.884 153.275 19.694 143.775 20.074 140.225C22.074 122.225 27.074 81.0946 39.154 66.7146C40.154 65.5046 40.904 67.2446 41.734 67.4346C43.044 67.7446 44.244 68.5546 45.604 73.0846C47.034 77.8746 45.044 89.3946 40.974 92.0846C37.534 109.505 28.804 136.505 34.834 154.835C35.474 156.835 33.674 158.835 32.164 158.185C31.164 157.755 30.354 156.745 29.244 153.385C28.964 152.555 27.354 149.275 26.764 148.995C25.404 148.255 25.764 153.715 26.064 155.715" fill="white"/>
<path d="M25.404 154.525C25.4025 156.661 25.8523 158.774 26.724 160.725C28.104 164.015 23.534 167.725 20.434 160.575C19.124 157.575 18.854 153.575 19.194 147.755C20.254 137.105 25.274 86.2646 38.194 67.7546" stroke="black" stroke-width="0.57" stroke-linecap="round" stroke-linejoin="round"/>
<path d="M25.464 155.675C25.194 153.675 25.654 148.215 27.014 148.955C27.604 149.235 28.934 152.505 29.204 153.345C30.324 156.705 30.864 157.695 31.844 158.145C34.274 159.265 35.474 156.825 34.944 155.145C33.1464 149.945 32.349 144.451 32.594 138.955C33.014 124.095 37.514 106.485 40.374 92.0246" stroke="black" stroke-width="0.57" stroke-linecap="round" stroke-linejoin="round"/>
<path fill-rule="evenodd" clip-rule="evenodd" d="M38.654 39.9646C38.654 48.5246 38.654 48.3746 38.654 56.9646C38.654 79.5746 28.374 84.3446 27.734 107.595C27.614 111.845 31.414 111.315 32.064 117.025C36.864 118.195 49.714 113.505 54.514 114.665C59.294 113.505 71.934 123.005 76.724 121.835C85.104 84.8546 67.404 77.6646 67.404 58.4246V39.9646C67.404 21.0246 38.674 21.6746 38.654 39.9646Z" fill="white"/>
<path d="M38.654 39.9646C38.654 48.5246 38.654 48.3746 38.654 56.9646C38.654 79.5746 28.374 84.3446 27.734 107.595C27.614 111.845 31.414 111.315 32.064 117.025C36.864 118.195 49.714 113.505 54.514 114.665C59.294 113.505 71.934 123.005 76.724 121.835C85.104 84.8546 67.404 77.6646 67.404 58.4246V39.9646C67.404 21.0246 38.674 21.6746 38.654 39.9646Z" stroke="black" stroke-width="0.57" stroke-linecap="round" stroke-linejoin="round"/>
<path fill-rule="evenodd" clip-rule="evenodd" d="M38.654 39.9646C38.654 48.5246 38.654 48.3746 38.654 56.9646C38.6621 59.4807 38.5219 61.995 38.234 64.4946H68.004C67.6147 62.5182 67.4171 60.5089 67.414 58.4946V40.0346C67.404 21.0246 38.674 21.6746 38.654 39.9646Z" fill="white"/>
<path d="M38.654 39.9646C38.654 48.5246 38.654 48.3746 38.654 56.9646C38.6621 59.4807 38.5219 61.995 38.234 64.4946H68.004C67.6147 62.5182 67.4171 60.5089 67.414 58.4946V40.0346C67.404 21.0246 38.674 21.6746 38.654 39.9646Z" stroke="black" stroke-width="0.57" stroke-linecap="round" stroke-linejoin="round"/>
<path fill-rule="evenodd" clip-rule="evenodd" d="M67.344 38.4546C65.924 21.5746 40.244 22.1246 38.724 38.4546H67.344Z" fill="white"/>
<path d="M67.344 38.4546C65.924 21.5746 40.244 22.1246 38.724 38.4546H67.344Z" stroke="black" stroke-width="0.57" stroke-linecap="round" stroke-linejoin="round"/>
<path fill-rule="evenodd" clip-rule="evenodd" d="M39.924 49.9346C40.2567 49.9366 40.5825 49.8397 40.8601 49.6564C41.1376 49.473 41.3545 49.2113 41.4832 48.9045C41.6119 48.5977 41.6466 48.2596 41.5829 47.933C41.5192 47.6065 41.36 47.3062 41.1255 47.0703C40.8909 46.8343 40.5916 46.6733 40.2654 46.6077C39.9393 46.542 39.601 46.5747 39.2934 46.7016C38.9858 46.8284 38.7229 47.0437 38.5378 47.3202C38.3528 47.5967 38.254 47.9219 38.254 48.2546C38.2527 48.4748 38.2949 48.693 38.3782 48.8968C38.4616 49.1005 38.5844 49.2858 38.7396 49.442C38.8948 49.5981 39.0793 49.722 39.2826 49.8065C39.4859 49.8911 39.7038 49.9346 39.924 49.9346Z" fill="#FEFEFE"/>
<path d="M39.924 49.9346C40.2567 49.9366 40.5825 49.8397 40.8601 49.6564C41.1376 49.473 41.3545 49.2113 41.4832 48.9045C41.6119 48.5977 41.6466 48.2596 41.5829 47.933C41.5192 47.6065 41.36 47.3062 41.1255 47.0703C40.8909 46.8343 40.5916 46.6733 40.2654 46.6077C39.9393 46.542 39.601 46.5747 39.2934 46.7016C38.9858 46.8284 38.7229 47.0437 38.5378 47.3202C38.3528 47.5967 38.254 47.9219 38.254 48.2546C38.2527 48.4748 38.2949 48.693 38.3782 48.8968C38.4616 49.1005 38.5844 49.2858 38.7396 49.442C38.8948 49.5981 39.0793 49.722 39.2826 49.8065C39.4859 49.8911 39.7038 49.9346 39.924 49.9346Z" stroke="black" stroke-width="0.57" stroke-linecap="round" stroke-linejoin="round"/>
<path fill-rule="evenodd" clip-rule="evenodd" d="M53.954 46.5846C53.6209 46.5826 53.2947 46.6797 53.0169 46.8636C52.7391 47.0474 52.5222 47.3097 52.3938 47.6171C52.2654 47.9245 52.2313 48.2631 52.2958 48.5899C52.3603 48.9167 52.5206 49.217 52.7561 49.4525C52.9917 49.6881 53.2919 49.8483 53.6187 49.9128C53.9455 49.9773 54.2842 49.9432 54.5916 49.8148C54.8989 49.6864 55.1612 49.4695 55.345 49.1917C55.5289 48.9139 55.626 48.5877 55.624 48.2546C55.624 47.8117 55.4481 47.3869 55.1349 47.0738C54.8217 46.7606 54.3969 46.5846 53.954 46.5846Z" fill="#FEFEFE"/>
<path d="M53.954 46.5846C53.6209 46.5826 53.2947 46.6797 53.0169 46.8636C52.7391 47.0474 52.5222 47.3097 52.3938 47.6171C52.2654 47.9245 52.2313 48.2631 52.2958 48.5899C52.3603 48.9167 52.5206 49.217 52.7561 49.4525C52.9917 49.6881 53.2919 49.8483 53.6187 49.9128C53.9455 49.9773 54.2842 49.9432 54.5916 49.8148C54.8989 49.6864 55.1612 49.4695 55.345 49.1917C55.5289 48.9139 55.626 48.5877 55.624 48.2546C55.624 47.8117 55.4481 47.3869 55.1349 47.0738C54.8217 46.7606 54.3969 46.5846 53.954 46.5846Z" stroke="black" stroke-width="0.57" stroke-linecap="round" stroke-linejoin="round"/>
<path d="M40.554 41.7746C39.8951 41.6831 39.2239 41.7874 38.624 42.0746" stroke="black" stroke-width="0.57" stroke-miterlimit="22.93" stroke-linecap="round"/>
<path d="M53.244 41.7746C53.9029 41.6813 54.5746 41.7857 55.174 42.0746" stroke="black" stroke-width="0.57" stroke-miterlimit="22.93" stroke-linecap="round"/>
<path fill-rule="evenodd" clip-rule="evenodd" d="M67.144 61.8546H38.644C38.1135 61.8546 37.6048 62.0653 37.2298 62.4404C36.8547 62.8155 36.644 63.3242 36.644 63.8546C36.644 64.385 36.8547 64.8938 37.2298 65.2688C37.6048 65.6439 38.1135 65.8546 38.644 65.8546H67.144C67.6744 65.8546 68.1831 65.6439 68.5582 65.2688C68.9333 64.8938 69.144 64.385 69.144 63.8546C69.144 63.3242 68.9333 62.8155 68.5582 62.4404C68.1831 62.0653 67.6744 61.8546 67.144 61.8546Z" fill="white"/>
<path d="M67.144 61.8546H38.644C38.1135 61.8546 37.6048 62.0653 37.2298 62.4404C36.8547 62.8155 36.644 63.3242 36.644 63.8546C36.644 64.385 36.8547 64.8938 37.2298 65.2688C37.6048 65.6439 38.1135 65.8546 38.644 65.8546H67.144C67.6744 65.8546 68.1831 65.6439 68.5582 65.2688C68.9333 64.8938 69.144 64.385 69.144 63.8546C69.144 63.3242 68.9333 62.8155 68.5582 62.4404C68.1831 62.0653 67.6744 61.8546 67.144 61.8546Z" stroke="black" stroke-width="0.57" stroke-miterlimit="22.93" stroke-linecap="round"/>
<path d="M67.414 38.3046H23.564" stroke="black" stroke-width="0.57" stroke-miterlimit="22.93" stroke-linecap="round"/>
<path fill-rule="evenodd" clip-rule="evenodd" d="M75.804 130.625L67.274 92.0446C67.174 92.7846 68.184 99.9246 69.114 106.935C69.114 107.205 70.114 106.635 70.184 106.935C72.004 120.495 75.254 137.245 73.244 150.615C72.654 154.515 75.454 155.535 75.314 155.255C74.6571 153.751 74.4926 152.078 74.844 150.475C75.214 148.475 76.524 147.475 75.844 146.475L75.804 130.625Z" fill="black"/>
<path d="M75.804 130.625L67.274 92.0446C67.174 92.7846 68.184 99.9246 69.114 106.935C69.114 107.205 70.114 106.635 70.184 106.935C72.004 120.495 75.254 137.245 73.244 150.615C72.654 154.515 75.454 155.535 75.314 155.255C74.6571 153.751 74.4926 152.078 74.844 150.475C75.214 148.475 76.524 147.475 75.844 146.475L75.804 130.625Z" stroke="black" stroke-width="0.57" stroke-miterlimit="22.93" stroke-linecap="round"/>
<path fill-rule="evenodd" clip-rule="evenodd" d="M31.734 86.4546C30.484 90.1846 26.314 100.455 26.594 108.515C26.794 114.335 27.594 117.195 29.794 124.295C31.374 129.445 31.344 134.695 31.464 131.555C31.804 122.825 27.314 114.265 27.594 106.935C27.967 99.9424 29.3618 93.0426 31.734 86.4546Z" fill="black"/>
<path d="M31.734 86.4546C30.484 90.1846 26.314 100.455 26.594 108.515C26.794 114.335 27.594 117.195 29.794 124.295C31.374 129.445 31.344 134.695 31.464 131.555C31.804 122.825 27.314 114.265 27.594 106.935C27.967 99.9424 29.3618 93.0426 31.734 86.4546Z" stroke="black" stroke-width="0.57" stroke-miterlimit="22.93" stroke-linecap="round"/>
<path fill-rule="evenodd" clip-rule="evenodd" d="M38.244 65.8046L37.814 67.5746C43.3688 66.6766 48.972 66.1089 54.594 65.8746L38.244 65.8046Z" fill="black"/>
<path d="M38.244 65.8046L37.814 67.5746C43.3688 66.6766 48.972 66.1089 54.594 65.8746L38.244 65.8046Z" stroke="black" stroke-width="0.57" stroke-miterlimit="22.93" stroke-linecap="round"/>
<path fill-rule="evenodd" clip-rule="evenodd" d="M39.094 38.2346L38.664 40.0046C44.2056 39.1082 49.7954 38.5405 55.404 38.3046L39.094 38.2346Z" fill="black"/>
<path d="M39.094 38.2346L38.664 40.0046C44.2056 39.1082 49.7954 38.5405 55.404 38.3046L39.094 38.2346Z" stroke="black" stroke-width="0.57" stroke-miterlimit="22.93" stroke-linecap="round"/>
<path d="M44.124 49.9846C44.1023 50.3296 44.1515 50.6753 44.2686 51.0005C44.3856 51.3257 44.5681 51.6235 44.8047 51.8755C45.0413 52.1274 45.327 52.3282 45.6442 52.4655C45.9614 52.6028 46.3034 52.6736 46.649 52.6736C46.9946 52.6736 47.3366 52.6028 47.6538 52.4655C47.971 52.3282 48.2567 52.1274 48.4933 51.8755C48.7299 51.6235 48.9124 51.3257 49.0295 51.0005C49.1465 50.6753 49.1957 50.3296 49.174 49.9846" stroke="black" stroke-width="0.57" stroke-miterlimit="22.93" stroke-linecap="round"/>
<path fill-rule="evenodd" clip-rule="evenodd" d="M39.924 48.2546C39.8727 48.2572 39.8244 48.2794 39.789 48.3166C39.7536 48.3539 39.7339 48.4033 39.734 48.4546C39.7364 48.5043 39.7572 48.5512 39.7923 48.5863C39.8275 48.6214 39.8744 48.6422 39.924 48.6446C39.9744 48.6446 40.0227 48.6246 40.0584 48.589C40.094 48.5534 40.114 48.505 40.114 48.4546C40.1154 48.4289 40.1115 48.4031 40.1025 48.3789C40.0936 48.3546 40.0798 48.3325 40.062 48.3138C40.0442 48.2951 40.0228 48.2802 39.9991 48.27C39.9754 48.2598 39.9498 48.2546 39.924 48.2546Z" fill="black"/>
<path d="M39.924 48.2546C39.8727 48.2572 39.8244 48.2794 39.789 48.3166C39.7536 48.3539 39.7339 48.4033 39.734 48.4546C39.7364 48.5043 39.7572 48.5512 39.7923 48.5863C39.8275 48.6214 39.8744 48.6422 39.924 48.6446C39.9744 48.6446 40.0227 48.6246 40.0584 48.589C40.094 48.5534 40.114 48.505 40.114 48.4546C40.1154 48.4289 40.1115 48.4031 40.1025 48.3789C40.0936 48.3546 40.0798 48.3325 40.062 48.3138C40.0442 48.2951 40.0228 48.2802 39.9991 48.27C39.9754 48.2598 39.9498 48.2546 39.924 48.2546Z" stroke="black" stroke-width="0.57" stroke-linecap="round" stroke-linejoin="round"/>
<path fill-rule="evenodd" clip-rule="evenodd" d="M54.144 48.6446C54.1953 48.6421 54.2436 48.6199 54.279 48.5826C54.3144 48.5454 54.3341 48.496 54.334 48.4446C54.3316 48.395 54.3108 48.3481 54.2757 48.313C54.2405 48.2779 54.1936 48.2571 54.144 48.2546C54.0936 48.2546 54.0453 48.2747 54.0096 48.3103C53.974 48.3459 53.954 48.3942 53.954 48.4446C53.9526 48.4704 53.9566 48.4962 53.9655 48.5204C53.9744 48.5446 53.9882 48.5668 54.006 48.5855C54.0238 48.6042 54.0452 48.6191 54.0689 48.6293C54.0926 48.6394 54.1182 48.6447 54.144 48.6446Z" fill="black"/>
<path d="M54.144 48.6446C54.1953 48.6421 54.2436 48.6199 54.279 48.5826C54.3144 48.5454 54.3341 48.496 54.334 48.4446C54.3316 48.395 54.3108 48.3481 54.2757 48.313C54.2405 48.2779 54.1936 48.2571 54.144 48.2546C54.0936 48.2546 54.0453 48.2747 54.0096 48.3103C53.974 48.3459 53.954 48.3942 53.954 48.4446C53.9526 48.4704 53.9566 48.4962 53.9655 48.5204C53.9744 48.5446 53.9882 48.5668 54.006 48.5855C54.0238 48.6042 54.0452 48.6191 54.0689 48.6293C54.0926 48.6394 54.1182 48.6447 54.144 48.6446Z" stroke="black" stroke-width="0.57" stroke-linecap="round" stroke-linejoin="round"/>
<path fill-rule="evenodd" clip-rule="evenodd" d="M82.804 155.675C83.494 155.495 81.284 161.125 81.644 162.165C82.344 164.165 85.334 162.265 85.894 161.355C86.174 160.905 89.894 163.955 90.144 155.845C90.224 153.275 88.434 143.695 88.244 140.225C87.374 124.225 81.634 84.4046 68.324 67.6546C67.324 66.4046 66.474 67.2446 65.654 67.4346C64.344 67.7446 63.154 68.5546 61.874 73.0846C60.524 77.8746 62.704 89.3946 66.824 92.0846C69.924 106.545 74.724 124.155 75.384 139.015C75.534 142.195 75.904 144.435 75.384 146.275C74.954 147.825 73.734 148.915 72.944 151.825C72.404 153.825 75.244 158.575 76.734 157.905C77.734 157.465 77.954 156.745 79.004 153.385C79.274 152.545 80.544 149.275 81.134 148.995C82.474 148.255 83.024 153.715 82.794 155.715" fill="white"/>
<path d="M82.844 154.525C82.8822 156.654 82.4663 158.768 81.624 160.725C81.074 162.095 81.944 162.725 82.944 162.795C84.344 162.945 85.434 161.945 86.484 159.145C87.2734 156.752 87.5826 154.227 87.394 151.715C87.274 150.275 89.104 149.925 88.944 147.715C87.704 137.065 86.234 94.9446 68.694 67.3946" stroke="black" stroke-width="0.57" stroke-linecap="round" stroke-linejoin="round"/>
<path d="M82.804 155.675C83.034 153.675 82.484 148.215 81.144 148.955C80.554 149.235 79.284 152.505 79.014 153.345C78.594 154.685 78.474 156.265 78.164 156.995C77.084 159.435 73.864 156.265 73.334 154.075C72.334 149.865 75.214 146.765 75.394 146.235C76.024 144.405 75.484 141.235 75.394 138.975C74.734 124.115 69.934 106.505 66.834 92.0446" stroke="black" stroke-width="0.57" stroke-linecap="round" stroke-linejoin="round"/>
</g>
</svg>
