<svg width="100" height="102" viewBox="0 0 100 102" fill="none" xmlns="http://www.w3.org/2000/svg">
<circle cx="50" cy="52" r="49" fill="#E7FF53" stroke="#202020" stroke-width="2"/>
<mask id="mask0_1_1265" style="mask-type:alpha" maskUnits="userSpaceOnUse" x="0" y="0" width="100" height="100">
<circle cx="50" cy="50" r="49" fill="#E7FF53" stroke="#202020" stroke-width="2"/>
</mask>
<g mask="url(#mask0_1_1265)">
<path fill-rule="evenodd" clip-rule="evenodd" d="M18.07 55.81C18.18 55.62 21.41 53.93 21.85 57.45C22.05 59.06 20.32 61.6 19.96 61.22C19.96 61.22 17.78 56.27 18.07 55.81Z" fill="white"/>
<path d="M18.07 55.81C18.18 55.62 21.41 53.93 21.85 57.45C22.05 59.06 20.32 61.6 19.96 61.22C19.96 61.22 17.78 56.27 18.07 55.81Z" stroke="black" stroke-width="0.57" stroke-miterlimit="22.93" stroke-linecap="round"/>
<path fill-rule="evenodd" clip-rule="evenodd" d="M51.42 65.14C46.64 70 33.12 83.03 32.09 84.06C32.09 84.06 26.75 74.39 26.75 73.96C26.75 72.89 26.16 73.6 27.43 68.8C27.7467 67.7468 27.7355 66.6222 27.3979 65.5756C27.0603 64.5289 26.4123 63.6097 25.54 62.94C22.88 60.6 20.29 61.74 21.54 64.88C22.031 65.7938 22.6507 66.6323 23.38 67.37V70.15C4.04999 64.02 11.69 68.58 13.08 73.29C15.08 79.97 20.17 90.46 21.69 94.36C24.03 100.36 29.41 99.95 37.06 95.72C40.94 93.57 40.06 93.72 45.01 90.01C50.12 86.14 53.01 74.49 51.53 68.26C51.46 68.03 51.42 65.14 51.42 65.14Z" fill="white"/>
<path d="M51.42 65.14C46.64 70 33.12 83.03 32.09 84.06C32.09 84.06 26.75 74.39 26.75 73.96C26.75 72.89 26.16 73.6 27.43 68.8C27.7467 67.7468 27.7355 66.6222 27.3979 65.5756C27.0603 64.5289 26.4123 63.6097 25.54 62.94C22.88 60.6 20.29 61.74 21.54 64.88C22.031 65.7938 22.6507 66.6323 23.38 67.37V70.15C4.04999 64.02 11.69 68.58 13.08 73.29C15.08 79.97 20.17 90.46 21.69 94.36C24.03 100.36 29.41 99.95 37.06 95.72C40.94 93.57 40.06 93.72 45.01 90.01C50.12 86.14 53.01 74.49 51.53 68.26C51.46 68.03 51.42 65.14 51.42 65.14Z" stroke="black" stroke-width="0.57" stroke-miterlimit="22.93" stroke-linecap="round"/>
<path d="M14.9258 53.6526L7.7443 56.6966C6.44764 57.2462 5.84202 58.7429 6.39162 60.0395L13.0571 75.7652C13.6067 77.0619 15.1034 77.6675 16.4 77.1179L23.5815 74.074C24.8782 73.5244 25.4838 72.0277 24.9342 70.731L18.2688 55.0053C17.7192 53.7086 16.2225 53.103 14.9258 53.6526Z" fill="black"/>
<path d="M14.9258 53.6526L7.7443 56.6966C6.44764 57.2462 5.84202 58.7429 6.39162 60.0395L13.0571 75.7652C13.6067 77.0619 15.1034 77.6675 16.4 77.1179L23.5815 74.074C24.8782 73.5244 25.4838 72.0277 24.9342 70.731L18.2688 55.0053C17.7192 53.7086 16.2225 53.103 14.9258 53.6526Z" stroke="black" stroke-width="0.57" stroke-miterlimit="22.93" stroke-linecap="round"/>
<path fill-rule="evenodd" clip-rule="evenodd" d="M32.12 84.05L34.19 88.92C33.606 87.4011 33.357 85.774 33.46 84.15C33.46 84.15 33.74 82.9 33.53 82.93L32.12 84.05Z" fill="black"/>
<path d="M32.12 84.05L34.19 88.92C33.606 87.4011 33.357 85.774 33.46 84.15C33.46 84.15 33.74 82.9 33.53 82.93L32.12 84.05Z" stroke="black" stroke-width="0.57" stroke-linecap="round" stroke-linejoin="round"/>
<path fill-rule="evenodd" clip-rule="evenodd" d="M51.43 65.76L48.06 68.92C46.06 78.19 43.06 83.63 41.5 92.72C43.5 91.06 44.95 89.72 46.95 88.02L51.43 65.76Z" fill="black"/>
<path d="M51.43 65.76L48.06 68.92C46.06 78.19 43.06 83.63 41.5 92.72C43.5 91.06 44.95 89.72 46.95 88.02L51.43 65.76Z" stroke="black" stroke-width="0.57" stroke-miterlimit="22.93" stroke-linecap="round"/>
<path fill-rule="evenodd" clip-rule="evenodd" d="M51.78 35.61C51.78 44.17 51.78 44.02 51.78 52.61C51.78 75.21 41.5 79.98 40.86 103.23C40.74 107.48 44.54 106.95 45.19 112.66C49.99 113.83 62.83 109.14 67.64 110.31C72.42 109.14 85.06 118.64 89.85 117.47C98.26 80.53 80.51 73.34 80.54 54.11V35.64C80.54 16.67 51.8 17.32 51.78 35.61Z" fill="white"/>
<path d="M51.78 35.61C51.78 44.17 51.78 44.02 51.78 52.61C51.78 75.21 41.5 79.98 40.86 103.23C40.74 107.48 44.54 106.95 45.19 112.66C49.99 113.83 62.83 109.14 67.64 110.31C72.42 109.14 85.06 118.64 89.85 117.47C98.26 80.53 80.51 73.34 80.54 54.11V35.64C80.54 16.67 51.8 17.32 51.78 35.61Z" stroke="black" stroke-width="0.57" stroke-linecap="round" stroke-linejoin="round"/>
<path fill-rule="evenodd" clip-rule="evenodd" d="M51.78 35.61C51.78 44.17 51.78 44.02 51.78 52.61C51.7878 55.1228 51.6475 57.6338 51.36 60.13H81.13C80.7405 58.1537 80.543 56.1443 80.54 54.13V35.66C80.54 16.67 51.8 17.32 51.78 35.61Z" fill="white"/>
<path d="M51.78 35.61C51.78 44.17 51.78 44.02 51.78 52.61C51.7878 55.1228 51.6475 57.6338 51.36 60.13H81.13C80.7405 58.1537 80.543 56.1443 80.54 54.13V35.66C80.54 16.67 51.8 17.32 51.78 35.61Z" stroke="black" stroke-width="0.57" stroke-linecap="round" stroke-linejoin="round"/>
<path fill-rule="evenodd" clip-rule="evenodd" d="M80.47 34.1C79.05 17.23 53.37 17.77 51.85 34.1H80.47Z" fill="white"/>
<path d="M80.47 34.1C79.05 17.23 53.37 17.77 51.85 34.1H80.47Z" stroke="black" stroke-width="0.57" stroke-linecap="round" stroke-linejoin="round"/>
<path fill-rule="evenodd" clip-rule="evenodd" d="M53.05 45.54C53.3831 45.542 53.7093 45.4449 53.9871 45.2611C54.2649 45.0772 54.4818 44.8149 54.6102 44.5076C54.7386 44.2002 54.7727 43.8616 54.7082 43.5347C54.6437 43.2079 54.4835 42.9077 54.2479 42.6721C54.0124 42.4366 53.7121 42.2764 53.3853 42.2119C53.0585 42.1473 52.7198 42.1815 52.4125 42.3099C52.1051 42.4382 51.8428 42.6551 51.659 42.9329C51.4751 43.2107 51.378 43.5369 51.38 43.87C51.38 44.3129 51.556 44.7377 51.8691 45.0509C52.1823 45.3641 52.6071 45.54 53.05 45.54Z" fill="#FEFEFE"/>
<path d="M53.05 45.54C53.3831 45.542 53.7093 45.4449 53.9871 45.2611C54.2649 45.0772 54.4818 44.8149 54.6102 44.5076C54.7386 44.2002 54.7727 43.8616 54.7082 43.5347C54.6437 43.2079 54.4835 42.9077 54.2479 42.6721C54.0124 42.4366 53.7121 42.2764 53.3853 42.2119C53.0585 42.1473 52.7198 42.1815 52.4125 42.3099C52.1051 42.4382 51.8428 42.6551 51.659 42.9329C51.4751 43.2107 51.378 43.5369 51.38 43.87C51.38 44.3129 51.556 44.7377 51.8691 45.0509C52.1823 45.3641 52.6071 45.54 53.05 45.54Z" stroke="black" stroke-width="0.57" stroke-linecap="round" stroke-linejoin="round"/>
<path fill-rule="evenodd" clip-rule="evenodd" d="M67.08 42.23C66.7473 42.228 66.4215 42.3249 66.1439 42.5083C65.8664 42.6917 65.6495 42.9533 65.5208 43.2601C65.3921 43.5669 65.3574 43.905 65.4211 44.2316C65.4848 44.5581 65.644 44.8584 65.8785 45.0944C66.1131 45.3303 66.4124 45.4913 66.7386 45.557C67.0647 45.6226 67.403 45.5899 67.7106 45.4631C68.0182 45.3362 68.2811 45.1209 68.4662 44.8444C68.6512 44.5679 68.75 44.2427 68.75 43.91C68.7513 43.6899 68.7091 43.4716 68.6258 43.2679C68.5424 43.0641 68.4196 42.8788 68.2644 42.7227C68.1092 42.5665 67.9247 42.4426 67.7214 42.3581C67.5181 42.2735 67.3002 42.23 67.08 42.23Z" fill="#FEFEFE"/>
<path d="M67.08 42.23C66.7473 42.228 66.4215 42.3249 66.1439 42.5083C65.8664 42.6917 65.6495 42.9533 65.5208 43.2601C65.3921 43.5669 65.3574 43.905 65.4211 44.2316C65.4848 44.5581 65.644 44.8584 65.8785 45.0944C66.1131 45.3303 66.4124 45.4913 66.7386 45.557C67.0647 45.6226 67.403 45.5899 67.7106 45.4631C68.0182 45.3362 68.2811 45.1209 68.4662 44.8444C68.6512 44.5679 68.75 44.2427 68.75 43.91C68.7513 43.6899 68.7091 43.4716 68.6258 43.2679C68.5424 43.0641 68.4196 42.8788 68.2644 42.7227C68.1092 42.5665 67.9247 42.4426 67.7214 42.3581C67.5181 42.2735 67.3002 42.23 67.08 42.23Z" stroke="black" stroke-width="0.57" stroke-linecap="round" stroke-linejoin="round"/>
<path d="M53.68 37.42C53.0212 37.3285 52.35 37.4328 51.75 37.72" stroke="black" stroke-width="0.57" stroke-miterlimit="22.93" stroke-linecap="round"/>
<path d="M66.37 37.42C67.0288 37.3267 67.7006 37.4311 68.3 37.72" stroke="black" stroke-width="0.57" stroke-miterlimit="22.93" stroke-linecap="round"/>
<path fill-rule="evenodd" clip-rule="evenodd" d="M80.27 57.54H51.77C51.2329 57.54 50.7179 57.7533 50.3381 58.1331C49.9583 58.5128 49.745 59.0279 49.745 59.565C49.745 60.102 49.9583 60.6171 50.3381 60.9969C50.7179 61.3766 51.2329 61.59 51.77 61.59H80.27C80.8071 61.59 81.3221 61.3766 81.7019 60.9969C82.0816 60.6171 82.295 60.102 82.295 59.565C82.295 59.0279 82.0816 58.5128 81.7019 58.1331C81.3221 57.7533 80.8071 57.54 80.27 57.54Z" fill="white"/>
<path d="M80.27 57.54H51.77C51.2329 57.54 50.7179 57.7533 50.3381 58.1331C49.9583 58.5128 49.745 59.0279 49.745 59.565C49.745 60.102 49.9583 60.6171 50.3381 60.9969C50.7179 61.3766 51.2329 61.59 51.77 61.59H80.27C80.8071 61.59 81.3221 61.3766 81.7019 60.9969C82.0817 60.6171 82.295 60.102 82.295 59.565C82.295 59.0279 82.0817 58.5128 81.7019 58.1331C81.3221 57.7533 80.8071 57.54 80.27 57.54Z" stroke="black" stroke-width="0.57" stroke-miterlimit="22.93" stroke-linecap="round"/>
<path d="M80.54 33.95H36.69" stroke="black" stroke-width="0.57" stroke-miterlimit="22.93" stroke-linecap="round"/>
<path fill-rule="evenodd" clip-rule="evenodd" d="M51.37 61.46L50.94 63.22C56.4968 62.3412 62.0993 61.7803 67.72 61.54L51.37 61.46Z" fill="black"/>
<path d="M51.37 61.46L50.94 63.22C56.4968 62.3412 62.0993 61.7803 67.72 61.54L51.37 61.46Z" stroke="black" stroke-width="0.57" stroke-miterlimit="22.93" stroke-linecap="round"/>
<path fill-rule="evenodd" clip-rule="evenodd" d="M52.22 33.88L51.79 35.65C57.3365 34.7656 62.9289 34.198 68.54 33.95L52.22 33.88Z" fill="black"/>
<path d="M52.22 33.88L51.79 35.65C57.3365 34.7656 62.9289 34.198 68.54 33.95L52.22 33.88Z" stroke="black" stroke-width="0.57" stroke-miterlimit="22.93" stroke-linecap="round"/>
<path fill-rule="evenodd" clip-rule="evenodd" d="M52.31 44.07C52.2847 44.0685 52.2593 44.0725 52.2356 44.0815C52.2119 44.0905 52.1904 44.1045 52.1724 44.1224C52.1545 44.1404 52.1406 44.1619 52.1315 44.1856C52.1225 44.2093 52.1186 44.2347 52.12 44.26C52.12 44.3104 52.14 44.3587 52.1757 44.3943C52.2113 44.43 52.2596 44.45 52.31 44.45C52.3596 44.4476 52.4066 44.4268 52.4417 44.3917C52.4768 44.3565 52.4976 44.3096 52.5 44.26C52.5 44.2096 52.48 44.1613 52.4444 44.1256C52.4087 44.09 52.3604 44.07 52.31 44.07Z" fill="black"/>
<path d="M52.31 44.07C52.2847 44.0685 52.2593 44.0725 52.2356 44.0815C52.2119 44.0905 52.1904 44.1045 52.1724 44.1224C52.1545 44.1404 52.1406 44.1619 52.1315 44.1856C52.1225 44.2093 52.1186 44.2347 52.12 44.26C52.12 44.3104 52.14 44.3587 52.1757 44.3943C52.2113 44.43 52.2596 44.45 52.31 44.45C52.3596 44.4476 52.4066 44.4268 52.4417 44.3917C52.4768 44.3565 52.4976 44.3096 52.5 44.26C52.5 44.2096 52.48 44.1613 52.4444 44.1256C52.4087 44.09 52.3604 44.07 52.31 44.07Z" stroke="black" stroke-width="0.57" stroke-linecap="round" stroke-linejoin="round"/>
<path fill-rule="evenodd" clip-rule="evenodd" d="M66.14 44.46C66.1653 44.4615 66.1907 44.4575 66.2144 44.4485C66.2381 44.4395 66.2596 44.4255 66.2776 44.4076C66.2955 44.3897 66.3095 44.3681 66.3185 44.3444C66.3275 44.3207 66.3315 44.2954 66.33 44.27C66.33 44.2196 66.31 44.1713 66.2744 44.1357C66.2387 44.1 66.1904 44.08 66.14 44.08C66.0904 44.0824 66.0435 44.1032 66.0083 44.1384C65.9732 44.1735 65.9524 44.2204 65.95 44.27C65.95 44.3204 65.97 44.3687 66.0057 44.4044C66.0413 44.44 66.0896 44.46 66.14 44.46Z" fill="black"/>
<path d="M66.14 44.46C66.1653 44.4615 66.1907 44.4575 66.2144 44.4485C66.2381 44.4395 66.2596 44.4255 66.2776 44.4076C66.2955 44.3897 66.3095 44.3681 66.3185 44.3444C66.3275 44.3207 66.3315 44.2954 66.33 44.27C66.33 44.2196 66.31 44.1713 66.2744 44.1357C66.2387 44.1 66.1904 44.08 66.14 44.08C66.0904 44.0824 66.0435 44.1032 66.0083 44.1384C65.9732 44.1735 65.9524 44.2204 65.95 44.27C65.95 44.3204 65.97 44.3687 66.0057 44.4044C66.0413 44.44 66.0896 44.46 66.14 44.46Z" stroke="black" stroke-width="0.57" stroke-linecap="round" stroke-linejoin="round"/>
<path d="M57.47 40.11H80.53" stroke="black" stroke-width="0.57" stroke-miterlimit="22.93" stroke-linecap="round"/>
<path fill-rule="evenodd" clip-rule="evenodd" d="M60.92 40.11H71.64V41.59C71.64 43.0115 71.0753 44.3749 70.0701 45.3801C69.0649 46.3853 67.7016 46.95 66.28 46.95C64.8585 46.95 63.4951 46.3853 62.4899 45.3801C61.4847 44.3749 60.92 43.0115 60.92 41.59V40.11Z" fill="black"/>
<path d="M60.92 40.11H71.64V41.59C71.64 43.0115 71.0753 44.3749 70.0701 45.3801C69.0649 46.3853 67.7016 46.95 66.28 46.95C64.8585 46.95 63.4951 46.3853 62.4899 45.3801C61.4847 44.3749 60.92 43.0115 60.92 41.59V40.11Z" stroke="black" stroke-width="0.57" stroke-miterlimit="22.93" stroke-linecap="round"/>
<path fill-rule="evenodd" clip-rule="evenodd" d="M48.23 40.11H58.95V41.59C58.95 43.0115 58.3853 44.3749 57.3801 45.3801C56.3749 46.3853 55.0116 46.95 53.59 46.95C52.1685 46.95 50.8051 46.3853 49.7999 45.3801C48.7947 44.3749 48.23 43.0115 48.23 41.59V40.11Z" fill="black"/>
<path d="M48.23 40.11H58.95V41.59C58.95 43.0115 58.3853 44.3749 57.3801 45.3801C56.3749 46.3853 55.0116 46.95 53.59 46.95C52.1685 46.95 50.8051 46.3853 49.7999 45.3801C48.7947 44.3749 48.23 43.0115 48.23 41.59V40.11Z" stroke="black" stroke-width="0.57" stroke-miterlimit="22.93" stroke-linecap="round"/>
<path d="M68.81 51.04C69.1378 50.87 69.4285 50.6366 69.6654 50.3534C69.9023 50.0701 70.0806 49.7427 70.19 49.39" stroke="black" stroke-width="0.57" stroke-miterlimit="22.93" stroke-linecap="round"/>
<path d="M69.21 48.73C69.5085 48.9773 69.857 49.1572 70.2316 49.2573C70.6061 49.3574 70.9979 49.3754 71.38 49.31" stroke="black" stroke-width="0.57" stroke-miterlimit="22.93" stroke-linecap="round"/>
<path fill-rule="evenodd" clip-rule="evenodd" d="M27.28 75.24C31.57 77.44 36.07 78.86 40.81 81C44.2191 82.5854 47.7993 83.7732 51.48 84.54C55.15 85.18 57.48 85.45 60.37 84.42C64.53 82.94 80.21 76.01 81.26 74.14C84.08 69.14 80.88 63.82 75.04 63.75L55.79 72.75L33.15 64.26C30.3 58.76 26.15 61.72 25.95 61.46L20.76 59.4C19.26 58.8 15.85 57.83 15.41 60.28C15.06 62.2 20.6 63.83 20.6 63.83C16.9 64.65 19.6 67.83 19.6 67.83C17.71 69.55 18.6 71.15 21.3 72.66C23.04 73.66 26.37 74.77 27.3 75.26" fill="white"/>
<path d="M75.04 63.75L55.79 72.75L33.15 64.26C30.3 58.76 26.15 61.72 25.95 61.46L20.76 59.4C19.26 58.8 15.85 57.83 15.41 60.28C15.06 62.2 20.6 63.83 20.6 63.83C16.9 64.65 19.6 67.83 19.6 67.83C17.71 69.55 18.6 71.15 21.3 72.66C23.04 73.66 26.37 74.77 27.3 75.26C31.59 77.46 36.09 78.88 40.83 81.02C44.2336 82.5971 47.807 83.7782 51.48 84.54C55.15 85.18 57.97 85.28 60.84 84.25C64.99 82.77 80.21 76.01 81.26 74.14" stroke="black" stroke-width="0.57" stroke-miterlimit="22.93" stroke-linecap="round"/>
<path d="M19.99 63.63L23.26 64.73" stroke="black" stroke-width="0.57" stroke-linecap="round" stroke-linejoin="round"/>
<path d="M25.81 61.37L28.15 62.23" stroke="black" stroke-width="0.57" stroke-linecap="round" stroke-linejoin="round"/>
<path d="M19.56 67.81L22.75 68.81" stroke="black" stroke-width="0.57" stroke-linecap="round" stroke-linejoin="round"/>
<path fill-rule="evenodd" clip-rule="evenodd" d="M7.54 62.78C7.62 62.99 14.15 63.32 12.22 66.2C12.4266 66.2355 12.6305 66.2856 12.83 66.35C13.1542 66.4666 13.4331 66.6829 13.6267 66.9679C13.8203 67.253 13.9186 67.592 13.9075 67.9364C13.8964 68.2807 13.7765 68.6127 13.5649 68.8847C13.3533 69.1566 13.0611 69.3545 12.73 69.45C12.73 69.45 14.82 69.2 14.73 70.87C14.67 72.81 10.66 72.62 9.36 72.24C8.93507 72.1618 8.54894 71.9426 8.26403 71.6177C7.97913 71.2929 7.81212 70.8815 7.79 70.45C7.71 69.61 8.3 70.45 6.73 69.18C5.16 67.91 6.50999 66.25 6.05999 65.83C4.94999 64.83 4.05999 62.46 6.73999 61.78C6.79999 61.77 7.54 62.78 7.54 62.78Z" fill="white"/>
<path d="M7.54 62.78C7.62 62.99 14.15 63.32 12.22 66.2C12.4266 66.2355 12.6305 66.2856 12.83 66.35C13.1542 66.4666 13.4331 66.6829 13.6267 66.9679C13.8203 67.253 13.9186 67.592 13.9075 67.9364C13.8964 68.2807 13.7765 68.6127 13.5649 68.8847C13.3533 69.1566 13.0611 69.3545 12.73 69.45C12.73 69.45 14.82 69.2 14.73 70.87C14.67 72.81 10.66 72.62 9.36 72.24C8.93507 72.1618 8.54894 71.9426 8.26403 71.6177C7.97913 71.2929 7.81212 70.8815 7.79 70.45C7.71 69.61 8.3 70.45 6.73 69.18C5.16 67.91 6.50999 66.25 6.05999 65.83C4.94999 64.83 4.05999 62.46 6.73999 61.78C6.79999 61.77 7.54 62.78 7.54 62.78Z" stroke="black" stroke-width="0.57" stroke-miterlimit="22.93" stroke-linecap="round"/>
<path d="M6.06 65.8C6.40544 65.9778 6.77156 66.1121 7.15 66.2C8.74994 66.5842 10.4131 66.6251 12.03 66.32H12.15" stroke="black" stroke-width="0.57" stroke-miterlimit="22.93" stroke-linecap="round"/>
<path d="M7.54001 69.74C9.28001 69.74 11.54 70 13.12 69.3C13.1595 69.2857 13.1966 69.2655 13.23 69.24" stroke="black" stroke-width="0.57" stroke-miterlimit="22.93" stroke-linecap="round"/>
<path fill-rule="evenodd" clip-rule="evenodd" d="M44.54 82.93L44.01 84.47C47.79 85.47 52.35 86.37 56.27 85.97C59.3957 85.5369 62.404 84.4865 65.12 82.88C66.3381 82.1491 67.5931 81.4815 68.88 80.88C68.71 80.88 61.08 85.16 55.36 85.16C53.5988 85.1433 51.8486 84.8808 50.16 84.38L44.54 82.93Z" fill="black"/>
<path d="M44.54 82.93L44.01 84.47C47.79 85.47 52.35 86.37 56.27 85.97C59.3957 85.5369 62.404 84.4865 65.12 82.88C66.3381 82.1491 67.5931 81.4815 68.88 80.88C68.71 80.88 61.08 85.16 55.36 85.16C53.5988 85.1433 51.8486 84.8808 50.16 84.38L44.54 82.93Z" stroke="black" stroke-width="0.57" stroke-miterlimit="22.93" stroke-linecap="round"/>
<path fill-rule="evenodd" clip-rule="evenodd" d="M-25.9 19.83L1.48001 31.19L3.52001 24.43L-25.9 19.83Z" fill="black"/>
<path d="M-25.9 19.83L1.48001 31.19L3.52001 24.43L-25.9 19.83Z" stroke="black" stroke-width="0.57" stroke-linecap="round" stroke-linejoin="round"/>
<path fill-rule="evenodd" clip-rule="evenodd" d="M-19.88 21.96L0.939995 26.21L1.62999 31.26L-19.88 21.96Z" fill="white"/>
<path d="M-19.88 21.96L0.939995 26.21L1.62999 31.26L-19.88 21.96Z" stroke="black" stroke-width="0.57" stroke-linecap="round" stroke-linejoin="round"/>
<path fill-rule="evenodd" clip-rule="evenodd" d="M-7.91 31.38L0.940002 26.21L-31 19L-7.91 31.38Z" fill="white"/>
<path d="M-7.91 31.38L0.940002 26.21L-31 19L-7.91 31.38Z" stroke="black" stroke-width="0.57" stroke-linecap="round" stroke-linejoin="round"/>
</g>
</svg>
