<svg width="100" height="102" viewBox="0 0 100 102" fill="none" xmlns="http://www.w3.org/2000/svg">
<circle cx="50" cy="52" r="49" fill="#E7FF53" stroke="#202020" stroke-width="2"/>
<mask id="mask0_1_827" style="mask-type:alpha" maskUnits="userSpaceOnUse" x="0" y="0" width="100" height="100">
<circle cx="50" cy="50" r="49" fill="#E7FF53" stroke="#202020" stroke-width="2"/>
</mask>
<g mask="url(#mask0_1_827)">
<path fill-rule="evenodd" clip-rule="evenodd" d="M66.0635 67.0547L72.5935 71.5747C72.5935 71.5747 79.2235 63.9947 79.2935 62.7447C79.4735 59.5047 78.8035 55.7447 79.8635 52.4947C81.6135 47.1447 86.8635 48.4147 88.1635 51.2747C88.1635 51.2747 79.6035 51.2047 90.1635 51.2747C90.6376 51.2501 91.1085 51.3642 91.5186 51.6032C91.9287 51.8422 92.2602 52.1956 92.4725 52.6202C92.6848 53.0448 92.7686 53.522 92.7137 53.9935C92.6588 54.465 92.4676 54.9102 92.1635 55.2747C92.0535 55.4247 95.1635 56.4447 93.1635 59.5647C95.6835 62.3547 92.5235 64.0447 92.3035 64.2647C88.4935 67.8747 84.1035 75.7547 81.9035 79.2647C77.1235 86.9747 63.8035 79.6147 62.9035 78.8047C62.5935 78.5747 66.0635 67.0547 66.0635 67.0547Z" fill="white"/>
<path d="M66.0635 67.0547L72.5935 71.5747C72.5935 71.5747 79.2235 63.9947 79.2935 62.7447C79.4735 59.5047 78.8035 55.7447 79.8635 52.4947C81.6135 47.1447 86.8635 48.4147 88.1635 51.2747C88.1635 51.2747 79.6035 51.2047 90.1635 51.2747C90.6376 51.2501 91.1085 51.3642 91.5186 51.6032C91.9287 51.8422 92.2602 52.1956 92.4725 52.6202C92.6848 53.0448 92.7686 53.522 92.7137 53.9935C92.6588 54.465 92.4676 54.9102 92.1635 55.2747C92.0535 55.4247 95.1635 56.4447 93.1635 59.5647C95.6835 62.3547 92.5235 64.0447 92.3035 64.2647C88.4935 67.8747 84.1035 75.7547 81.9035 79.2647C77.1235 86.9747 63.8035 79.6147 62.9035 78.8047C62.5935 78.5747 66.0635 67.0547 66.0635 67.0547Z" stroke="black" stroke-width="0.57" stroke-miterlimit="22.93" stroke-linecap="round"/>
<path d="M85.3835 51.3947C82.3835 51.7547 81.5935 55.9447 85.5035 55.7647C87.0335 55.6947 89.0135 55.5347 88.8835 55.5647C88.4035 55.6647 82.3335 55.9847 84.1435 58.6747C85.2835 60.3547 90.0335 59.6747 89.8735 59.6747C88.8541 59.7731 87.8595 60.0471 86.9335 60.4847C84.1235 61.6047 84.8435 63.9747 87.5935 64.2147C88.2935 64.2747 89.3035 64.3047 90.0335 64.3047" stroke="black" stroke-width="0.57" stroke-miterlimit="22.93" stroke-linecap="round"/>
<path fill-rule="evenodd" clip-rule="evenodd" d="M72.5035 49.7546H85.3735V63.0446C85.3735 63.7961 85.0757 64.517 84.5453 65.0493C84.0148 65.5816 83.295 65.882 82.5435 65.8846H75.3335C74.5821 65.882 73.8623 65.5816 73.3318 65.0493C72.8014 64.517 72.5035 63.7961 72.5035 63.0446V49.7546Z" fill="white"/>
<path d="M72.5035 49.7546H85.3735V63.0446C85.3735 63.7961 85.0757 64.517 84.5453 65.0493C84.0148 65.5816 83.295 65.882 82.5435 65.8846H75.3335C74.5821 65.882 73.8623 65.5816 73.3318 65.0493C72.8014 64.517 72.5035 63.7961 72.5035 63.0446V49.7546Z" stroke="#373435" stroke-width="0.57" stroke-miterlimit="22.93" stroke-linecap="round"/>
<path d="M76.0336 46.8146C73.6136 40.5146 78.1636 40.8146 78.1436 37.0246C78.1436 35.0246 76.4036 34.3146 76.2836 32.5046" stroke="#373435" stroke-width="0.57" stroke-miterlimit="22.93" stroke-linecap="round"/>
<path d="M78.8535 48.1546C76.3435 42.4146 78.6335 42.8946 79.6235 39.4646" stroke="#373435" stroke-width="0.57" stroke-miterlimit="22.93" stroke-linecap="round"/>
<path fill-rule="evenodd" clip-rule="evenodd" d="M61.8135 29.9546C61.8135 38.5046 61.8135 38.3646 61.8135 46.9546C61.6635 68.0646 74.1835 68.4846 72.7335 97.5846C72.5235 101.835 69.0535 101.305 68.4035 107.015C63.6035 108.185 50.7535 103.495 45.9535 104.655C41.1635 103.495 29.2935 113.085 24.5035 111.915C23.2135 106.275 21.6435 102.915 21.6835 98.4746C21.8735 71.4746 33.0735 64.7546 33.0535 48.4746V30.0146C33.0235 11.0146 61.7835 11.6646 61.8135 29.9546Z" fill="white"/>
<path d="M61.8135 29.9546C61.8135 38.5046 61.8135 38.3646 61.8135 46.9546C61.6635 68.0646 74.1835 68.4846 72.7335 97.5846C72.5235 101.835 69.0535 101.305 68.4035 107.015C63.6035 108.185 50.7535 103.495 45.9535 104.655C41.1635 103.495 29.2935 113.085 24.5035 111.915C23.2135 106.275 21.6435 102.915 21.6835 98.4746C21.8735 71.4746 33.0735 64.7546 33.0535 48.4746V30.0146C33.0235 11.0146 61.7835 11.6646 61.8135 29.9546Z" stroke="black" stroke-width="0.57" stroke-linecap="round" stroke-linejoin="round"/>
<path fill-rule="evenodd" clip-rule="evenodd" d="M78.7835 96.9246C87.1235 97.4146 101.324 101.005 100.704 120.625C100.704 139.775 100.784 153.575 100.704 154.565C101.494 154.815 60.9535 154.765 60.9535 154.765C60.9535 154.765 61.2435 132.125 61.1135 127.715C61.0035 124.005 60.8235 120.995 55.5635 121.015C54.6335 121.015 42.9235 121.015 41.9435 121.075C33.8635 121.375 19.7435 122.075 20.0035 106.075C20.0035 103.675 20.7535 101.285 21.7535 97.6346C21.7783 97.3919 21.7783 97.1473 21.7535 96.9046H68.2335C71.5335 96.9246 75.5935 96.7446 78.7835 96.9246Z" fill="white"/>
<path d="M78.7835 96.9246C87.1235 97.4146 101.324 101.005 100.704 120.625C100.704 139.775 100.784 153.575 100.704 154.565C101.494 154.815 60.9535 154.765 60.9535 154.765C60.9535 154.765 61.2435 132.125 61.1135 127.715C61.0035 124.005 60.8235 120.995 55.5635 121.015C54.6335 121.015 42.9235 121.015 41.9435 121.075C33.8635 121.375 19.7435 122.075 20.0035 106.075C20.0035 103.675 20.7535 101.285 21.7535 97.6346C21.7783 97.3919 21.7783 97.1473 21.7535 96.9046H68.2335C71.5335 96.9246 75.5935 96.7446 78.7835 96.9246Z" stroke="black" stroke-width="0.57" stroke-linecap="round" stroke-linejoin="round"/>
<path fill-rule="evenodd" clip-rule="evenodd" d="M33.3235 51.8446H61.8235C62.354 51.8446 62.8627 52.0553 63.2378 52.4304C63.6128 52.8055 63.8235 53.3142 63.8235 53.8446C63.8235 54.375 63.6128 54.8837 63.2378 55.2588C62.8627 55.6339 62.354 55.8446 61.8235 55.8446H33.3235C32.7931 55.8446 32.2844 55.6339 31.9093 55.2588C31.5343 54.8837 31.3235 54.375 31.3235 53.8446C31.3235 53.3142 31.5343 52.8055 31.9093 52.4304C32.2844 52.0553 32.7931 51.8446 33.3235 51.8446Z" fill="white"/>
<path d="M33.3235 51.8446H61.8235C62.354 51.8446 62.8627 52.0553 63.2378 52.4304C63.6128 52.8055 63.8235 53.3142 63.8235 53.8446C63.8235 54.375 63.6128 54.8837 63.2378 55.2588C62.8627 55.6339 62.354 55.8446 61.8235 55.8446H33.3235C32.7931 55.8446 32.2844 55.6339 31.9093 55.2588C31.5343 54.8837 31.3235 54.375 31.3235 53.8446C31.3235 53.3142 31.5343 52.8055 31.9093 52.4304C32.2844 52.0553 32.7931 51.8446 33.3235 51.8446Z" stroke="black" stroke-width="0.57" stroke-miterlimit="22.93" stroke-linecap="round"/>
<path fill-rule="evenodd" clip-rule="evenodd" d="M62.4535 55.8646L62.8935 57.6346C57.3353 56.7371 51.7288 56.1695 46.1035 55.9346L62.4535 55.8646Z" fill="black"/>
<path d="M62.4535 55.8646L62.8935 57.6346C57.3353 56.7371 51.7288 56.1695 46.1035 55.9346L62.4535 55.8646Z" stroke="black" stroke-width="0.57" stroke-miterlimit="22.93" stroke-linecap="round"/>
<path fill-rule="evenodd" clip-rule="evenodd" d="M61.3635 28.2246L61.8036 29.9946C56.2454 29.0963 50.6389 28.5286 45.0135 28.2946L61.3635 28.2246Z" fill="black"/>
<path d="M61.3635 28.2246L61.8036 29.9946C56.2454 29.0963 50.6389 28.5286 45.0135 28.2946L61.3635 28.2246Z" stroke="black" stroke-width="0.57" stroke-miterlimit="22.93" stroke-linecap="round"/>
<path d="M84.0735 154.895V118.515C84.0735 116.795 84.8535 98.1646 68.2335 96.8846" stroke="black" stroke-width="0.57" stroke-miterlimit="22.93" stroke-linecap="round"/>
<path fill-rule="evenodd" clip-rule="evenodd" d="M60.8535 40.8446C60.5241 40.8446 60.202 40.7472 59.9279 40.5645C59.6537 40.3819 59.4396 40.1222 59.3127 39.8183C59.1857 39.5143 59.1515 39.1795 59.2143 38.8561C59.2771 38.5327 59.4342 38.2352 59.6658 38.0008C59.8973 37.7665 60.193 37.6059 60.5157 37.5392C60.8383 37.4725 61.1734 37.5028 61.4789 37.6261C61.7844 37.7494 62.0465 37.9604 62.2324 38.2324C62.4183 38.5043 62.5196 38.8252 62.5235 39.1546C62.5249 39.3753 62.4827 39.594 62.3995 39.7983C62.3163 40.0026 62.1936 40.1886 62.0386 40.3455C61.8835 40.5024 61.699 40.6273 61.4957 40.7129C61.2924 40.7986 61.0742 40.8433 60.8535 40.8446Z" fill="#FEFEFE"/>
<path d="M60.8535 40.8446C60.5241 40.8446 60.202 40.7472 59.9279 40.5645C59.6537 40.3819 59.4396 40.1222 59.3127 39.8183C59.1857 39.5143 59.1515 39.1795 59.2143 38.8561C59.2771 38.5327 59.4342 38.2352 59.6658 38.0008C59.8973 37.7665 60.193 37.6059 60.5157 37.5392C60.8383 37.4725 61.1734 37.5028 61.4789 37.6261C61.7844 37.7494 62.0465 37.9604 62.2324 38.2324C62.4183 38.5043 62.5196 38.8252 62.5235 39.1546C62.5249 39.3753 62.4827 39.594 62.3995 39.7983C62.3163 40.0026 62.1936 40.1886 62.0386 40.3455C61.8835 40.5024 61.699 40.6273 61.4957 40.7129C61.2924 40.7986 61.0742 40.8433 60.8535 40.8446Z" stroke="black" stroke-width="0.57" stroke-linecap="round" stroke-linejoin="round"/>
<path fill-rule="evenodd" clip-rule="evenodd" d="M46.8236 37.5046C47.1547 37.5047 47.4784 37.6031 47.7534 37.7875C48.0285 37.9719 48.2425 38.2339 48.3683 38.5403C48.4941 38.8466 48.5259 39.1834 48.4599 39.5079C48.3938 39.8323 48.2327 40.1299 47.9972 40.3626C47.7616 40.5953 47.4622 40.7528 47.1369 40.8149C46.8117 40.8771 46.4753 40.8412 46.1705 40.7117C45.8657 40.5822 45.6063 40.3651 45.4252 40.0878C45.2442 39.8106 45.1496 39.4858 45.1536 39.1546C45.1588 38.7152 45.3371 38.2956 45.6497 37.9867C45.9623 37.6778 46.3841 37.5046 46.8236 37.5046Z" fill="#FEFEFE"/>
<path d="M46.8236 37.5046C47.1547 37.5047 47.4784 37.6031 47.7534 37.7875C48.0285 37.9719 48.2425 38.2339 48.3683 38.5403C48.4941 38.8466 48.5259 39.1834 48.4599 39.5079C48.3938 39.8323 48.2327 40.1299 47.9972 40.3626C47.7616 40.5953 47.4622 40.7528 47.1369 40.8149C46.8117 40.8771 46.4753 40.8412 46.1705 40.7117C45.8657 40.5822 45.6063 40.3651 45.4252 40.0878C45.2442 39.8106 45.1496 39.4858 45.1536 39.1546C45.1588 38.7152 45.3371 38.2956 45.6497 37.9867C45.9623 37.6778 46.3841 37.5046 46.8236 37.5046Z" stroke="black" stroke-width="0.57" stroke-linecap="round" stroke-linejoin="round"/>
<path d="M60.2235 32.6947C60.8824 32.5983 61.555 32.7028 62.1535 32.9947" stroke="black" stroke-width="0.57" stroke-miterlimit="22.93" stroke-linecap="round"/>
<path d="M47.5335 32.6946C46.8746 32.5963 46.2015 32.7009 45.6035 32.9946" stroke="black" stroke-width="0.57" stroke-miterlimit="22.93" stroke-linecap="round"/>
<path fill-rule="evenodd" clip-rule="evenodd" d="M61.3535 39.8647C61.4039 39.8647 61.4522 39.8847 61.4879 39.9203C61.5235 39.956 61.5435 40.0043 61.5435 40.0547C61.5411 40.1043 61.5203 40.1512 61.4852 40.1863C61.45 40.2215 61.4031 40.2422 61.3535 40.2447C61.3031 40.2447 61.2548 40.2247 61.2192 40.189C61.1835 40.1534 61.1635 40.1051 61.1635 40.0547C61.1621 40.0293 61.166 40.004 61.175 39.9803C61.184 39.9566 61.198 39.935 61.2159 39.9171C61.2339 39.8992 61.2554 39.8852 61.2791 39.8762C61.3028 39.8671 61.3282 39.8632 61.3535 39.8647Z" fill="black"/>
<path d="M61.3535 39.8647C61.4039 39.8647 61.4522 39.8847 61.4879 39.9203C61.5235 39.956 61.5435 40.0043 61.5435 40.0547C61.5411 40.1043 61.5203 40.1512 61.4852 40.1863C61.45 40.2215 61.4031 40.2422 61.3535 40.2447C61.3031 40.2447 61.2548 40.2247 61.2192 40.189C61.1835 40.1534 61.1635 40.1051 61.1635 40.0547C61.1621 40.0293 61.166 40.004 61.175 39.9803C61.184 39.9566 61.198 39.935 61.2159 39.9171C61.2339 39.8992 61.2554 39.8852 61.2791 39.8762C61.3028 39.8671 61.3282 39.8632 61.3535 39.8647Z" stroke="black" stroke-width="0.57" stroke-linecap="round" stroke-linejoin="round"/>
<path fill-rule="evenodd" clip-rule="evenodd" d="M47.4335 40.0547C47.3839 40.0522 47.337 40.0315 47.3019 39.9963C47.2668 39.9612 47.246 39.9143 47.2435 39.8647C47.2435 39.8133 47.2632 39.7639 47.2985 39.7267C47.3339 39.6894 47.3822 39.6672 47.4335 39.6647C47.4593 39.6646 47.4849 39.6699 47.5086 39.68C47.5324 39.6902 47.5538 39.7051 47.5715 39.7238C47.5893 39.7425 47.6031 39.7647 47.612 39.7889C47.621 39.8131 47.6249 39.8389 47.6235 39.8647C47.6235 39.9151 47.6035 39.9634 47.5679 39.999C47.5322 40.0347 47.4839 40.0547 47.4335 40.0547Z" fill="black"/>
<path d="M47.4335 40.0547C47.3839 40.0522 47.337 40.0315 47.3019 39.9963C47.2668 39.9612 47.246 39.9143 47.2435 39.8647C47.2435 39.8133 47.2632 39.7639 47.2985 39.7267C47.3339 39.6894 47.3822 39.6672 47.4335 39.6647C47.4593 39.6646 47.4849 39.6699 47.5086 39.68C47.5324 39.6902 47.5538 39.7051 47.5715 39.7238C47.5893 39.7425 47.6031 39.7647 47.612 39.7889C47.621 39.8131 47.6249 39.8389 47.6235 39.8647C47.6235 39.9151 47.6035 39.9634 47.5679 39.999C47.5322 40.0347 47.4839 40.0547 47.4335 40.0547Z" stroke="black" stroke-width="0.57" stroke-linecap="round" stroke-linejoin="round"/>
<path d="M49.4635 44.0347C49.8535 44.9747 50.9435 45.0947 51.8435 45.0947" stroke="#373435" stroke-width="0.57" stroke-miterlimit="22.93" stroke-linecap="round"/>
<path fill-rule="evenodd" clip-rule="evenodd" d="M57.1735 58.3646L72.6935 63.8646L65.1135 90.8646L48.1135 84.8646L55.2835 59.3346C55.3335 59.1402 55.4241 58.9586 55.5494 58.8017C55.6747 58.6449 55.8319 58.5164 56.0105 58.4247C56.1891 58.3331 56.3851 58.2803 56.5855 58.27C56.786 58.2596 56.9864 58.2919 57.1735 58.3646Z" fill="black"/>
<path d="M57.1735 58.3646L72.6935 63.8646L65.1135 90.8646L48.1135 84.8646L55.2835 59.3346C55.3335 59.1402 55.4241 58.9586 55.5494 58.8017C55.6747 58.6449 55.8319 58.5164 56.0105 58.4247C56.1891 58.3331 56.3851 58.2803 56.5855 58.27C56.786 58.2596 56.9864 58.2919 57.1735 58.3646Z" stroke="black" stroke-width="0.57" stroke-miterlimit="22.93" stroke-linecap="round"/>
<path fill-rule="evenodd" clip-rule="evenodd" d="M78.5936 58.7946L72.8736 63.7946L65.2936 90.7946L72.1536 84.7946L78.9836 60.4846C79.4336 58.9946 79.2536 58.2446 78.5936 58.7946Z" fill="black"/>
<path d="M78.5936 58.7946L72.8736 63.7946L65.2936 90.7946L72.1536 84.7946L78.9836 60.4846C79.4336 58.9946 79.2536 58.2446 78.5936 58.7946Z" stroke="black" stroke-width="0.57" stroke-miterlimit="22.93" stroke-linecap="round"/>
<path fill-rule="evenodd" clip-rule="evenodd" d="M38.3436 62.3547C41.8536 67.2947 42.5036 72.2647 47.0936 76.5447C47.9536 77.3447 53.9936 79.1147 58.5636 80.4247C60.5036 80.9747 64.1136 79.8147 65.0136 80.0947C65.9136 80.3747 67.4936 81.1947 66.2036 83.5247C65.9536 83.9847 69.3336 83.6547 69.9736 84.3347C71.7636 86.2647 68.9736 87.7047 68.9736 87.7047C69.1236 89.2247 68.0836 89.8047 66.5336 90.4047C66.4142 90.7718 66.191 91.0965 65.8911 91.3396C65.5913 91.5827 65.2274 91.7338 64.8436 91.7747C60.8161 92.1751 56.7493 91.8362 52.8436 90.7747C51.4336 90.3847 49.9436 89.9147 48.5236 89.4247C41.2536 86.9147 35.5236 85.4247 32.0036 78.1147C31.6936 77.4747 30.1536 74.3747 29.0036 72.2047C26.0036 66.4047 35.7236 58.1147 38.3136 62.3047" fill="white"/>
<path d="M38.3435 62.3546C41.8535 67.2946 42.5035 72.2646 47.0935 76.5446C47.9535 77.3446 53.9935 79.1146 58.5635 80.4246C60.5035 80.9746 64.1135 79.8146 65.0135 80.0946C65.9135 80.3746 67.4935 81.1946 66.2035 83.5246C65.9535 83.9846 69.3335 83.6546 69.9735 84.3346C71.7635 86.2646 68.9735 87.7046 68.9735 87.7046C69.1235 89.2246 68.0835 89.8046 66.5335 90.4046C66.4141 90.7717 66.191 91.0964 65.8911 91.3395C65.5912 91.5826 65.2274 91.7337 64.8435 91.7746C60.816 92.1751 56.7492 91.8362 52.8435 90.7746C51.4335 90.3846 49.9435 89.9146 48.5235 89.4246C41.2535 86.9146 35.5235 85.4246 32.0035 78.1146C31.6935 77.4746 30.1535 74.3746 29.0035 72.2046" stroke="black" stroke-width="0.57" stroke-miterlimit="22.93" stroke-linecap="round"/>
<path d="M64.5935 87.1547C66.1013 87.5789 67.6713 87.738 69.2335 87.6247" stroke="black" stroke-width="0.57" stroke-miterlimit="22.93" stroke-linecap="round"/>
<path d="M62.0935 89.8446C63.5978 90.2689 65.1646 90.428 66.7235 90.3146" stroke="black" stroke-width="0.57" stroke-miterlimit="22.93" stroke-linecap="round"/>
<path fill-rule="evenodd" clip-rule="evenodd" d="M58.5935 92.9947C50.7035 92.1747 41.4635 87.7147 37.5935 84.9947C37.0335 84.5947 35.4035 83.1147 37.5235 84.7347C39.6435 86.3547 43.5235 87.7347 46.5235 88.8147C51.8739 90.8011 57.5267 91.8498 63.2335 91.9147C63.2335 91.9147 62.0035 93.3447 58.5935 92.9947Z" fill="black"/>
<path d="M58.5935 92.9947C50.7035 92.1747 41.4635 87.7147 37.5935 84.9947C37.0335 84.5947 35.4035 83.1147 37.5235 84.7347C39.6435 86.3547 43.5235 87.7347 46.5235 88.8147C51.8739 90.8011 57.5267 91.8498 63.2335 91.9147C63.2335 91.9147 62.0035 93.3447 58.5935 92.9947Z" stroke="black" stroke-width="0.57" stroke-miterlimit="22.93" stroke-linecap="round"/>
<path d="M66.5535 83.7747L62.6035 83.2847" stroke="black" stroke-width="0.57" stroke-miterlimit="22.93" stroke-linecap="round"/>
</g>
</svg>
