<svg width="100" height="102" viewBox="0 0 100 102" fill="none" xmlns="http://www.w3.org/2000/svg">
<circle cx="50" cy="52" r="49" fill="#E7FF53" stroke="#202020" stroke-width="2"/>
<mask id="mask0_1_1156" style="mask-type:alpha" maskUnits="userSpaceOnUse" x="0" y="0" width="100" height="100">
<circle cx="50" cy="50" r="49" fill="#E7FF53" stroke="#202020" stroke-width="2"/>
</mask>
<g mask="url(#mask0_1_1156)">
<path fill-rule="evenodd" clip-rule="evenodd" d="M97.0914 119.909C98.3114 120.159 101.681 124.709 102.251 125.969C103.151 127.969 104.411 132.189 107.421 131.069C110.061 130.069 108.071 125.069 106.921 123.759C106.491 123.259 104.061 120.019 105.861 120.019C107.261 120.019 111.071 122.589 110.661 122.959C112.851 125.169 113.091 129.629 113.341 130.459C114.691 133.729 116.341 132.779 117.271 131.779C117.761 131.279 117.651 130.019 118.091 129.779C119.341 129.109 120.031 127.179 118.581 123.679C117.321 120.679 114.671 117.729 110.231 113.929C101.781 107.289 70.7214 82.2892 62.8614 64.4192C57.8614 69.0192 58.6414 82.3092 63.9514 87.4792C66.9514 90.4092 69.5214 94.2492 72.5914 97.5292C73.1206 98.1638 73.6082 98.8318 74.0514 99.5292L97.0914 119.909Z" fill="white"/>
<path d="M110.661 122.959C112.194 124.428 113.394 126.208 114.181 128.179C115.571 131.419 121.551 130.829 118.581 123.689C117.321 120.689 114.671 117.739 110.231 113.939C101.781 107.299 70.7214 82.2992 62.8614 64.4292" stroke="black" stroke-width="0.57" stroke-linecap="round" stroke-linejoin="round"/>
<path fill-rule="evenodd" clip-rule="evenodd" d="M63.0014 36.9692C63.0014 45.5192 63.0014 45.3692 63.0014 53.9692C62.9838 58.9901 63.6362 63.9909 64.9414 68.8392C66.6014 75.0792 68.8014 77.9692 72.3214 89.3392C74.1714 95.3392 75.5314 97.9992 75.8114 106.179H23.0914C20.1614 78.4892 34.2914 72.5892 34.2614 55.4292V36.9692C34.2114 18.0192 62.9714 18.6692 63.0014 36.9692Z" fill="white"/>
<path d="M63.0014 36.9692C63.0014 45.5192 63.0014 45.3692 63.0014 53.9692C62.9838 58.9901 63.6362 63.9909 64.9414 68.8392C66.6014 75.0792 68.8014 77.9692 72.3214 89.3392C74.1714 95.3392 75.5314 97.9992 75.8114 106.179H23.0914C20.1614 78.4892 34.2914 72.5892 34.2614 55.4292V36.9692C34.2114 18.0192 62.9714 18.6692 63.0014 36.9692Z" stroke="black" stroke-width="0.57" stroke-linecap="round" stroke-linejoin="round"/>
<path fill-rule="evenodd" clip-rule="evenodd" d="M18.4614 158.699C17.7814 160.339 15.5114 159.969 14.6814 158.589C14.5614 158.399 10.3114 158.779 10.2214 154.769C10.1014 149.919 11.7714 141.379 11.9114 139.239C13.3414 117.099 17.5314 103.919 21.7314 88.3292C24.1114 79.4492 30.2614 68.1992 33.3114 64.3292C34.3114 63.0692 35.1714 64.1992 35.9914 64.3992C37.2914 64.6992 38.4614 65.5092 39.6614 70.0392C40.9214 74.8292 38.5414 86.3592 34.3714 89.0392C31.0114 103.509 25.8914 121.109 24.9514 135.969C24.7714 138.969 24.4014 141.509 24.8214 143.229C25.2414 144.949 26.3714 145.689 27.1614 148.779C27.6614 150.779 24.2414 155.519 22.7614 154.849C21.7614 154.409 22.0614 153.699 21.0614 150.339C20.8114 149.509 19.6014 146.229 19.0614 145.949C17.7314 145.209 18.3114 156.699 18.5014 158.699" fill="white"/>
<path d="M17.2114 151.489C17.1326 153.612 17.5147 155.728 18.3314 157.689C18.8514 159.059 17.9714 159.689 16.9714 159.759C15.5614 159.899 14.4914 158.899 13.4914 156.099C12.7456 153.698 12.4839 151.172 12.7214 148.669C12.8614 147.229 11.0414 146.879 11.2414 144.719C12.6814 134.059 14.9014 91.9492 32.9414 64.3892" stroke="black" stroke-width="0.57" stroke-linecap="round" stroke-linejoin="round"/>
<path d="M17.2414 152.679C17.0414 150.679 17.6914 145.209 19.0214 145.949C19.6014 146.229 20.8114 149.509 21.0214 150.339C21.4214 151.679 21.5114 153.269 21.8114 153.989C22.8114 156.439 26.1314 153.269 26.7014 151.069C27.7914 146.859 24.9514 143.759 24.7814 143.229C24.1814 141.409 24.7814 138.229 24.9114 135.969C25.8514 121.109 30.9714 103.509 34.3314 89.0392" stroke="black" stroke-width="0.57" stroke-linecap="round" stroke-linejoin="round"/>
<path fill-rule="evenodd" clip-rule="evenodd" d="M25.8514 127.619L34.3714 89.0392C35.0114 93.5892 31.8314 101.239 31.4714 103.899C29.6514 117.459 26.3914 134.219 28.4114 147.579C29.0014 151.489 26.1914 152.499 26.3314 152.219C26.9958 150.717 27.1605 149.042 26.8014 147.439C26.4414 145.439 25.1214 144.439 25.8014 143.439L25.8514 127.619Z" fill="black"/>
<path d="M25.8514 127.619L34.3714 89.0392C35.0114 93.5892 31.8314 101.239 31.4714 103.899C29.6514 117.459 26.3914 134.219 28.4114 147.579C29.0014 151.489 26.1914 152.499 26.3314 152.219C26.9958 150.717 27.1605 149.042 26.8014 147.439C26.4414 145.439 25.1214 144.439 25.8014 143.439L25.8514 127.619Z" stroke="black" stroke-width="0.57" stroke-miterlimit="22.93" stroke-linecap="round"/>
<path fill-rule="evenodd" clip-rule="evenodd" d="M67.1614 75.1792L71.1614 85.7292L74.5214 97.1192C74.7014 97.1992 74.6614 97.1192 74.6514 97.3092C74.5314 98.9992 73.8414 94.3092 73.7614 93.9292C73.2914 91.6092 70.0214 76.3192 70.1714 76.0492L65.2714 69.0492L67.1614 75.1792Z" fill="black"/>
<path fill-rule="evenodd" clip-rule="evenodd" d="M61.7214 46.9292C61.3911 46.9292 61.0682 46.8313 60.7936 46.6478C60.519 46.4643 60.3049 46.2035 60.1785 45.8983C60.0521 45.5932 60.019 45.2574 60.0835 44.9334C60.1479 44.6095 60.307 44.3119 60.5405 44.0784C60.7741 43.8448 61.0716 43.6858 61.3956 43.6213C61.7195 43.5569 62.0553 43.59 62.3605 43.7164C62.6656 43.8428 62.9264 44.0568 63.1099 44.3314C63.2934 44.6061 63.3914 44.9289 63.3914 45.2592C63.3914 45.7021 63.2154 46.1269 62.9023 46.4401C62.5891 46.7533 62.1643 46.9292 61.7214 46.9292Z" fill="white"/>
<path d="M61.7214 46.9292C61.3911 46.9292 61.0682 46.8313 60.7936 46.6478C60.519 46.4643 60.3049 46.2035 60.1785 45.8983C60.0521 45.5932 60.019 45.2574 60.0835 44.9334C60.1479 44.6095 60.307 44.3119 60.5405 44.0784C60.7741 43.8448 61.0716 43.6858 61.3956 43.6213C61.7195 43.5569 62.0553 43.59 62.3605 43.7164C62.6656 43.8428 62.9264 44.0568 63.1099 44.3314C63.2934 44.6061 63.3914 44.9289 63.3914 45.2592C63.3914 45.7021 63.2154 46.1269 62.9023 46.4401C62.5891 46.7533 62.1643 46.9292 61.7214 46.9292Z" stroke="black" stroke-width="0.57" stroke-linecap="round" stroke-linejoin="round"/>
<path fill-rule="evenodd" clip-rule="evenodd" d="M47.7014 43.5891C48.0313 43.5911 48.3531 43.6907 48.6265 43.8754C48.8998 44.0601 49.1123 44.3216 49.2371 44.627C49.362 44.9323 49.3936 45.2677 49.3281 45.591C49.2625 45.9143 49.1027 46.2109 48.8687 46.4435C48.6348 46.6761 48.3372 46.8341 48.0135 46.8978C47.6899 46.9614 47.3546 46.9277 47.05 46.801C46.7455 46.6744 46.4852 46.4603 46.3022 46.1859C46.1191 45.9115 46.0214 45.589 46.0214 45.2591C46.0214 45.039 46.0649 44.821 46.1495 44.6177C46.234 44.4145 46.3579 44.2299 46.5141 44.0747C46.6702 43.9195 46.8555 43.7967 47.0592 43.7134C47.263 43.6301 47.4812 43.5878 47.7014 43.5891Z" fill="white"/>
<path d="M47.7014 43.5891C48.0313 43.5911 48.3531 43.6907 48.6265 43.8754C48.8998 44.0601 49.1123 44.3216 49.2371 44.627C49.362 44.9323 49.3936 45.2677 49.3281 45.591C49.2625 45.9143 49.1027 46.2109 48.8687 46.4435C48.6348 46.6761 48.3372 46.8341 48.0135 46.8978C47.6899 46.9614 47.3546 46.9277 47.05 46.801C46.7455 46.6744 46.4852 46.4603 46.3022 46.1859C46.1191 45.9115 46.0214 45.589 46.0214 45.2591C46.0214 45.039 46.0649 44.821 46.1495 44.6177C46.234 44.4145 46.3579 44.2299 46.5141 44.0747C46.6702 43.9195 46.8555 43.7967 47.0592 43.7134C47.263 43.6301 47.4812 43.5878 47.7014 43.5891Z" stroke="black" stroke-width="0.57" stroke-linecap="round" stroke-linejoin="round"/>
<path d="M61.0914 40.4892C61.7502 40.4006 62.4206 40.5048 63.0214 40.7892" stroke="black" stroke-width="0.57" stroke-miterlimit="22.93" stroke-linecap="round"/>
<path d="M48.4014 39.9091C47.7425 39.8127 47.0699 39.9173 46.4714 40.2091" stroke="black" stroke-width="0.57" stroke-miterlimit="22.93" stroke-linecap="round"/>
<path fill-rule="evenodd" clip-rule="evenodd" d="M52.5214 47.0292H57.5814C57.5814 47.7002 57.3148 48.3437 56.8404 48.8182C56.3659 49.2926 55.7224 49.5592 55.0514 49.5592C54.3804 49.5592 53.7369 49.2926 53.2624 48.8182C52.7879 48.3437 52.5214 47.7002 52.5214 47.0292Z" fill="black"/>
<path d="M52.5214 47.0292H57.5814C57.5814 47.7002 57.3148 48.3437 56.8404 48.8182C56.3659 49.2926 55.7224 49.5592 55.0514 49.5592C54.3804 49.5592 53.7369 49.2926 53.2624 48.8182C52.7879 48.3437 52.5214 47.7002 52.5214 47.0292Z" stroke="black" stroke-width="0.57" stroke-miterlimit="22.93" stroke-linecap="round"/>
<path fill-rule="evenodd" clip-rule="evenodd" d="M62.5214 44.3892C62.5467 44.3878 62.5721 44.3917 62.5958 44.4007C62.6195 44.4098 62.641 44.4237 62.659 44.4416C62.6769 44.4596 62.6909 44.4811 62.6999 44.5048C62.7089 44.5285 62.7128 44.5539 62.7114 44.5792C62.7114 44.6296 62.6914 44.6779 62.6557 44.7136C62.6201 44.7492 62.5718 44.7692 62.5214 44.7692C62.4718 44.7668 62.4249 44.746 62.3897 44.7109C62.3546 44.6757 62.3338 44.6288 62.3314 44.5792C62.3314 44.5288 62.3514 44.4805 62.387 44.4449C62.4227 44.4092 62.471 44.3892 62.5214 44.3892Z" fill="black"/>
<path d="M62.5214 44.3892C62.5467 44.3878 62.5721 44.3917 62.5958 44.4007C62.6195 44.4098 62.641 44.4237 62.659 44.4416C62.6769 44.4596 62.6909 44.4811 62.6999 44.5048C62.7089 44.5285 62.7128 44.5539 62.7114 44.5792C62.7114 44.6296 62.6914 44.6779 62.6557 44.7136C62.6201 44.7492 62.5718 44.7692 62.5214 44.7692C62.4718 44.7668 62.4249 44.746 62.3897 44.7109C62.3546 44.6757 62.3338 44.6288 62.3314 44.5792C62.3314 44.5288 62.3514 44.4805 62.387 44.4449C62.4227 44.4092 62.471 44.3892 62.5214 44.3892Z" stroke="black" stroke-width="0.57" stroke-linecap="round" stroke-linejoin="round"/>
<path fill-rule="evenodd" clip-rule="evenodd" d="M48.2914 44.7692C48.241 44.7692 48.1927 44.7492 48.157 44.7136C48.1214 44.6779 48.1014 44.6296 48.1014 44.5792C48.0999 44.5539 48.1039 44.5285 48.1129 44.5048C48.1219 44.4811 48.1359 44.4596 48.1538 44.4416C48.1718 44.4237 48.1933 44.4098 48.217 44.4007C48.2407 44.3917 48.2661 44.3878 48.2914 44.3892C48.3418 44.3892 48.3901 44.4092 48.4257 44.4449C48.4614 44.4805 48.4814 44.5288 48.4814 44.5792C48.479 44.6288 48.4582 44.6757 48.4231 44.7109C48.3879 44.746 48.341 44.7668 48.2914 44.7692Z" fill="black"/>
<path d="M48.2914 44.7692C48.241 44.7692 48.1927 44.7492 48.157 44.7136C48.1214 44.6779 48.1014 44.6296 48.1014 44.5792C48.0999 44.5539 48.1039 44.5285 48.1129 44.5048C48.1219 44.4811 48.1359 44.4596 48.1538 44.4416C48.1718 44.4237 48.1933 44.4098 48.217 44.4007C48.2407 44.3917 48.2661 44.3878 48.2914 44.3892C48.3418 44.3892 48.3901 44.4092 48.4257 44.4449C48.4614 44.4805 48.4814 44.5288 48.4814 44.5792C48.479 44.6288 48.4582 44.6757 48.4231 44.7109C48.3879 44.746 48.341 44.7668 48.2914 44.7692Z" stroke="black" stroke-width="0.57" stroke-linecap="round" stroke-linejoin="round"/>
<path fill-rule="evenodd" clip-rule="evenodd" d="M34.4114 57.6392H62.9114C63.4418 57.6392 63.9506 57.8499 64.3256 58.2249C64.7007 58.6 64.9114 59.1087 64.9114 59.6392C64.9114 60.1696 64.7007 60.6783 64.3256 61.0534C63.9506 61.4284 63.4418 61.6392 62.9114 61.6392H34.4114C33.881 61.6392 33.3723 61.4284 32.9972 61.0534C32.6221 60.6783 32.4114 60.1696 32.4114 59.6392C32.4114 59.1087 32.6221 58.6 32.9972 58.2249C33.3723 57.8499 33.881 57.6392 34.4114 57.6392Z" fill="white"/>
<path d="M34.4114 57.6392H62.9114C63.4418 57.6392 63.9505 57.8499 64.3256 58.2249C64.7007 58.6 64.9114 59.1087 64.9114 59.6392C64.9114 60.1696 64.7007 60.6783 64.3256 61.0534C63.9505 61.4284 63.4418 61.6392 62.9114 61.6392H34.4114C33.881 61.6392 33.3723 61.4284 32.9972 61.0534C32.6221 60.6783 32.4114 60.1696 32.4114 59.6392C32.4114 59.1087 32.6221 58.6 32.9972 58.2249C33.3723 57.8499 33.881 57.6392 34.4114 57.6392Z" stroke="black" stroke-width="0.57" stroke-miterlimit="22.93" stroke-linecap="round"/>
<path fill-rule="evenodd" clip-rule="evenodd" d="M63.0314 61.5892L63.4614 63.3592C57.9065 62.4603 52.3034 61.8894 46.6814 61.6492L63.0314 61.5892Z" fill="black"/>
<path d="M63.0314 61.5892L63.4614 63.3592C57.9065 62.4603 52.3034 61.8894 46.6814 61.6492L63.0314 61.5892Z" stroke="black" stroke-width="0.57" stroke-miterlimit="22.93" stroke-linecap="round"/>
<path d="M34.2514 37.2493H78.0914" stroke="black" stroke-width="0.57" stroke-miterlimit="22.93" stroke-linecap="round"/>
<path fill-rule="evenodd" clip-rule="evenodd" d="M62.5214 37.1792L62.9614 38.9492C57.4032 38.0517 51.7967 37.484 46.1714 37.2492L62.5214 37.1792Z" fill="black"/>
<path d="M62.5214 37.1792L62.9614 38.9492C57.4032 38.0517 51.7967 37.484 46.1714 37.2492L62.5214 37.1792Z" stroke="black" stroke-width="0.57" stroke-miterlimit="22.93" stroke-linecap="round"/>
<path fill-rule="evenodd" clip-rule="evenodd" d="M92.6514 7.37924L91.2214 11.3792C90.8014 11.5392 88.7314 11.8192 86.0514 8.37924C85.5414 7.72924 85.1714 6.37924 85.6814 6.64924C86.7099 7.29609 87.8731 7.69828 89.0815 7.82484C90.2899 7.9514 91.5112 7.79896 92.6514 7.37924Z" fill="white"/>
<path d="M92.6514 7.37924L91.2214 11.3792C90.8014 11.5392 88.7314 11.8192 86.0514 8.37924C85.5414 7.72924 85.1714 6.37924 85.6814 6.64924C86.7099 7.29609 87.8731 7.69828 89.0815 7.82484C90.2899 7.9514 91.5112 7.79896 92.6514 7.37924Z" stroke="#373435" stroke-width="0.57" stroke-miterlimit="22.93" stroke-linecap="round"/>
<path fill-rule="evenodd" clip-rule="evenodd" d="M85.5214 7.24929C85.6614 7.81929 86.6314 2.78929 83.5214 0.619289C83.2014 0.399289 80.9414 3.12929 80.6014 3.42929C82.4114 4.02929 85.2214 6.16929 85.5214 7.24929Z" fill="white"/>
<path d="M85.5214 7.24929C85.6614 7.81929 86.6314 2.78929 83.5214 0.619289C83.2014 0.399289 80.9414 3.12929 80.6014 3.42929C82.4114 4.02929 85.2214 6.16929 85.5214 7.24929Z" stroke="#373435" stroke-width="0.57" stroke-miterlimit="22.93" stroke-linecap="round"/>
</g>
</svg>
