<svg width="100" height="102" viewBox="0 0 100 102" fill="none" xmlns="http://www.w3.org/2000/svg">
<circle cx="50" cy="52" r="49" fill="#E7FF53" stroke="#202020" stroke-width="2"/>
<mask id="mask0_1_1418" style="mask-type:alpha" maskUnits="userSpaceOnUse" x="0" y="0" width="100" height="100">
<circle cx="50" cy="50" r="49" fill="#E7FF53" stroke="#202020" stroke-width="2"/>
</mask>
<g mask="url(#mask0_1_1418)">
<path fill-rule="evenodd" clip-rule="evenodd" d="M53.1545 70.07C58.5945 75.59 62.5845 81.96 72.1545 88.59C75.2345 90.71 77.2346 92.38 77.8745 92.66C77.8745 92.66 77.7845 79.32 77.7845 78.89C77.7845 77.82 74.3745 76.59 73.1045 71.8C72.5945 69.8 74.3645 68.08 76.5145 66.19C76.7474 65.9767 77.023 65.8156 77.323 65.7173C77.6231 65.619 77.9407 65.5858 78.2545 65.62C78.5745 65.62 78.2545 62.75 78.4745 60.44C78.6345 58.74 79.0845 57.19 80.3245 57.23C82.0645 57.29 82.0645 58.8 82.1445 61.23C82.2045 63.23 82.2345 65.85 82.2745 65.91C82.5376 65.6875 82.8621 65.5502 83.205 65.5162C83.5479 65.4823 83.893 65.5534 84.1945 65.72C84.7504 66.0178 85.1983 66.4832 85.4745 67.05C85.9235 67.0883 86.3666 67.1789 86.7945 67.32C89.0445 68.32 89.1346 71.51 88.7346 79.4C88.2645 88.4 89.7345 98.74 88.2145 102.64C84.6845 111.72 74.2145 106.12 59.5545 94.99C54.4345 91.12 51.5545 79.47 53.0245 73.24C53.1145 72.96 53.1545 70.07 53.1545 70.07Z" fill="white"/>
<path d="M53.1545 70.07C58.5945 75.59 62.5845 81.96 72.1545 88.59C75.2345 90.71 77.2345 92.38 77.8745 92.66C77.8745 92.66 77.7845 79.32 77.7845 78.89C77.7845 77.82 74.3745 76.59 73.1045 71.8C72.5945 69.8 74.3645 68.08 76.5145 66.19C76.7474 65.9767 77.023 65.8156 77.323 65.7173C77.6231 65.619 77.9407 65.5858 78.2545 65.62C78.5745 65.62 78.2545 62.75 78.4745 60.44C78.6345 58.74 79.0845 57.19 80.3245 57.23C82.0645 57.29 82.0645 58.8 82.1445 61.23C82.2045 63.23 82.2345 65.85 82.2745 65.91C82.5376 65.6875 82.8621 65.5502 83.205 65.5162C83.5479 65.4823 83.893 65.5534 84.1945 65.72C84.7504 66.0178 85.1983 66.4832 85.4745 67.05C85.9235 67.0883 86.3666 67.1789 86.7945 67.32C89.0445 68.32 89.1346 71.51 88.7346 79.4C88.2646 88.4 89.7345 98.74 88.2145 102.64C84.6845 111.72 74.2145 106.12 59.5545 94.99C54.4345 91.12 51.5545 79.47 53.0245 73.24C53.1145 72.96 53.1545 70.07 53.1545 70.07Z" stroke="black" stroke-width="0.57" stroke-miterlimit="22.93" stroke-linecap="round"/>
<path fill-rule="evenodd" clip-rule="evenodd" d="M77.8845 91.96C77.8845 92.41 77.8845 96.14 77.8845 97.25C77.8334 95.6231 77.4309 94.0266 76.7045 92.57C76.7045 92.57 76.0045 91.33 76.1745 91.47C76.6634 91.8013 77.1823 92.0859 77.7245 92.32C77.7645 92.26 77.8845 91.97 77.8845 91.96Z" fill="black"/>
<path d="M77.8845 91.96C77.8845 92.41 77.8845 96.14 77.8845 97.25C77.8334 95.6231 77.4309 94.0266 76.7045 92.57C76.7045 92.57 76.0045 91.33 76.1745 91.47C76.6634 91.8013 77.1823 92.0859 77.7245 92.32C77.7645 92.26 77.8845 91.97 77.8845 91.96Z" stroke="black" stroke-width="0.57" stroke-linecap="round" stroke-linejoin="round"/>
<path fill-rule="evenodd" clip-rule="evenodd" d="M53.1445 70.69L56.5145 73.85C58.5145 83.13 61.5145 88.56 63.0745 97.66C61.0745 95.99 59.6345 94.66 57.6245 92.95L53.1445 70.69Z" fill="black"/>
<path d="M53.1445 70.69L56.5145 73.85C58.5145 83.13 61.5145 88.56 63.0745 97.66C61.0745 95.99 59.6345 94.66 57.6245 92.95L53.1445 70.69Z" stroke="black" stroke-width="0.57" stroke-miterlimit="22.93" stroke-linecap="round"/>
<path fill-rule="evenodd" clip-rule="evenodd" d="M52.8045 40.55C52.8045 49.1 52.8045 48.96 52.8045 57.55C52.8045 80.15 63.0845 84.92 63.7345 108.17C63.8545 112.43 60.0445 111.9 59.3945 117.61C54.5945 118.77 41.7545 114.08 36.9545 115.25C32.1645 114.08 19.5245 123.58 14.7345 122.41C6.32453 85.48 24.0745 78.29 24.0445 59.05V40.59C24.0145 21.62 52.7745 22.25 52.8045 40.55Z" fill="white"/>
<path d="M52.8045 40.55C52.8045 49.1 52.8045 48.96 52.8045 57.55C52.8045 80.15 63.0845 84.92 63.7345 108.17C63.8545 112.43 60.0445 111.9 59.3945 117.61C54.5945 118.77 41.7545 114.08 36.9545 115.25C32.1645 114.08 19.5245 123.58 14.7345 122.41C6.32453 85.48 24.0745 78.29 24.0445 59.05V40.59C24.0145 21.62 52.7745 22.25 52.8045 40.55Z" stroke="black" stroke-width="0.57" stroke-linecap="round" stroke-linejoin="round"/>
<path fill-rule="evenodd" clip-rule="evenodd" d="M52.8045 40.55C52.8045 49.1 52.8045 48.96 52.8045 57.55C52.7968 60.0628 52.937 62.5738 53.2245 65.07H23.4745C23.8698 63.0946 24.0675 61.0846 24.0645 59.07V40.61C24.0145 21.62 52.7745 22.25 52.8045 40.55Z" fill="white"/>
<path d="M52.8045 40.55C52.8045 49.1 52.8045 48.96 52.8045 57.55C52.7968 60.0628 52.937 62.5738 53.2245 65.07H23.4745C23.8698 63.0946 24.0675 61.0846 24.0645 59.07V40.61C24.0145 21.62 52.7745 22.25 52.8045 40.55Z" stroke="black" stroke-width="0.57" stroke-linecap="round" stroke-linejoin="round"/>
<path fill-rule="evenodd" clip-rule="evenodd" d="M24.1045 39.03C25.5345 22.16 51.2045 22.71 52.7245 39.03H24.1045Z" fill="white"/>
<path d="M24.1045 39.03C25.5345 22.16 51.2045 22.71 52.7245 39.03H24.1045Z" stroke="black" stroke-width="0.57" stroke-linecap="round" stroke-linejoin="round"/>
<path fill-rule="evenodd" clip-rule="evenodd" d="M51.5245 50.51C51.1942 50.51 50.8714 50.412 50.5967 50.2285C50.3221 50.045 50.108 49.7842 49.9816 49.4791C49.8552 49.1739 49.8222 48.8381 49.8866 48.5142C49.951 48.1902 50.1101 47.8927 50.3437 47.6591C50.5772 47.4256 50.8748 47.2665 51.1987 47.2021C51.5227 47.1376 51.8585 47.1707 52.1636 47.2971C52.4688 47.4235 52.7296 47.6375 52.9131 47.9122C53.0966 48.1868 53.1945 48.5097 53.1945 48.84C53.1945 49.2829 53.0186 49.7077 52.7054 50.0209C52.3922 50.334 51.9674 50.51 51.5245 50.51Z" fill="#FEFEFE"/>
<path d="M51.5245 50.51C51.1942 50.51 50.8714 50.412 50.5967 50.2285C50.3221 50.045 50.108 49.7842 49.9816 49.4791C49.8552 49.1739 49.8222 48.8381 49.8866 48.5142C49.951 48.1902 50.1101 47.8927 50.3437 47.6591C50.5772 47.4256 50.8748 47.2665 51.1987 47.2021C51.5227 47.1376 51.8585 47.1707 52.1636 47.2971C52.4688 47.4235 52.7296 47.6375 52.9131 47.9122C53.0966 48.1868 53.1945 48.5097 53.1945 48.84C53.1945 49.2829 53.0186 49.7077 52.7054 50.0209C52.3922 50.334 51.9674 50.51 51.5245 50.51Z" stroke="black" stroke-width="0.57" stroke-linecap="round" stroke-linejoin="round"/>
<path fill-rule="evenodd" clip-rule="evenodd" d="M37.5045 47.17C37.8344 47.172 38.1563 47.2716 38.4296 47.4563C38.7029 47.641 38.9154 47.9025 39.0403 48.2078C39.1651 48.5131 39.1968 48.8486 39.1312 49.1719C39.0656 49.4952 38.9058 49.7918 38.6719 50.0244C38.4379 50.2569 38.1403 50.415 37.8167 50.4786C37.493 50.5422 37.1577 50.5086 36.8531 50.3819C36.5486 50.2552 36.2883 50.0412 36.1053 49.7668C35.9222 49.4924 35.8245 49.1699 35.8245 48.84C35.8245 48.6199 35.868 48.4019 35.9526 48.1986C36.0371 47.9953 36.161 47.8108 36.3172 47.6556C36.4733 47.5004 36.6586 47.3776 36.8624 47.2942C37.0661 47.2109 37.2844 47.1687 37.5045 47.17Z" fill="#FEFEFE"/>
<path d="M37.5045 47.17C37.8344 47.172 38.1563 47.2716 38.4296 47.4563C38.7029 47.641 38.9154 47.9025 39.0403 48.2078C39.1651 48.5131 39.1968 48.8486 39.1312 49.1719C39.0656 49.4952 38.9058 49.7918 38.6719 50.0244C38.4379 50.2569 38.1403 50.415 37.8167 50.4786C37.493 50.5422 37.1577 50.5086 36.8531 50.3819C36.5486 50.2552 36.2883 50.0412 36.1053 49.7668C35.9222 49.4924 35.8245 49.1699 35.8245 48.84C35.8245 48.6199 35.868 48.4019 35.9526 48.1986C36.0371 47.9953 36.161 47.8108 36.3172 47.6556C36.4733 47.5004 36.6586 47.3776 36.8624 47.2942C37.0661 47.2109 37.2844 47.1687 37.5045 47.17Z" stroke="black" stroke-width="0.57" stroke-linecap="round" stroke-linejoin="round"/>
<path d="M50.6945 44.62C51.2723 44.2849 51.9389 44.1349 52.6045 44.19" stroke="black" stroke-width="0.57" stroke-miterlimit="22.93" stroke-linecap="round"/>
<path d="M39.3345 44.4C38.5893 43.8727 37.7067 43.5739 36.7945 43.54" stroke="black" stroke-width="0.57" stroke-miterlimit="22.93" stroke-linecap="round"/>
<path fill-rule="evenodd" clip-rule="evenodd" d="M24.3145 62.43H52.8145C53.3449 62.43 53.8536 62.6407 54.2287 63.0158C54.6038 63.3909 54.8145 63.8996 54.8145 64.43C54.8145 64.9604 54.6038 65.4691 54.2287 65.8442C53.8536 66.2193 53.3449 66.43 52.8145 66.43H24.3145C23.7841 66.43 23.2754 66.2193 22.9003 65.8442C22.5252 65.4691 22.3145 64.9604 22.3145 64.43C22.3145 63.8996 22.5252 63.3909 22.9003 63.0158C23.2754 62.6407 23.7841 62.43 24.3145 62.43Z" fill="white"/>
<path d="M24.3145 62.43H52.8145C53.3449 62.43 53.8536 62.6407 54.2287 63.0158C54.6038 63.3909 54.8145 63.8996 54.8145 64.43C54.8145 64.9604 54.6038 65.4691 54.2287 65.8442C53.8536 66.2193 53.3449 66.43 52.8145 66.43H24.3145C23.7841 66.43 23.2754 66.2193 22.9003 65.8442C22.5252 65.4691 22.3145 64.9604 22.3145 64.43C22.3145 63.8996 22.5252 63.3909 22.9003 63.0158C23.2754 62.6407 23.7841 62.43 24.3145 62.43Z" stroke="black" stroke-width="0.57" stroke-miterlimit="22.93" stroke-linecap="round"/>
<path d="M8.83453 38.87H52.6845" stroke="black" stroke-width="0.57" stroke-miterlimit="22.93" stroke-linecap="round"/>
<path fill-rule="evenodd" clip-rule="evenodd" d="M53.2045 66.39L53.6445 68.15C48.0946 67.2661 42.4989 66.6985 36.8845 66.45L53.2045 66.39Z" fill="black"/>
<path d="M53.2045 66.39L53.6445 68.15C48.0946 67.2661 42.4989 66.6985 36.8845 66.45L53.2045 66.39Z" stroke="black" stroke-width="0.57" stroke-miterlimit="22.93" stroke-linecap="round"/>
<path fill-rule="evenodd" clip-rule="evenodd" d="M52.1545 38.94L52.5845 40.71C47.0264 39.8117 41.4199 39.244 35.7945 39.01L52.1545 38.94Z" fill="black"/>
<path d="M52.1545 38.94L52.5845 40.71C47.0264 39.8117 41.4199 39.244 35.7945 39.01L52.1545 38.94Z" stroke="black" stroke-width="0.57" stroke-miterlimit="22.93" stroke-linecap="round"/>
<path fill-rule="evenodd" clip-rule="evenodd" d="M52.5245 47.98C52.5499 47.9786 52.5752 47.9825 52.5989 47.9915C52.6226 48.0006 52.6442 48.0145 52.6621 48.0325C52.6801 48.0504 52.694 48.0719 52.703 48.0956C52.7121 48.1193 52.716 48.1447 52.7145 48.17C52.7145 48.2204 52.6945 48.2687 52.6589 48.3044C52.6233 48.34 52.5749 48.36 52.5245 48.36C52.4749 48.3576 52.428 48.3368 52.3929 48.3017C52.3578 48.2666 52.337 48.2196 52.3345 48.17C52.3345 48.1196 52.3546 48.0713 52.3902 48.0357C52.4258 48 52.4741 47.98 52.5245 47.98Z" fill="black"/>
<path d="M52.5245 47.98C52.5499 47.9786 52.5752 47.9825 52.5989 47.9915C52.6226 48.0006 52.6442 48.0145 52.6621 48.0325C52.6801 48.0504 52.694 48.0719 52.703 48.0956C52.7121 48.1193 52.716 48.1447 52.7145 48.17C52.7145 48.2204 52.6945 48.2687 52.6589 48.3044C52.6233 48.34 52.5749 48.36 52.5245 48.36C52.4749 48.3576 52.428 48.3368 52.3929 48.3017C52.3578 48.2666 52.337 48.2196 52.3345 48.17C52.3345 48.1196 52.3546 48.0713 52.3902 48.0357C52.4258 48 52.4741 47.98 52.5245 47.98Z" stroke="black" stroke-width="0.57" stroke-linecap="round" stroke-linejoin="round"/>
<path fill-rule="evenodd" clip-rule="evenodd" d="M36.7045 49.78C36.6792 49.7815 36.6538 49.7776 36.6301 49.7685C36.6064 49.7595 36.5849 49.7455 36.5669 49.7276C36.549 49.7097 36.5351 49.6881 36.526 49.6644C36.517 49.6407 36.5131 49.6154 36.5145 49.59C36.5145 49.5396 36.5345 49.4913 36.5702 49.4557C36.6058 49.42 36.6541 49.4 36.7045 49.4C36.7308 49.4025 36.7564 49.4102 36.7797 49.4227C36.803 49.4351 36.8237 49.452 36.8404 49.4725C36.8571 49.4929 36.8697 49.5165 36.8772 49.5418C36.8848 49.5672 36.8873 49.5937 36.8845 49.62C36.8776 49.6634 36.8559 49.703 36.8231 49.7322C36.7903 49.7614 36.7484 49.7783 36.7045 49.78Z" fill="black"/>
<path d="M36.7045 49.78C36.6792 49.7815 36.6538 49.7776 36.6301 49.7685C36.6064 49.7595 36.5849 49.7455 36.5669 49.7276C36.549 49.7097 36.5351 49.6881 36.526 49.6644C36.517 49.6407 36.5131 49.6154 36.5145 49.59C36.5145 49.5396 36.5345 49.4913 36.5702 49.4557C36.6058 49.42 36.6541 49.4 36.7045 49.4C36.7308 49.4025 36.7564 49.4102 36.7797 49.4227C36.803 49.4351 36.8237 49.452 36.8404 49.4725C36.8571 49.4929 36.8697 49.5165 36.8772 49.5418C36.8848 49.5672 36.8873 49.5937 36.8845 49.62C36.8776 49.6634 36.8559 49.703 36.8231 49.7322C36.7903 49.7614 36.7484 49.7783 36.7045 49.78Z" stroke="black" stroke-width="0.57" stroke-linecap="round" stroke-linejoin="round"/>
<path d="M43.3045 55.76C43.5486 56.1777 43.8965 56.5254 44.3143 56.7692C44.7322 57.0131 45.206 57.145 45.6898 57.152C46.1735 57.159 46.6509 57.041 47.0757 56.8094C47.5005 56.5778 47.8583 56.2405 48.1145 55.83" stroke="#373435" stroke-width="0.57" stroke-miterlimit="22.93" stroke-linecap="round"/>
<path d="M81.8145 66.48C81.0945 67.58 80.0245 68.48 80.5245 70.91C80.9445 72.91 81.6845 73.91 82.5245 73.97C82.8998 73.9987 83.2725 73.8882 83.5714 73.6594C83.8702 73.4306 84.0743 73.0997 84.1445 72.73C84.5145 71.49 83.7945 69.55 84.3745 68.87C84.3745 68.87 84.5145 68.65 84.5645 68.57" stroke="black" stroke-width="0.57" stroke-linecap="round" stroke-linejoin="round"/>
<path d="M84.2745 71.87C84.1948 72.3326 84.2804 72.8084 84.5162 73.2143C84.7521 73.6202 85.1231 73.9301 85.5645 74.09C86.1645 74.3 87.3145 74.27 87.4245 73.45C87.5345 72.63 87.4845 71.03 87.5345 70.35" stroke="black" stroke-width="0.57" stroke-linecap="round" stroke-linejoin="round"/>
<path d="M80.8245 72.05C80.0048 71.3213 78.9759 70.8698 77.8845 70.76C78.7384 69.9842 79.3614 68.9875 79.6845 67.88C79.8645 66.77 79.3945 65.64 78.0845 65.64H78.0045" stroke="black" stroke-width="0.57" stroke-linecap="round" stroke-linejoin="round"/>
<path d="M80.1345 57.08C88.717 57.08 95.6745 50.1225 95.6745 41.54C95.6745 32.9575 88.717 26 80.1345 26C71.552 26 64.5945 32.9575 64.5945 41.54C64.5945 50.1225 71.552 57.08 80.1345 57.08Z" fill="black"/>
<path d="M80.1345 57.08C88.717 57.08 95.6745 50.1225 95.6745 41.54C95.6745 32.9575 88.717 26 80.1345 26C71.552 26 64.5945 32.9575 64.5945 41.54C64.5945 50.1225 71.552 57.08 80.1345 57.08Z" stroke="black" stroke-width="0.57" stroke-linecap="round" stroke-linejoin="round"/>
<path d="M97.2345 37.31H104.355" stroke="black" stroke-width="0.57" stroke-linecap="round" stroke-linejoin="round"/>
<path d="M80.2745 55.41V27.67" stroke="#FEFEFE" stroke-width="0.57" stroke-linecap="round" stroke-linejoin="round"/>
<path d="M70.1645 50.52C75.9745 46.18 75.0445 35.52 70.7845 31.43" stroke="#FEFEFE" stroke-width="0.57" stroke-linecap="round" stroke-linejoin="round"/>
<path d="M90.4045 50.52C84.5945 46.18 85.5245 35.52 89.7845 31.43" stroke="#FEFEFE" stroke-width="0.57" stroke-linecap="round" stroke-linejoin="round"/>
<path d="M65.9845 40.95H94.2345" stroke="#FEFEFE" stroke-width="0.57" stroke-linecap="round" stroke-linejoin="round"/>
<path fill-rule="evenodd" clip-rule="evenodd" d="M18.4845 75.08C11.8845 85.85 -5.24547 113.42 -6.92547 114.81C-7.42547 115.23 -12.5855 115.1 -18.2055 115.94C-20.3455 116.26 -20.2955 117.94 -20.7255 118C-22.5755 118.24 -23.5155 119.21 -23.3655 120.46C-23.2906 120.768 -23.1437 121.053 -22.9368 121.293C-22.7299 121.533 -22.4689 121.721 -22.1755 121.84C-22.2236 122.125 -22.2134 122.417 -22.1455 122.698C-22.0776 122.979 -21.9535 123.244 -21.7806 123.475C-21.6077 123.707 -21.3896 123.902 -21.1395 124.047C-20.8894 124.192 -20.6125 124.285 -20.3255 124.32C-17.8655 124.69 -16.5655 123.9 -15.8955 124.13C-15.7055 126.35 -13.8955 126.52 -11.3855 126.5C-9.65547 126.5 -6.90547 126.35 -5.62547 126.4C1.70453 126.71 3.18453 120.03 13.1245 106C14.5945 104.62 28.0645 83.62 29.6445 80.62C33.7645 72.85 23.7045 66.62 18.4845 75.11" fill="white"/>
<path d="M23.5845 71.14C22.5077 71.4072 21.4982 71.8955 20.6202 72.5737C19.7422 73.252 19.0149 74.1055 18.4845 75.08C11.8845 85.85 -5.24547 113.42 -6.92547 114.81C-7.42547 115.23 -12.5855 115.1 -18.2055 115.94C-20.3455 116.26 -20.2955 117.94 -20.7255 118C-22.5755 118.24 -23.5155 119.21 -23.3655 120.46C-23.2906 120.768 -23.1437 121.053 -22.9368 121.293C-22.7299 121.533 -22.4689 121.721 -22.1755 121.84C-22.2236 122.125 -22.2134 122.417 -22.1455 122.698C-22.0776 122.979 -21.9535 123.244 -21.7806 123.475C-21.6077 123.707 -21.3896 123.902 -21.1395 124.047C-20.8894 124.192 -20.6125 124.285 -20.3255 124.32C-17.8655 124.69 -16.5655 123.9 -15.8955 124.13C-15.7055 126.35 -13.8955 126.52 -11.3855 126.5C-9.65547 126.5 -6.90547 126.35 -5.62547 126.4C1.70453 126.71 3.18453 120.03 13.1245 106C14.5945 104.62 28.0645 83.62 29.6445 80.62" stroke="#373435" stroke-width="0.57" stroke-miterlimit="22.93" stroke-linecap="round"/>
</g>
</svg>
