<svg width="100" height="102" viewBox="0 0 100 102" fill="none" xmlns="http://www.w3.org/2000/svg">
<circle cx="50" cy="52" r="49" fill="#E7FF53" stroke="#202020" stroke-width="2"/>
<mask id="mask0_1_900" style="mask-type:alpha" maskUnits="userSpaceOnUse" x="0" y="0" width="100" height="100">
<circle cx="50" cy="50" r="49" fill="#E7FF53" stroke="#202020" stroke-width="2"/>
</mask>
<g mask="url(#mask0_1_900)">
<path fill-rule="evenodd" clip-rule="evenodd" d="M59.3355 56.4582C59.4563 56.8039 71.697 65.5238 74.6264 68.9392C74.6264 68.9392 78.9803 58.6508 79.1252 58.3219C80.2438 55.716 77.1776 50.3694 82.9881 47.519C85.5715 46.2456 87.1811 48.5563 85.2818 50.3947C84.9929 50.7161 84.6378 50.9641 84.2436 51.12L86.8109 51.0188C89.2252 51.0862 97.0799 52.3175 96.9994 54.392C96.9431 55.8763 96.1303 55.7498 95.9532 55.8594C96.089 55.941 96.2054 56.0538 96.2937 56.1893C96.382 56.3247 96.4399 56.4793 96.4631 56.6415C96.4863 56.8038 96.4742 56.9694 96.4277 57.126C96.3813 57.2826 96.3016 57.4262 96.1946 57.546C95.3496 58.6339 94.0861 57.9846 94.5851 58.305C95.6393 58.9544 94.7219 61.0374 93.2733 60.6916C89.3298 59.7302 87.7283 60.953 86.9718 62.4879C83.6481 69.2344 81.3383 77.6676 78.924 80.1975C73.3307 85.9489 67.5363 78.0302 60.4139 64.3769C57.9433 59.629 55.0782 63.1541 58.2169 58.87C58.3457 58.6676 59.3355 56.4582 59.3355 56.4582Z" fill="white"/>
<path d="M59.3355 56.4582C59.4563 56.8039 71.697 65.5238 74.6264 68.9392C74.6264 68.9392 78.9803 58.6508 79.1252 58.3219C80.2438 55.716 77.1776 50.3694 82.9881 47.519C85.5715 46.2456 87.1811 48.5563 85.2818 50.3947C84.9929 50.7161 84.6378 50.9641 84.2436 51.12L86.8109 51.0188C89.2252 51.0862 97.0799 52.3175 96.9994 54.392C96.9431 55.8763 96.1303 55.7498 95.9532 55.8594C96.089 55.941 96.2054 56.0538 96.2937 56.1893C96.382 56.3247 96.4399 56.4793 96.4631 56.6415C96.4863 56.8038 96.4742 56.9694 96.4277 57.126C96.3813 57.2826 96.3016 57.4262 96.1946 57.546C95.3496 58.6339 94.0861 57.9846 94.5851 58.305C95.6393 58.9544 94.7219 61.0374 93.2733 60.6916C89.3298 59.7302 87.7283 60.953 86.9718 62.4879C83.6481 69.2344 81.3383 77.6676 78.924 80.1975C73.3307 85.9489 67.5363 78.0302 60.4139 64.3769C57.9433 59.629 55.0782 63.1541 58.2169 58.87C58.3457 58.6676 59.3355 56.4582 59.3355 56.4582Z" stroke="black" stroke-width="0.57" stroke-miterlimit="22.93" stroke-linecap="round"/>
<path fill-rule="evenodd" clip-rule="evenodd" d="M62.7719 58.9122L65.484 61.5771C67.0936 69.4031 68.2605 71.3427 69.508 79.0085C67.8984 77.6086 68.1318 81.4119 66.5222 80.012L62.7719 58.9122Z" fill="black"/>
<path d="M62.7719 58.9122L65.484 61.5771C67.0936 69.4031 68.2605 71.3427 69.508 79.0085C67.8984 77.6086 68.1318 81.4119 66.5222 80.012L62.7719 58.9122Z" stroke="black" stroke-width="0.57" stroke-miterlimit="22.93" stroke-linecap="round"/>
<path fill-rule="evenodd" clip-rule="evenodd" d="M38.733 58.0267C35.0954 60.7675 27.5868 66.384 25.3736 68.914C25.3736 68.914 21.0197 58.6255 20.8749 58.2966C19.7562 55.7161 22.8224 50.361 17.0039 47.519C14.4285 46.2456 12.819 48.5563 14.7183 50.361C15.0072 50.6824 15.3622 50.9304 15.7564 51.0863L13.1892 50.9851C10.7748 51.0525 2.92014 52.2838 3.00061 54.3583C3.05695 55.8426 3.86978 55.7161 4.05488 55.8257C3.91852 55.9066 3.80141 56.0188 3.71232 56.1539C3.62324 56.289 3.56449 56.4435 3.54049 56.6057C3.51648 56.768 3.52785 56.9338 3.57373 57.0909C3.61961 57.2479 3.69881 57.392 3.8054 57.5123C4.65042 58.6002 5.91393 57.9509 5.41497 58.2713C4.3607 58.9207 5.27816 61.0037 6.72677 60.6579C10.6702 59.6965 12.2717 60.9193 13.0282 62.4542C16.352 69.2007 18.6617 77.6339 21.0761 80.1638C24.4722 83.6551 27.5143 81.4288 31.7234 77.5495C30.4955 82.4319 30.0013 87.485 30.2586 92.5268H71.4475C70.86 73.1305 62.6592 69.1079 62.6592 50.1333C62.6592 42.923 62.6592 43.041 62.6592 35.7969C62.6592 20.3642 39.4895 19.7739 39.5137 35.7969V51.3646C39.5258 53.6111 39.2634 55.85 38.733 58.0267Z" fill="white"/>
<path d="M38.733 58.0267C35.0954 60.7675 27.5868 66.384 25.3736 68.914C25.3736 68.914 21.0197 58.6255 20.8749 58.2966C19.7562 55.7161 22.8224 50.361 17.0039 47.519C14.4285 46.2456 12.819 48.5563 14.7183 50.361C15.0072 50.6824 15.3622 50.9304 15.7564 51.0863L13.1892 50.9851C10.7748 51.0525 2.92014 52.2838 3.00061 54.3583C3.05695 55.8426 3.86978 55.7161 4.05488 55.8257C3.91852 55.9066 3.80141 56.0188 3.71232 56.1539C3.62324 56.289 3.56449 56.4435 3.54049 56.6057C3.51648 56.768 3.52785 56.9338 3.57373 57.0909C3.61961 57.2479 3.69881 57.392 3.8054 57.5123C4.65042 58.6002 5.91393 57.9509 5.41497 58.2713C4.3607 58.9207 5.27816 61.0037 6.72677 60.6579C10.6702 59.6965 12.2717 60.9193 13.0282 62.4542C16.352 69.2007 18.6617 77.6339 21.0761 80.1638C24.4722 83.6551 27.5143 81.4288 31.7234 77.5495C30.4955 82.4319 30.0013 87.485 30.2586 92.5268H71.4475C70.86 73.1305 62.6592 69.1079 62.6592 50.1333C62.6592 42.923 62.6592 43.041 62.6592 35.7969C62.6592 20.3642 39.4895 19.7739 39.5137 35.7969V51.3646C39.5258 53.6111 39.2634 55.85 38.733 58.0267Z" stroke="black" stroke-width="0.57" stroke-miterlimit="22.93" stroke-linecap="round"/>
<path fill-rule="evenodd" clip-rule="evenodd" d="M74.6183 68.914C74.4735 69.2598 73.226 72.1186 72.8639 72.9704C73.3574 71.7001 73.5904 70.3353 73.548 68.9646C73.548 68.9646 73.4433 67.7755 73.548 67.9358C73.7964 68.3612 74.0849 68.7596 74.4091 69.1248C74.4171 69.0489 74.5861 68.8634 74.6183 68.914Z" fill="black"/>
<path d="M74.6183 68.914C74.4735 69.2598 73.226 72.1186 72.8639 72.9704C73.3574 71.7001 73.5904 70.3353 73.548 68.9646C73.548 68.9646 73.4433 67.7755 73.548 67.9358C73.7964 68.3612 74.0849 68.7596 74.4091 69.1248C74.4171 69.0489 74.5861 68.8634 74.6183 68.914Z" stroke="black" stroke-width="0.57" stroke-linecap="round" stroke-linejoin="round"/>
<path fill-rule="evenodd" clip-rule="evenodd" d="M25.3817 68.914C25.5265 69.2598 26.7739 72.1186 27.1361 72.9704C26.6426 71.7001 26.4095 70.3353 26.452 68.9646C26.452 68.9646 26.5566 67.7755 26.452 67.9358C26.2036 68.3612 25.9151 68.7596 25.5909 69.1248C25.5909 69.1248 25.4138 68.8634 25.3817 68.914Z" fill="black"/>
<path d="M25.3817 68.914C25.5265 69.2598 26.7739 72.1186 27.1361 72.9704C26.6426 71.7001 26.4095 70.3353 26.452 68.9646C26.452 68.9646 26.5566 67.7755 26.452 67.9358C26.2036 68.3612 25.9151 68.7596 25.5909 69.1248C25.5909 69.1248 25.4138 68.8634 25.3817 68.914Z" stroke="black" stroke-width="0.57" stroke-linecap="round" stroke-linejoin="round"/>
<path fill-rule="evenodd" clip-rule="evenodd" d="M62.6431 35.814C62.6431 43.0244 62.6431 42.9063 62.6431 50.1504C62.6391 52.2696 62.7546 54.3872 62.9892 56.4922H39.0469C39.3611 54.8256 39.5201 53.131 39.5217 51.4323V35.8646C39.4734 19.8332 62.619 20.3813 62.6431 35.814Z" fill="white"/>
<path d="M62.6431 35.814C62.6431 43.0244 62.6431 42.9063 62.6431 50.1504C62.6391 52.2696 62.7546 54.3872 62.9892 56.4922H39.0469C39.3611 54.8256 39.5201 53.131 39.5217 51.4323V35.8646C39.4734 19.8332 62.619 20.3813 62.6431 35.814Z" stroke="black" stroke-width="0.57" stroke-linecap="round" stroke-linejoin="round"/>
<path fill-rule="evenodd" clip-rule="evenodd" d="M39.5377 34.5324C40.6886 20.3056 61.3554 20.7694 62.5787 34.5324H39.5377Z" fill="white"/>
<path d="M39.5377 34.5324C40.6886 20.3056 61.3554 20.7694 62.5787 34.5324H39.5377Z" stroke="black" stroke-width="0.57" stroke-linecap="round" stroke-linejoin="round"/>
<path fill-rule="evenodd" clip-rule="evenodd" d="M30.331 92.2907C30.3191 92.4648 30.3191 92.6395 30.331 92.8136C30.1862 100.968 32.6971 105.463 32.673 112.91C32.673 129.059 32.2142 170.576 32.2545 171.419H68.2686C68.2686 171.419 68.5905 129.161 68.3651 113.323C68.2525 104.89 70.5863 102.478 71.4555 92.9063C71.4676 92.7013 71.4676 92.4957 71.4555 92.2907H30.331Z" fill="white"/>
<path d="M30.331 92.2907C30.3191 92.4648 30.3191 92.6395 30.331 92.8136C30.1862 100.968 32.6971 105.463 32.673 112.91C32.673 129.059 32.2142 170.576 32.2545 171.419H68.2686C68.2686 171.419 68.5905 129.161 68.3651 113.323C68.2525 104.89 70.5863 102.478 71.4555 92.9063C71.4676 92.7013 71.4676 92.4957 71.4555 92.2907H30.331Z" stroke="black" stroke-width="0.57" stroke-linecap="round" stroke-linejoin="round"/>
<path fill-rule="evenodd" clip-rule="evenodd" d="M61.613 44.2132C61.3486 44.2131 61.09 44.1313 60.8698 43.978C60.6495 43.8247 60.4773 43.6067 60.3747 43.3513C60.2721 43.096 60.2437 42.8145 60.293 42.5423C60.3423 42.2701 60.4671 42.0191 60.6519 41.8209C60.8366 41.6227 61.0731 41.4859 61.3316 41.4278C61.5902 41.3698 61.8594 41.3929 62.1054 41.4943C62.3515 41.5958 62.5635 41.771 62.715 41.9981C62.8665 42.2252 62.9507 42.4941 62.957 42.7712C62.9613 42.9589 62.9297 43.1457 62.8641 43.3205C62.7985 43.4952 62.7002 43.6545 62.5749 43.7889C62.4497 43.9232 62.3001 44.03 62.1349 44.1029C61.9697 44.1758 61.7922 44.2133 61.613 44.2132Z" fill="#FEFEFE"/>
<path d="M61.613 44.2132C61.3486 44.2131 61.09 44.1313 60.8698 43.978C60.6495 43.8247 60.4773 43.6067 60.3747 43.3513C60.2721 43.096 60.2437 42.8145 60.293 42.5423C60.3423 42.2701 60.4671 42.0191 60.6519 41.8209C60.8366 41.6227 61.0731 41.4859 61.3316 41.4278C61.5902 41.3698 61.8594 41.3929 62.1054 41.4943C62.3515 41.5958 62.5635 41.771 62.715 41.9981C62.8665 42.2252 62.9507 42.4941 62.957 42.7712C62.9613 42.9589 62.9297 43.1457 62.8641 43.3205C62.7985 43.4952 62.7002 43.6545 62.5749 43.7889C62.4497 43.9232 62.3001 44.03 62.1349 44.1029C61.9697 44.1758 61.7922 44.2133 61.613 44.2132Z" stroke="black" stroke-width="0.57" stroke-linecap="round" stroke-linejoin="round"/>
<path fill-rule="evenodd" clip-rule="evenodd" d="M50.3299 41.3965C50.5971 41.3966 50.8582 41.4801 51.0798 41.6364C51.3015 41.7927 51.4737 42.0147 51.5744 42.274C51.6751 42.5333 51.6998 42.8182 51.6452 43.0923C51.5907 43.3663 51.4595 43.6172 51.2683 43.8127C51.0771 44.0083 50.8346 44.1397 50.5718 44.1901C50.309 44.2406 50.0378 44.2079 49.7929 44.0961C49.5479 43.9843 49.3403 43.7986 49.1966 43.5626C49.0529 43.3266 48.9795 43.051 48.9859 42.7711C48.9943 42.4035 49.1396 42.0539 49.3908 41.797C49.6419 41.5402 49.979 41.3964 50.3299 41.3965Z" fill="#FEFEFE"/>
<path d="M50.3299 41.3965C50.5971 41.3966 50.8582 41.4801 51.0798 41.6364C51.3015 41.7927 51.4737 42.0147 51.5744 42.274C51.6751 42.5333 51.6998 42.8182 51.6452 43.0923C51.5907 43.3663 51.4595 43.6172 51.2683 43.8127C51.0771 44.0083 50.8346 44.1397 50.5718 44.1901C50.309 44.2406 50.0378 44.2079 49.7929 44.0961C49.5479 43.9843 49.3403 43.7986 49.1966 43.5626C49.0529 43.3266 48.9795 43.051 48.9859 42.7711C48.9943 42.4035 49.1396 42.0539 49.3908 41.797C49.6419 41.5402 49.979 41.3964 50.3299 41.3965Z" stroke="black" stroke-width="0.57" stroke-linecap="round" stroke-linejoin="round"/>
<path d="M61.1141 37.3401C61.6443 37.2588 62.1856 37.347 62.6673 37.5931" stroke="black" stroke-width="0.57" stroke-miterlimit="22.93" stroke-linecap="round"/>
<path d="M50.8933 37.3401C50.3631 37.2588 49.8218 37.347 49.3401 37.5931" stroke="black" stroke-width="0.57" stroke-miterlimit="22.93" stroke-linecap="round"/>
<path fill-rule="evenodd" clip-rule="evenodd" d="M39.7148 54.274H62.6511C63.078 54.274 63.4874 54.4517 63.7893 54.768C64.0911 55.0844 64.2607 55.5134 64.2607 55.9607C64.2607 56.408 64.0911 56.837 63.7893 57.1533C63.4874 57.4696 63.078 57.6473 62.6511 57.6473H39.7148C39.2879 57.6473 38.8785 57.4696 38.5767 57.1533C38.2748 56.837 38.1052 56.408 38.1052 55.9607C38.1052 55.5134 38.2748 55.0844 38.5767 54.768C38.8785 54.4517 39.2879 54.274 39.7148 54.274Z" fill="white"/>
<path d="M39.7148 54.274H62.6511C63.078 54.274 63.4874 54.4517 63.7893 54.768C64.0911 55.0844 64.2607 55.5134 64.2607 55.9607C64.2607 56.408 64.0911 56.837 63.7893 57.1533C63.4874 57.4696 63.078 57.6473 62.6511 57.6473H39.7148C39.2879 57.6473 38.8785 57.4696 38.5767 57.1533C38.2748 56.837 38.1052 56.408 38.1052 55.9607C38.1052 55.5134 38.2748 55.0844 38.5767 54.768C38.8785 54.4517 39.2879 54.274 39.7148 54.274Z" stroke="black" stroke-width="0.57" stroke-miterlimit="22.93" stroke-linecap="round"/>
<path d="M39.4976 34.4139H74.7793" stroke="black" stroke-width="0.57" stroke-miterlimit="22.93" stroke-linecap="round"/>
<path fill-rule="evenodd" clip-rule="evenodd" d="M62.9731 57.6052L63.3192 59.0978C58.846 58.3395 54.3341 57.858 49.8069 57.6558L62.9731 57.6052Z" fill="black"/>
<path d="M62.9731 57.6052L63.3192 59.0978C58.846 58.3395 54.3341 57.858 49.8069 57.6558L62.9731 57.6052Z" stroke="black" stroke-width="0.57" stroke-miterlimit="22.93" stroke-linecap="round"/>
<path fill-rule="evenodd" clip-rule="evenodd" d="M62.281 34.338L62.6351 35.8306C58.1619 35.0723 53.65 34.5908 49.1228 34.3886L62.281 34.338Z" fill="black"/>
<path d="M62.281 34.338L62.6351 35.8306C58.1619 35.0723 53.65 34.5908 49.1228 34.3886L62.281 34.338Z" stroke="black" stroke-width="0.57" stroke-miterlimit="22.93" stroke-linecap="round"/>
<path fill-rule="evenodd" clip-rule="evenodd" d="M61.4923 42.6615C61.5328 42.6615 61.5717 42.6784 61.6004 42.7084C61.6291 42.7385 61.6452 42.7792 61.6452 42.8217C61.6463 42.8431 61.6432 42.8645 61.6359 42.8845C61.6286 42.9045 61.6174 42.9226 61.603 42.9377C61.5885 42.9529 61.5712 42.9646 61.5521 42.9723C61.5331 42.9799 61.5127 42.9832 61.4923 42.982C61.4517 42.982 61.4128 42.9651 61.3841 42.935C61.3555 42.905 61.3394 42.8642 61.3394 42.8217C61.3413 42.7799 61.3581 42.7403 61.3863 42.7107C61.4146 42.6811 61.4523 42.6635 61.4923 42.6615Z" fill="black"/>
<path d="M61.4923 42.6615C61.5328 42.6615 61.5717 42.6784 61.6004 42.7084C61.6291 42.7385 61.6452 42.7792 61.6452 42.8217C61.6463 42.8431 61.6432 42.8645 61.6359 42.8845C61.6286 42.9045 61.6174 42.9226 61.603 42.9377C61.5885 42.9529 61.5712 42.9646 61.5521 42.9723C61.5331 42.9799 61.5127 42.9832 61.4923 42.982C61.4517 42.982 61.4128 42.9651 61.3841 42.935C61.3555 42.905 61.3394 42.8642 61.3394 42.8217C61.3413 42.7799 61.3581 42.7403 61.3863 42.7107C61.4146 42.6811 61.4523 42.6635 61.4923 42.6615Z" stroke="black" stroke-width="0.57" stroke-linecap="round" stroke-linejoin="round"/>
<path fill-rule="evenodd" clip-rule="evenodd" d="M50.3541 42.9988C50.3142 42.9968 50.2764 42.9793 50.2481 42.9496C50.2199 42.92 50.2031 42.8805 50.2012 42.8386C50.2012 42.7961 50.2173 42.7554 50.246 42.7253C50.2746 42.6953 50.3135 42.6784 50.3541 42.6784C50.3748 42.6772 50.3956 42.6805 50.4151 42.6881C50.4346 42.6956 50.4524 42.7072 50.4674 42.7222C50.4825 42.7372 50.4945 42.7553 50.5027 42.7753C50.5109 42.7953 50.5151 42.8168 50.515 42.8386C50.513 42.8819 50.4951 42.9226 50.4651 42.9525C50.4352 42.9823 50.3954 42.9989 50.3541 42.9988Z" fill="black"/>
<path d="M50.3541 42.9988C50.3142 42.9968 50.2764 42.9793 50.2481 42.9496C50.2199 42.92 50.2031 42.8805 50.2012 42.8386C50.2012 42.7961 50.2173 42.7554 50.246 42.7253C50.2746 42.6953 50.3135 42.6784 50.3541 42.6784C50.3748 42.6772 50.3956 42.6805 50.4151 42.6881C50.4346 42.6956 50.4524 42.7072 50.4674 42.7222C50.4825 42.7372 50.4945 42.7553 50.5027 42.7753C50.5109 42.7953 50.5151 42.8168 50.515 42.8386C50.513 42.8819 50.4951 42.9226 50.4651 42.9525C50.4352 42.9823 50.3954 42.9989 50.3541 42.9988Z" stroke="black" stroke-width="0.57" stroke-linecap="round" stroke-linejoin="round"/>
<path d="M3.89392 55.8426C5.47491 55.1045 7.17143 54.6758 8.89968 54.5776" stroke="black" stroke-width="0.57" stroke-miterlimit="22.93" stroke-linecap="round"/>
<path d="M94.738 58.2797C94.2792 58.0942 93.8205 57.5208 90.9474 57.5208" stroke="black" stroke-width="0.57" stroke-miterlimit="22.93" stroke-linecap="round"/>
<path d="M5.26208 58.2797C5.72081 58.0942 6.17954 57.5208 9.05262 57.5208" stroke="black" stroke-width="0.57" stroke-miterlimit="22.93" stroke-linecap="round"/>
<path d="M54.9172 47.6455H58.3376" stroke="#373435" stroke-width="0.57" stroke-miterlimit="22.93" stroke-linecap="round"/>
<path d="M84.4126 51.0356C84.3402 52.1994 84.7747 51.8284 85.6198 53.1271C86.0164 53.7529 86.29 54.4553 86.4245 55.1932" stroke="#373435" stroke-width="0.57" stroke-miterlimit="22.93" stroke-linecap="round"/>
<path d="M15.5875 51.0356C15.6599 52.1994 15.2253 51.8284 14.3803 53.1271C13.9836 53.7529 13.71 54.4553 13.5755 55.1932" stroke="#373435" stroke-width="0.57" stroke-miterlimit="22.93" stroke-linecap="round"/>
<path d="M31.0715 78.0724L37.0752 72.2451" stroke="black" stroke-width="0.57" stroke-miterlimit="22.93" stroke-linecap="round"/>
<path fill-rule="evenodd" clip-rule="evenodd" d="M31.7234 77.5411L36.7694 72.5402L31.0312 80.5855L31.7234 77.5411Z" fill="black"/>
<path d="M31.7234 77.5411L36.7694 72.5402L31.0312 80.5855L31.7234 77.5411Z" stroke="black" stroke-width="0.57" stroke-linecap="round" stroke-linejoin="round"/>
</g>
</svg>
