<svg width="100" height="102" viewBox="0 0 100 102" fill="none" xmlns="http://www.w3.org/2000/svg">
<circle cx="50" cy="52" r="49" fill="#E7FF53" stroke="#202020" stroke-width="2"/>
<mask id="mask0_1_1093" style="mask-type:alpha" maskUnits="userSpaceOnUse" x="0" y="0" width="100" height="100">
<circle cx="50" cy="50" r="49" fill="#E7FF53" stroke="#202020" stroke-width="2"/>
</mask>
<g mask="url(#mask0_1_1093)">
<path fill-rule="evenodd" clip-rule="evenodd" d="M67.16 47.24H36.96C30.96 39.33 37.78 33.38 38.54 26.94C38.73 25.35 39.66 32.14 39.87 32.94C40.25 34.45 41.54 34.39 42.39 33.66C44.32 31.97 43.56 26.74 42.74 24.66C41.06 20.3 44.8 15.66 44.82 16.97C44.82 18.54 44.25 20.43 45.89 22.84C46.7979 24.1082 47.4749 25.5266 47.89 27.03C48.28 28.56 48.37 29.24 48.89 29.56C50.89 30.83 52.15 27.89 51.95 25.97C51.88 25.26 51.63 22.97 52.1 22.62C52.62 22.48 53.1 25.7 54.46 27.26C56.73 29.81 58.33 26.79 58.56 25.16C59.01 22.16 57.18 18.48 59.12 14.47C59.72 13.22 59.29 14.75 60.29 16.6C63.1 21.8 64.96 22.83 62.83 31.69C62.49 33.09 62.57 34.18 63.27 34.84C64.22 35.74 65.96 35.59 66.06 32.03C66.1577 31.3829 66.3568 30.7552 66.65 30.17C67.26 29.17 68.18 28.46 68.08 29.1C67.69 31.34 73.38 36.58 70.08 43.97C68.96 46.49 67.34 45.89 67.16 47.24Z" fill="black"/>
<path d="M67.16 47.24H36.96C30.96 39.33 37.78 33.38 38.54 26.94C38.73 25.35 39.66 32.14 39.87 32.94C40.25 34.45 41.54 34.39 42.39 33.66C44.32 31.97 43.56 26.74 42.74 24.66C41.06 20.3 44.8 15.66 44.82 16.97C44.82 18.54 44.25 20.43 45.89 22.84C46.7979 24.1082 47.4749 25.5266 47.89 27.03C48.28 28.56 48.37 29.24 48.89 29.56C50.89 30.83 52.15 27.89 51.95 25.97C51.88 25.26 51.63 22.97 52.1 22.62C52.62 22.48 53.1 25.7 54.46 27.26C56.73 29.81 58.33 26.79 58.56 25.16C59.01 22.16 57.18 18.48 59.12 14.47C59.72 13.22 59.29 14.75 60.29 16.6C63.1 21.8 64.96 22.83 62.83 31.69C62.49 33.09 62.57 34.18 63.27 34.84C64.22 35.74 65.96 35.59 66.06 32.03C66.1577 31.3829 66.3568 30.7552 66.65 30.17C67.26 29.17 68.18 28.46 68.08 29.1C67.69 31.34 73.38 36.58 70.08 43.97C68.96 46.49 67.34 45.89 67.16 47.24Z" stroke="black" stroke-width="0.57" stroke-miterlimit="22.93" stroke-linecap="round"/>
<path fill-rule="evenodd" clip-rule="evenodd" d="M68.1399 75.25C70.0699 78.69 76.87 98.44 76.81 98.38C78.339 104.169 78.9531 110.161 78.63 116.14H27.45C28.19 93.14 38.3699 88.37 38.3699 65.87C38.3699 57.32 38.3699 57.46 38.3699 48.87C38.3699 30.57 67.1599 29.92 67.1399 48.87V67.33C67.1338 70.0018 67.4698 72.6635 68.1399 75.25Z" fill="white"/>
<path d="M68.1399 75.25C70.0699 78.69 76.87 98.44 76.81 98.38C78.339 104.169 78.9531 110.161 78.63 116.14H27.45C28.19 93.14 38.3699 88.37 38.3699 65.87C38.3699 57.32 38.3699 57.46 38.3699 48.87C38.3699 30.57 67.1599 29.92 67.1399 48.87V67.33C67.1338 70.0018 67.4698 72.6635 68.1399 75.25Z" stroke="black" stroke-width="0.57" stroke-miterlimit="22.93" stroke-linecap="round"/>
<path fill-rule="evenodd" clip-rule="evenodd" d="M38.39 48.91C38.39 57.46 38.39 57.32 38.39 65.91C38.3977 68.4227 38.2575 70.9337 37.97 73.43H67.74C67.3446 71.4545 67.147 69.4446 67.15 67.43V48.97C67.18 29.96 38.42 30.61 38.39 48.91Z" fill="white"/>
<path d="M38.39 48.91C38.39 57.46 38.39 57.32 38.39 65.91C38.3977 68.4227 38.2575 70.9337 37.97 73.43H67.74C67.3446 71.4545 67.147 69.4446 67.15 67.43V48.97C67.18 29.96 38.42 30.61 38.39 48.91Z" stroke="black" stroke-width="0.57" stroke-linecap="round" stroke-linejoin="round"/>
<path fill-rule="evenodd" clip-rule="evenodd" d="M67.09 47.39C65.66 30.52 39.99 31.07 38.47 47.39H67.09Z" fill="white"/>
<path d="M67.09 47.39C65.66 30.52 39.99 31.07 38.47 47.39H67.09Z" stroke="black" stroke-width="0.57" stroke-linecap="round" stroke-linejoin="round"/>
<path fill-rule="evenodd" clip-rule="evenodd" d="M39.67 58.87C40.0003 58.87 40.3232 58.7721 40.5978 58.5886C40.8724 58.4051 41.0865 58.1443 41.2129 57.8391C41.3393 57.534 41.3723 57.1982 41.3079 56.8742C41.2435 56.5503 41.0844 56.2527 40.8509 56.0192C40.6173 55.7856 40.3197 55.6266 39.9958 55.5621C39.6718 55.4977 39.3361 55.5308 39.0309 55.6572C38.7258 55.7835 38.4649 55.9976 38.2814 56.2722C38.0979 56.5469 38 56.8697 38 57.2C38 57.6429 38.1759 58.0677 38.4891 58.3809C38.8023 58.6941 39.2271 58.87 39.67 58.87Z" fill="#FEFEFE"/>
<path d="M39.67 58.87C40.0003 58.87 40.3232 58.7721 40.5978 58.5886C40.8724 58.4051 41.0865 58.1443 41.2129 57.8391C41.3393 57.534 41.3723 57.1982 41.3079 56.8742C41.2435 56.5503 41.0844 56.2527 40.8509 56.0192C40.6173 55.7856 40.3197 55.6266 39.9958 55.5621C39.6718 55.4977 39.3361 55.5308 39.0309 55.6572C38.7258 55.7835 38.4649 55.9976 38.2814 56.2722C38.0979 56.5469 38 56.8697 38 57.2C38 57.6429 38.1759 58.0677 38.4891 58.3809C38.8023 58.6941 39.2271 58.87 39.67 58.87Z" stroke="black" stroke-width="0.57" stroke-linecap="round" stroke-linejoin="round"/>
<path fill-rule="evenodd" clip-rule="evenodd" d="M53.7 55.53C53.3697 55.53 53.0468 55.628 52.7722 55.8115C52.4975 55.995 52.2835 56.2558 52.1571 56.561C52.0307 56.8661 51.9976 57.2019 52.0621 57.5258C52.1265 57.8498 52.2855 58.1473 52.5191 58.3809C52.7527 58.6145 53.0502 58.7735 53.3742 58.8379C53.6981 58.9024 54.0339 58.8693 54.339 58.7429C54.6442 58.6165 54.905 58.4025 55.0885 58.1278C55.272 57.8532 55.37 57.5303 55.37 57.2C55.3673 56.7579 55.1906 56.3347 54.8779 56.0221C54.5653 55.7094 54.1421 55.5327 53.7 55.53Z" fill="#FEFEFE"/>
<path d="M53.7 55.53C53.3697 55.53 53.0468 55.628 52.7722 55.8115C52.4975 55.995 52.2835 56.2558 52.1571 56.561C52.0307 56.8661 51.9976 57.2019 52.0621 57.5258C52.1265 57.8498 52.2855 58.1473 52.5191 58.3809C52.7527 58.6145 53.0502 58.7735 53.3742 58.8379C53.6981 58.9024 54.0339 58.8693 54.339 58.7429C54.6442 58.6165 54.905 58.4025 55.0885 58.1278C55.272 57.8532 55.37 57.5303 55.37 57.2C55.3673 56.7579 55.1906 56.3347 54.8779 56.0221C54.5653 55.7094 54.1421 55.5327 53.7 55.53Z" stroke="black" stroke-width="0.57" stroke-linecap="round" stroke-linejoin="round"/>
<path fill-rule="evenodd" clip-rule="evenodd" d="M66.85 70.79H38.35C37.8129 70.79 37.2978 71.0033 36.9181 71.3831C36.5383 71.7628 36.325 72.2779 36.325 72.815C36.325 73.352 36.5383 73.8671 36.9181 74.2469C37.2978 74.6266 37.8129 74.84 38.35 74.84H66.85C67.387 74.84 67.9021 74.6266 68.2818 74.2469C68.6616 73.8671 68.8749 73.352 68.8749 72.815C68.8749 72.2779 68.6616 71.7628 68.2818 71.3831C67.9021 71.0033 67.387 70.79 66.85 70.79Z" fill="white"/>
<path d="M66.85 70.79H38.35C37.8129 70.79 37.2978 71.0033 36.9181 71.3831C36.5383 71.7628 36.325 72.2779 36.325 72.815C36.325 73.352 36.5383 73.8671 36.9181 74.2469C37.2978 74.6266 37.8129 74.84 38.35 74.84H66.85C67.387 74.84 67.9021 74.6266 68.2818 74.2469C68.6616 73.8671 68.8749 73.352 68.8749 72.815C68.8749 72.2779 68.6616 71.7628 68.2818 71.3831C67.9021 71.0033 67.387 70.79 66.85 70.79Z" stroke="black" stroke-width="0.57" stroke-miterlimit="22.93" stroke-linecap="round"/>
<path d="M67.16 47.24H23.31" stroke="black" stroke-width="0.57" stroke-miterlimit="22.93" stroke-linecap="round"/>
<path fill-rule="evenodd" clip-rule="evenodd" d="M37.99 74.75L37.55 76.51C43.1098 75.625 48.7156 75.0574 54.34 74.81L37.99 74.75Z" fill="black"/>
<path d="M37.99 74.75L37.55 76.51C43.1098 75.625 48.7156 75.0574 54.34 74.81L37.99 74.75Z" stroke="black" stroke-width="0.57" stroke-miterlimit="22.93" stroke-linecap="round"/>
<path fill-rule="evenodd" clip-rule="evenodd" d="M38.85 47.1801L38.42 48.9401C43.9764 48.0545 49.5789 47.4869 55.2 47.2401L38.85 47.1801Z" fill="black"/>
<path d="M38.85 47.1801L38.42 48.9401C43.9764 48.0545 49.5789 47.4869 55.2 47.2401L38.85 47.1801Z" stroke="black" stroke-width="0.57" stroke-miterlimit="22.93" stroke-linecap="round"/>
<path fill-rule="evenodd" clip-rule="evenodd" d="M39.3 57.3899C39.2496 57.3899 39.2013 57.41 39.1656 57.4456C39.13 57.4812 39.11 57.5296 39.11 57.5799C39.1124 57.6296 39.1332 57.6765 39.1683 57.7116C39.2034 57.7467 39.2504 57.7675 39.3 57.7699C39.3504 57.7699 39.3987 57.7499 39.4343 57.7143C39.47 57.6787 39.49 57.6303 39.49 57.5799C39.4914 57.5546 39.4875 57.5293 39.4785 57.5056C39.4694 57.4818 39.4555 57.4603 39.4376 57.4424C39.4196 57.4244 39.3981 57.4105 39.3744 57.4014C39.3507 57.3924 39.3253 57.3885 39.3 57.3899Z" fill="black"/>
<path d="M39.3 57.3899C39.2496 57.3899 39.2013 57.41 39.1656 57.4456C39.13 57.4812 39.11 57.5296 39.11 57.5799C39.1124 57.6296 39.1332 57.6765 39.1683 57.7116C39.2034 57.7467 39.2504 57.7675 39.3 57.7699C39.3504 57.7699 39.3987 57.7499 39.4343 57.7143C39.47 57.6787 39.49 57.6303 39.49 57.5799C39.4914 57.5546 39.4875 57.5293 39.4785 57.5056C39.4694 57.4818 39.4555 57.4603 39.4376 57.4424C39.4196 57.4244 39.3981 57.4105 39.3744 57.4014C39.3507 57.3924 39.3253 57.3885 39.3 57.3899Z" stroke="black" stroke-width="0.57" stroke-linecap="round" stroke-linejoin="round"/>
<path fill-rule="evenodd" clip-rule="evenodd" d="M53.14 57.79C53.1896 57.7875 53.2365 57.7667 53.2717 57.7316C53.3068 57.6965 53.3276 57.6496 53.33 57.6C53.33 57.5496 53.31 57.5012 53.2744 57.4656C53.2387 57.43 53.1904 57.41 53.14 57.41C53.1147 57.4085 53.0893 57.4124 53.0656 57.4215C53.0419 57.4305 53.0204 57.4444 53.0024 57.4624C52.9845 57.4803 52.9705 57.5019 52.9615 57.5256C52.9525 57.5493 52.9486 57.5746 52.95 57.6C52.95 57.6503 52.97 57.6987 53.0057 57.7343C53.0413 57.7699 53.0896 57.79 53.14 57.79Z" fill="black"/>
<path d="M53.14 57.79C53.1896 57.7875 53.2365 57.7667 53.2717 57.7316C53.3068 57.6965 53.3276 57.6496 53.33 57.6C53.33 57.5496 53.31 57.5012 53.2744 57.4656C53.2387 57.43 53.1904 57.41 53.14 57.41C53.1147 57.4085 53.0893 57.4124 53.0656 57.4215C53.0419 57.4305 53.0204 57.4444 53.0024 57.4624C52.9845 57.4803 52.9705 57.5019 52.9615 57.5256C52.9525 57.5493 52.9486 57.5746 52.95 57.6C52.95 57.6503 52.97 57.6987 53.0057 57.7343C53.0413 57.7699 53.0896 57.79 53.14 57.79Z" stroke="black" stroke-width="0.57" stroke-linecap="round" stroke-linejoin="round"/>
<path d="M47.99 62.9399C47.3395 62.5801 46.6083 62.3914 45.865 62.3914C45.1216 62.3914 44.3905 62.5801 43.74 62.9399" stroke="#373435" stroke-width="0.57" stroke-miterlimit="22.93" stroke-linecap="round"/>
<path d="M38.14 54.4L41.58 55.84" stroke="black" stroke-width="0.57" stroke-miterlimit="22.93" stroke-linecap="round"/>
<path d="M55.06 54.4L51.62 55.84" stroke="black" stroke-width="0.57" stroke-miterlimit="22.93" stroke-linecap="round"/>
<path fill-rule="evenodd" clip-rule="evenodd" d="M50.69 17.15C49.15 12.98 52.69 8.81 52.69 7C52.69 9.57 55.54 11.28 52.37 16C51.8003 16.905 51.4573 17.9341 51.37 19C50.97 19.03 50.74 17.33 50.69 17.15Z" fill="black"/>
<path d="M50.69 17.15C49.15 12.98 52.69 8.81 52.69 7C52.69 9.57 55.54 11.28 52.37 16C51.8003 16.905 51.4573 17.9341 51.37 19C50.97 19.03 50.74 17.33 50.69 17.15Z" stroke="black" stroke-width="0.57" stroke-miterlimit="22.93" stroke-linecap="round"/>
<path fill-rule="evenodd" clip-rule="evenodd" d="M36.16 81.83C32.3 81.46 25.22 89.59 23.9 95.27C22.02 103.34 31.67 104.63 36.78 105.27C37.89 105.41 49.41 105.88 49.78 105.59C53.29 102.98 55.13 101.91 56.63 97.79C57.51 95.37 36.27 91.49 34.5 91.17C33.23 90.93 32.83 91.69 34.5 87.17C35.1719 85.4291 35.7265 83.6451 36.16 81.83Z" fill="white"/>
<path d="M36.16 81.83C32.3 81.46 25.22 89.59 23.9 95.27C22.02 103.34 31.67 104.63 36.78 105.27C37.89 105.41 49.41 105.88 49.78 105.59C53.29 102.98 55.13 101.91 56.63 97.79C57.51 95.37 36.27 91.49 34.5 91.17C33.23 90.93 32.83 91.69 34.5 87.17C35.1719 85.4291 35.7265 83.6451 36.16 81.83Z" stroke="black" stroke-width="0.57" stroke-miterlimit="22.93" stroke-linecap="round"/>
<path fill-rule="evenodd" clip-rule="evenodd" d="M59.44 82.97C58.89 83.77 51.44 93.52 49.29 93.83C47.71 94.07 36.29 95.89 29.29 97.3C28.16 97.52 26.5 95.3 24.11 96.3C22.57 96.9 23.34 98.66 23.19 98.74C22.8344 98.9011 22.5261 99.1508 22.2947 99.4652C22.0633 99.7796 21.9164 100.148 21.8683 100.535C21.8201 100.923 21.8722 101.316 22.0196 101.678C22.167 102.039 22.4047 102.357 22.71 102.6C22.97 102.8 21.49 104.85 23.57 106.08C23.77 106.2 22.11 109.99 29.57 109.58C34.41 109.31 42.42 107.18 50.2 105.74C56.61 104.55 58.43 104.67 62.42 100.2C64.5982 97.8989 66.5723 95.4129 68.32 92.77C71.55 87.42 66.72 80.99 60.68 81.71C60.4 81.71 59.55 82.78 59.41 82.98" fill="white"/>
<path d="M59.44 82.97C58.89 83.77 51.44 93.52 49.29 93.83C47.71 94.07 36.29 95.89 29.29 97.3C28.16 97.52 26.5 95.3 24.11 96.3C22.57 96.9 23.34 98.66 23.19 98.74C22.8344 98.9011 22.5261 99.1508 22.2947 99.4651C22.0633 99.7795 21.9164 100.148 21.8683 100.535C21.8201 100.923 21.8722 101.316 22.0196 101.678C22.167 102.039 22.4047 102.357 22.71 102.6C22.97 102.8 21.49 104.85 23.57 106.08C23.77 106.2 22.11 109.99 29.57 109.58C34.41 109.31 42.42 107.18 50.2 105.74C56.61 104.55 58.43 104.67 62.42 100.2C64.5876 97.8897 66.5609 95.4046 68.32 92.77" stroke="black" stroke-width="0.57" stroke-miterlimit="22.93" stroke-linecap="round"/>
<path d="M33.8499 91.09C32.8107 90.8171 31.7553 90.6101 30.6899 90.47" stroke="black" stroke-width="0.57" stroke-miterlimit="22.93" stroke-linecap="round"/>
<path fill-rule="evenodd" clip-rule="evenodd" d="M31.92 90.67C31.92 90.61 36.1 82.04 36.05 82.25C35.73 83.71 33.92 88.16 33.29 90.69C33.24 90.9 31.94 90.71 31.92 90.67Z" fill="black"/>
<path d="M31.92 90.67C31.92 90.61 36.1 82.04 36.05 82.25C35.73 83.71 33.92 88.16 33.29 90.69C33.24 90.9 31.94 90.71 31.92 90.67Z" stroke="black" stroke-width="0.57" stroke-miterlimit="22.93" stroke-linecap="round"/>
<path d="M23.21 98.73C23.83 98.67 25.01 98.73 25.69 98.73" stroke="#373435" stroke-width="0.57" stroke-miterlimit="22.93" stroke-linecap="round"/>
<path fill-rule="evenodd" clip-rule="evenodd" d="M27.85 111.01C27.85 110.93 28.01 109.59 28.39 109.59C33.7404 109.067 39.0492 108.181 44.28 106.94C55.18 104.52 59.14 103.85 61.21 101.77C61.69 101.29 63.21 99.37 63.21 99.37C62.3677 100.887 61.3063 102.272 60.06 103.48C58.06 105.32 44.72 107.9 41.32 108.82C38.12 109.67 31.48 111.18 27.85 111.01Z" fill="black"/>
<path d="M27.85 111.01C27.85 110.93 28.01 109.59 28.39 109.59C33.7404 109.067 39.0492 108.181 44.28 106.94C55.18 104.52 59.14 103.85 61.21 101.77C61.69 101.29 63.21 99.37 63.21 99.37C62.3677 100.887 61.3063 102.272 60.06 103.48C58.06 105.32 44.72 107.9 41.32 108.82C38.12 109.67 31.48 111.18 27.85 111.01Z" stroke="black" stroke-width="0.57" stroke-miterlimit="22.93" stroke-linecap="round"/>
</g>
</svg>
