<svg width="406" height="608" viewBox="0 0 406 608" fill="none" xmlns="http://www.w3.org/2000/svg">
<path d="M279.521 296.065C279.521 296.065 231.74 290.07 195.812 291.299L205.066 179.299L188.257 182.38L180.949 131.827L248.534 128.414C248.534 128.414 252.796 132.591 265.969 131.279C290.144 139.334 319.558 187.91 319.558 187.91L279.609 205.68L274.858 194.711L279.521 296.065Z" stroke="black" stroke-width="3" stroke-miterlimit="10" stroke-linecap="round" stroke-linejoin="round"/>
<path d="M294.713 343.928L158.945 436.92L206.53 518.828C206.53 518.828 424.797 410 402.385 343.928C379.973 277.855 21.4732 267.658 2.39845 350.039C-6.85476 390.013 148.126 444.278 148.126 444.278L294.713 343.928Z" fill="black" stroke="black" stroke-width="3" stroke-miterlimit="10" stroke-linecap="round" stroke-linejoin="round"/>
<path d="M225.532 107.879C221.328 92.6834 246.814 54.5779 267.55 57.9076C286.982 61.0298 286.589 72.9623 290.385 80.3941C292.498 84.521 298.603 88.5151 299.521 96.4285C300.359 103.653 295.806 107.53 296.418 113.501C297.022 119.421 301.999 129.269 295.135 133.695C290.079 136.959 289.962 125.392 279.354 123.639C271.631 122.361 261.161 121.647 249.459 117.661C238.115 113.8 228.862 119.919 225.532 107.879Z" fill="black" stroke="black" stroke-width="3" stroke-miterlimit="10" stroke-linecap="round" stroke-linejoin="round"/>
<path d="M91.6447 44.5635C91.6447 44.5635 84.4899 -1.15634 74.7412 2.17343C64.9998 5.50321 78.151 46.0416 78.151 46.0416C78.151 46.0416 50.5808 63.4793 52.1182 71.3678C53.6264 79.1318 110.064 181.798 125.772 185.543C141.481 189.288 188.257 182.38 188.257 182.38L180.949 131.827C180.949 131.827 146.435 133.836 136.308 128.414C100.067 109 110.559 21.3216 102.26 19.9515C92.9708 18.407 91.6447 44.5635 91.6447 44.5635Z" fill="white" stroke="black" stroke-width="3" stroke-miterlimit="10" stroke-linecap="round" stroke-linejoin="round"/>
<path d="M81.4588 76.8982L89.896 71.8994C89.896 71.8994 81.1527 40.6941 72.2492 45.4106C65.5461 48.9645 81.4588 76.8982 81.4588 76.8982Z" fill="white" stroke="black" stroke-width="3" stroke-miterlimit="10" stroke-linecap="round" stroke-linejoin="round"/>
<path d="M70.9306 83.4083L79.6811 78.1023C79.6811 78.1023 70.1365 46.241 62.7412 50.6171C54.6829 55.3917 70.9306 83.4083 70.9306 83.4083Z" fill="white" stroke="black" stroke-width="3" stroke-miterlimit="10" stroke-linecap="round" stroke-linejoin="round"/>
<path d="M60.854 90.4332L68.8905 84.3218C68.8905 84.3218 59.3459 52.4605 51.9579 56.8365C43.8923 61.6111 60.854 90.4332 60.854 90.4332Z" fill="white" stroke="black" stroke-width="3" stroke-miterlimit="10" stroke-linecap="round" stroke-linejoin="round"/>
<path d="M85.6483 74.706C85.6483 74.706 91.069 84.9112 97.641 86.2979" stroke="black" stroke-width="3" stroke-miterlimit="10" stroke-linecap="round" stroke-linejoin="round"/>
<path d="M319.558 187.902C319.558 187.902 351.886 240.323 349.7 254.854C347.624 268.672 264.76 316.957 264.76 316.957L262.428 268.829L296.41 247.589L279.601 205.672L319.558 187.902Z" fill="white" stroke="black" stroke-width="3" stroke-miterlimit="10" stroke-linecap="round" stroke-linejoin="round"/>
<path d="M248.534 128.406L254.29 112.039C254.29 112.039 242.487 102.249 248.534 88.0917C254.21 83.9316 258.778 88.2993 260.06 89.9684C261.343 91.6374 265.357 99.3349 268.833 99.3349C272.301 99.3349 282.902 98.712 282.72 103.918C282.538 109.125 279.434 110.578 276.141 108.502C272.672 112.039 268.468 114.539 265.911 112.878C265.364 118.5 265.969 131.271 265.969 131.271C265.969 131.271 253.161 132.79 248.534 128.406Z" fill="white" stroke="black" stroke-width="3" stroke-miterlimit="10" stroke-linecap="round" stroke-linejoin="round"/>
<path d="M257.554 333.69L92.7813 347.166C87.9871 347.557 83.7758 343.405 83.4333 337.941L76.4241 226.564C76.0817 221.1 79.7247 216.3 84.5189 215.91L249.292 202.433C254.086 202.043 258.297 206.195 258.64 211.659L265.649 323.036C265.991 328.5 262.348 333.299 257.554 333.69Z" fill="#DADADA" stroke="black" stroke-width="3" stroke-miterlimit="10" stroke-linecap="round" stroke-linejoin="round"/>
<path d="M170.115 303.672C179.33 303.672 186.8 295.158 186.8 284.656C186.8 274.154 179.33 265.641 170.115 265.641C160.9 265.641 153.43 274.154 153.43 284.656C153.43 295.158 160.9 303.672 170.115 303.672Z" fill="white" stroke="black" stroke-width="3" stroke-miterlimit="10" stroke-linecap="round" stroke-linejoin="round"/>
<path d="M148.417 342.616L198.246 372.243" stroke="white" stroke-miterlimit="10"/>
<path d="M308.884 458.859L331.252 478.289L267.594 527.605L234.013 504.263C234.013 504.263 295.295 469.239 308.884 458.859Z" fill="black" stroke="black" stroke-width="3" stroke-miterlimit="10" stroke-linecap="round" stroke-linejoin="round"/>
<path d="M331.252 478.298L351.959 495.52L282.632 550.473L255.798 536.739L331.252 478.298Z" stroke="black" stroke-width="3" stroke-miterlimit="10" stroke-linecap="round" stroke-linejoin="round"/>
<path d="M345.846 500.369L364.869 518.828L292.279 606L305.467 556.029L295.441 540.318L345.846 500.369Z" fill="white" stroke="black" stroke-width="3" stroke-miterlimit="10" stroke-linecap="round" stroke-linejoin="round"/>
<path d="M158.945 436.921L122.013 461.989L171.033 537.428L211.754 527.655L158.945 436.921Z" stroke="black" stroke-width="3" stroke-miterlimit="10" stroke-linecap="round" stroke-linejoin="round"/>
<path d="M127.601 470.584L97.641 493.012L142.953 594.898L148.067 532.737L160.585 521.344L127.601 470.584Z" fill="white" stroke="black" stroke-width="3" stroke-miterlimit="10" stroke-linecap="round" stroke-linejoin="round"/>
<path d="M210.21 491.169C210.21 491.169 358.749 405.151 358.749 384.807" stroke="white" stroke-miterlimit="10"/>
</svg>
