<svg width="1600" height="1200" viewBox="0 0 1600 1200" fill="none" xmlns="http://www.w3.org/2000/svg">
<rect width="1600" height="1200" fill="white"/>
<path d="M745.943 518.57C745.943 518.57 793.154 469.39 793.994 472.74C795.614 479.24 798.874 490.42 798.874 490.42L850.994 471.13C850.994 471.13 832.874 383.11 823.494 372.8" stroke="black" stroke-width="3" stroke-miterlimit="10" stroke-linecap="round" stroke-linejoin="round"/>
<path d="M997.394 554.22C998.314 544.03 964.584 549.85 964.584 549.85C964.584 549.85 996.034 569.33 997.394 554.22Z" fill="white" stroke="black" stroke-width="3" stroke-miterlimit="10" stroke-linecap="round" stroke-linejoin="round"/>
<path d="M851.003 471.12L860.143 513.29C860.143 513.29 972.123 548.17 982.623 557.54C993.123 566.92 1012.38 579.77 1007.18 586.59C1003.83 590.98 967.253 563.54 967.253 563.54C967.253 563.54 1005.24 589.41 999.873 596.92C994.833 603.98 963.873 574.8 963.873 574.8C963.873 574.8 994.333 601.11 989.373 607.24C984.623 613.12 959.373 584.93 959.373 584.93C959.373 584.93 970.993 599.18 968.753 602.93C966.513 606.68 940.253 580.05 933.503 576.68C926.753 573.31 812.663 541.81 812.663 541.81L798.883 490.44L851.003 471.12Z" fill="white" stroke="black" stroke-width="3" stroke-miterlimit="10" stroke-linecap="round" stroke-linejoin="round"/>
<path d="M787.254 444.29L793.994 472.74" stroke="black" stroke-width="3" stroke-miterlimit="10" stroke-linecap="round" stroke-linejoin="round"/>
<path d="M776.003 659.24L795.483 790.37L695.883 860.56L624.863 805.53L680.363 759.36C680.363 759.36 619.713 646.82 622.713 585.82C677.683 626.68 776.003 659.24 776.003 659.24Z" fill="black" stroke="black" stroke-width="3" stroke-miterlimit="10" stroke-linecap="round" stroke-linejoin="round"/>
<path d="M716.504 647.29L741.705 775.1L660.234 831.96" stroke="white" stroke-miterlimit="10"/>
<path d="M619.324 801.29L712.264 873.29L665.794 894.79L577.754 840.29L619.324 801.29Z" stroke="black" stroke-width="3" stroke-miterlimit="10" stroke-linecap="round" stroke-linejoin="round"/>
<path d="M584.964 844.75L549.684 874.41L645.003 948.35L643.503 902.54L658.954 890.56L584.964 844.75Z" fill="white" stroke="black" stroke-width="3" stroke-miterlimit="10" stroke-linecap="round" stroke-linejoin="round"/>
<path d="M622.715 585.83C692.205 639.83 861.505 686.54 861.505 686.54L896.935 871.25L988.255 848.49L977.755 655.79C956.005 628.04 772.055 516.98 703.565 504.98L622.715 585.83Z" fill="black" stroke="black" stroke-width="3" stroke-miterlimit="10" stroke-linecap="round" stroke-linejoin="round"/>
<path d="M457.254 934.04C457.254 934.04 470.334 949.85 476.564 949.79C631.954 948.35 972.524 946.35 1128.12 944.04C1133.27 943.96 1142.74 929.54 1142.74 929.54" stroke="black" stroke-width="3" stroke-miterlimit="10" stroke-linecap="round" stroke-linejoin="round"/>
<path d="M662.504 993.83C675.063 993.83 685.244 983.649 685.244 971.09C685.244 958.531 675.063 948.35 662.504 948.35C649.945 948.35 639.764 958.531 639.764 971.09C639.764 983.649 649.945 993.83 662.504 993.83Z" stroke="black" stroke-width="3" stroke-miterlimit="10" stroke-linecap="round" stroke-linejoin="round"/>
<path d="M1017.89 991.83C1030.45 991.83 1040.63 981.649 1040.63 969.09C1040.63 956.531 1030.45 946.35 1017.89 946.35C1005.34 946.35 995.154 956.531 995.154 969.09C995.154 981.649 1005.34 991.83 1017.89 991.83Z" stroke="black" stroke-width="3" stroke-miterlimit="10" stroke-linecap="round" stroke-linejoin="round"/>
<path d="M886.754 873.79L1003.25 844.75L1000.75 887.29L895.754 904.29L886.754 873.79Z" stroke="black" stroke-width="3" stroke-miterlimit="10" stroke-linecap="round" stroke-linejoin="round"/>
<path d="M989.435 889.12V906.04L1043 945.1L909.755 945.97L902.035 903.27L989.435 889.12Z" fill="white" stroke="black" stroke-width="3" stroke-miterlimit="10" stroke-linecap="round" stroke-linejoin="round"/>
<path d="M841.904 361.04C850.967 361.04 858.314 352.56 858.314 342.1C858.314 331.64 850.967 323.16 841.904 323.16C832.841 323.16 825.494 331.64 825.494 342.1C825.494 352.56 832.841 361.04 841.904 361.04Z" fill="white" stroke="black" stroke-width="3" stroke-miterlimit="10" stroke-linecap="round" stroke-linejoin="round"/>
<path d="M688.924 437.05C688.924 437.05 763.964 391.04 839.004 398.92" stroke="black" stroke-width="3" stroke-miterlimit="10" stroke-linecap="round" stroke-linejoin="round"/>
<path d="M696.814 444.93C696.814 444.93 757.414 397.71 840.504 408.79" stroke="black" stroke-width="3" stroke-miterlimit="10" stroke-linecap="round" stroke-linejoin="round"/>
<path d="M725.504 483.04C725.504 483.04 763.964 486.79 788.504 480.54" stroke="black" stroke-width="3" stroke-miterlimit="10" stroke-linecap="round" stroke-linejoin="round"/>
<path d="M716.504 492.04C716.504 492.04 755.444 496.48 783.254 488.54" stroke="black" stroke-width="3" stroke-miterlimit="10" stroke-linecap="round" stroke-linejoin="round"/>
<path d="M679.551 381.55L638.246 353.375L601.337 407.485L642.642 435.66L679.551 381.55Z" fill="#A7A5A5" stroke="black" stroke-width="3" stroke-miterlimit="10" stroke-linecap="round" stroke-linejoin="round"/>
<path d="M695.344 392.314L679.549 381.54L642.64 435.649L658.435 446.424L695.344 392.314Z" fill="black" stroke="black" stroke-width="3" stroke-miterlimit="10" stroke-linecap="round" stroke-linejoin="round"/>
<path d="M657.164 379.854L631.918 362.633L601.331 407.474L626.577 424.694L657.164 379.854Z" fill="white" stroke="black" stroke-width="3" stroke-miterlimit="10" stroke-linecap="round" stroke-linejoin="round"/>
<path d="M823.503 372.79C828.283 371.44 825.503 367.66 832.123 356.67C838.873 345.46 866.023 336.48 866.003 328.29C865.953 310.38 825.153 282.29 784.753 307.29C779.003 310.85 761.484 309.94 759.784 317.63C757.064 329.91 767.074 325.56 770.284 334.22C775.124 347.28 789.123 353.53 796.753 357.03C805.553 361.08 808.113 377.13 823.503 372.79Z" fill="black" stroke="black" stroke-width="3" stroke-miterlimit="10" stroke-linecap="round" stroke-linejoin="round"/>
<path d="M650.374 265.79H583.254V320.16H650.374V265.79Z" stroke="black" stroke-width="3" stroke-miterlimit="10" stroke-linecap="round" stroke-linejoin="round"/>
<path d="M583.254 265.79L617.004 290.04L650.374 265.79H583.254Z" stroke="black" stroke-width="3" stroke-miterlimit="10" stroke-linecap="round" stroke-linejoin="round"/>
<path d="M534.504 233.54H457.254V300.29H534.504V233.54Z" fill="#A7A5A5" stroke="black" stroke-width="3" stroke-miterlimit="10" stroke-linecap="round" stroke-linejoin="round"/>
<path d="M495.874 245.92H457.254V268.98H495.874V245.92Z" fill="white" stroke="black" stroke-width="3" stroke-miterlimit="10" stroke-linecap="round" stroke-linejoin="round"/>
<path d="M458.125 280.42H483.125" stroke="black" stroke-width="3" stroke-miterlimit="10" stroke-linecap="round" stroke-linejoin="round"/>
<path d="M458.125 288.29H471.755" stroke="black" stroke-width="3" stroke-miterlimit="10" stroke-linecap="round" stroke-linejoin="round"/>
<path d="M534.504 233.54H512.254V299.29H534.504V233.54Z" fill="black" stroke="black" stroke-width="3" stroke-miterlimit="10" stroke-linecap="round" stroke-linejoin="round"/>
<path d="M1073.7 445.479L993.945 393.357L948.908 462.267L1028.66 514.389L1073.7 445.479Z" fill="#A7A5A5" stroke="black" stroke-width="3" stroke-miterlimit="10" stroke-linecap="round" stroke-linejoin="round"/>
<path d="M1025.47 432.202L985.596 406.139L970.036 429.946L1009.92 456.009L1025.47 432.202Z" fill="white" stroke="black" stroke-width="3" stroke-miterlimit="10" stroke-linecap="round" stroke-linejoin="round"/>
<path d="M962.354 441.55L989.063 459.01" stroke="black" stroke-width="3" stroke-miterlimit="10" stroke-linecap="round" stroke-linejoin="round"/>
<path d="M957.043 449.68L972.013 459.47" stroke="black" stroke-width="3" stroke-miterlimit="10" stroke-linecap="round" stroke-linejoin="round"/>
<path d="M1050.96 430.315L1005.93 499.225L1028.9 514.237L1073.93 445.327L1050.96 430.315Z" fill="black" stroke="black" stroke-width="3" stroke-miterlimit="10" stroke-linecap="round" stroke-linejoin="round"/>
<path d="M730.192 478.295L604.215 352.318L485.139 471.394L611.116 597.371L730.192 478.295Z" fill="#DADADA" stroke="black" stroke-width="3" stroke-miterlimit="10" stroke-linecap="round" stroke-linejoin="round"/>
<path d="M730.194 478.293L691.799 439.897L572.723 558.973L611.119 597.368L730.194 478.293Z" fill="#565656" stroke="black" stroke-width="3" stroke-miterlimit="10" stroke-linecap="round" stroke-linejoin="round"/>
<path d="M634.194 448.61L546.834 361.46L604.234 352.35L691.814 439.94L634.194 448.61Z" fill="#DADADA" stroke="black" stroke-width="3" stroke-miterlimit="10" stroke-linecap="round" stroke-linejoin="round"/>
<path d="M546.514 307.79C546.514 307.79 567.504 321.66 572.374 330.29" stroke="black" stroke-width="3" stroke-miterlimit="10" stroke-linecap="round" stroke-linejoin="round"/>
<path d="M626.005 335.18C626.005 335.18 622.555 347.6 621.885 352.35" stroke="black" stroke-width="3" stroke-miterlimit="10" stroke-linecap="round" stroke-linejoin="round"/>
<path d="M715.625 262.04C715.625 262.04 683.245 291.43 677.375 302.54" stroke="black" stroke-width="3" stroke-miterlimit="10" stroke-linecap="round" stroke-linejoin="round"/>
<path d="M769.183 361.931L726.363 295.176L671.131 330.604L713.95 397.36L769.183 361.931Z" fill="#DADADA" stroke="black" stroke-width="3" stroke-miterlimit="10" stroke-linecap="round" stroke-linejoin="round"/>
<path d="M751.239 355.657L725.842 316.063L704.538 329.728L729.935 369.322L751.239 355.657Z" fill="white" stroke="black" stroke-width="3" stroke-miterlimit="10" stroke-linecap="round" stroke-linejoin="round"/>
<path d="M695.234 335.75L706.134 352.75" stroke="black" stroke-width="3" stroke-miterlimit="10" stroke-linecap="round" stroke-linejoin="round"/>
<path d="M688.924 339.8L697.594 353.33" stroke="black" stroke-width="3" stroke-miterlimit="10" stroke-linecap="round" stroke-linejoin="round"/>
<path d="M780.314 222.29C780.314 222.29 753.874 207.1 743.934 217.04C733.994 226.98 775.524 247.88 767.184 256.23C758.844 264.57 723.824 239.17 720.004 229.04" stroke="black" stroke-width="3" stroke-miterlimit="10" stroke-linecap="round" stroke-linejoin="round"/>
<path d="M774.505 206.17L731.375 249.29" stroke="black" stroke-width="3" stroke-miterlimit="10" stroke-linecap="round" stroke-linejoin="round"/>
<path d="M782.564 210.1L735.314 257.35" stroke="black" stroke-width="3" stroke-miterlimit="10" stroke-linecap="round" stroke-linejoin="round"/>
<path d="M798.475 596.63L924.294 673.04L945.004 823.24" stroke="white" stroke-miterlimit="10"/>
</svg>
