<svg xmlns="http://www.w3.org/2000/svg" height="1296" width="1546" version="1.1" xmlns:xlink="http://www.w3.org/1999/xlink" xmlns:svgjs="http://svgjs.com/svgjs"><rect fill="#ebf3e9" width="1546" height="1296"></rect><g><path d="M1378.95 1005.62L1328.85 999.83 1336.15 956.53C1336.35 955.53 1335.75 954.63 1334.85 954.33 1333.95 954.03 1332.95 954.43 1332.45 955.23L1312.45 990.83 1279.15 954.73C1278.45 954.03 1277.35 953.83 1276.55 954.43 1275.75 955.03 1275.45 956.03 1275.85 956.93L1296.75 1000.72 1261.25 1008.72C1260.35 1008.92 1259.65 1009.72 1259.65 1010.72 1259.65 1011.72 1260.35 1012.52 1261.25 1012.62L1297.35 1019.12 1282.85 1073.92C1282.55 1074.92 1283.05 1075.92 1284.05 1076.32 1284.25 1076.42 1284.55 1076.52 1284.85 1076.52 1285.55 1076.52 1286.25 1076.12 1286.55 1075.52L1313.85 1028.42 1338.35 1055.02C1338.95 1055.72 1340.05 1055.92 1340.85 1055.42 1341.65 1054.92 1342.05 1053.92 1341.65 1053.02L1329.35 1018.62 1378.95 1009.52C1379.95 1009.32 1380.65 1008.52 1380.55 1007.52 1380.45 1006.52 1379.95 1005.72 1378.95 1005.62Z" fill="#ff4f00" opacity="1" stroke-width="4" stroke="#000000"></path></g><g><path d="M1121.5 230.2C1129.4 230.2 1135.8 223.8 1135.8 215.9 1135.8 208 1129.4 201.6 1121.5 201.6 1113.6 201.6 1107.2 208 1107.2 215.9 1107.2 223.8 1113.6 230.2 1121.5 230.2Z" fill="#ffffff" opacity="1" stroke-width="4" stroke="#000000"></path></g><g><path d="M303.3 1036.3C312.36 1036.3 319.7 1028.96 319.7 1019.9 319.7 1010.84 312.36 1003.5 303.3 1003.5 294.24 1003.5 286.9 1010.84 286.9 1019.9 286.9 1028.96 294.24 1036.3 303.3 1036.3Z" fill="#f9bf17" opacity="1" stroke-width="4" stroke="#000000"></path></g><g><path d="M1150.7 1118.1C1160.58 1118.1 1168.6 1110.09 1168.6 1100.2 1168.6 1090.31 1160.58 1082.3 1150.7 1082.3 1140.81 1082.3 1132.8 1090.31 1132.8 1100.2 1132.8 1110.09 1140.81 1118.1 1150.7 1118.1Z" fill="#006b97" opacity="1" stroke-width="4" stroke="#000000"></path></g><g><path d="M162.26 513.5C172.7 513.5 181.16 505.04 181.16 494.6 181.16 484.16 172.7 475.7 162.26 475.7 151.82 475.7 143.36 484.16 143.36 494.6 143.36 505.04 151.82 513.5 162.26 513.5Z" fill="#006b97" opacity="1" stroke-width="4" stroke="#000000"></path></g><g><path d="M248.1 642.93C259.07 635.02 261.56 619.71 253.65 608.74 245.73 597.76 230.42 595.27 219.45 603.19 208.47 611.1 205.99 626.41 213.9 637.39 221.81 648.36 237.12 650.85 248.1 642.93Z" fill="#efd7d9" opacity="1" stroke-width="4" stroke="#000000"></path></g><g><path d="M1182.78 322.8H1098.88C1098.88 322.8 1089.18 372.4 1118.38 398.7H1202.28C1173.08 372.4 1182.78 322.8 1182.78 322.8Z" fill="#efd7d9" opacity="1" stroke-width="4" stroke="#000000"></path><path d="M1065.18 279.9H981.28C981.28 279.9 971.58 329.5 1000.78 355.8H1084.68C1055.38 329.5 1065.18 279.9 1065.18 279.9Z" fill="#ff7a01" opacity="1" stroke-width="4" stroke="#000000"></path></g><g><path d="M858.25 161.3H944.75C964.65 161.3 980.75 177.4 980.75 197.3V198.9C980.75 218.8 964.65 234.9 944.75 234.9H858.25C838.35 234.9 822.25 218.8 822.25 198.9V197.3C822.25 177.4 838.35 161.3 858.25 161.3Z" fill="#ff4f00" opacity="1" stroke-width="4" stroke="#000000"></path><path d="M874.05 202.9C879.96 202.9 884.75 198.11 884.75 192.2 884.75 186.29 879.96 181.5 874.05 181.5 868.14 181.5 863.35 186.29 863.35 192.2 863.35 198.11 868.14 202.9 874.05 202.9Z" stroke="#000000" stroke-width="4" stroke-linecap="round" stroke-linejoin="round" opacity="1" fill="none"></path><path d="M882.65 198.7L869.75 214.8" stroke="#000000" stroke-width="4" stroke-linecap="round" stroke-linejoin="round" opacity="1" fill="none"></path><path d="M907.35 202.9C913.26 202.9 918.05 198.11 918.05 192.2 918.05 186.29 913.26 181.5 907.35 181.5 901.44 181.5 896.65 186.29 896.65 192.2 896.65 198.11 901.44 202.9 907.35 202.9Z" stroke="#000000" stroke-width="4" stroke-linecap="round" stroke-linejoin="round" opacity="1" fill="none"></path><path d="M915.95 198.7L903.05 214.8" stroke="#000000" stroke-width="4" stroke-linecap="round" stroke-linejoin="round" opacity="1" fill="none"></path><path d="M936.35 190.6V205.7" stroke="#000000" stroke-width="4" stroke-linecap="round" stroke-linejoin="round" opacity="1" fill="none"></path><path d="M943.85 198.2H928.85" stroke="#000000" stroke-width="4" stroke-linecap="round" stroke-linejoin="round" opacity="1" fill="none"></path></g><g><path d="M1063.8 527H925.8C918.2 527 912 520.8 912 513.2V416.1C912 408.5 918.2 402.3 925.8 402.3H963.1C968 402.3 972.5 404.9 975 409.1L979.3 416.4C981.8 420.6 986.3 423.2 991.2 423.2H1063.9C1071.5 423.2 1077.7 429.4 1077.7 437V513.2C1077.7 520.8 1071.5 527 1063.8 527 1063.9 527 1063.9 527 1063.8 527Z" fill="#006b97" opacity="1" stroke-width="4" stroke="#000000"></path></g><g><path d="M488.7 757.1H725.7C742.7 757.1 756.6 770.9 756.6 788V1025C756.6 1042 742.8 1055.9 725.7 1055.9H488.7C471.7 1055.9 457.8 1042.1 457.8 1025V788C457.8 770.9 471.6 757.1 488.7 757.1Z" fill="#006b97" opacity="1" stroke-width="4" stroke="#000000"></path><path d="M496.7 998.5H717.6" stroke="#000000" stroke-width="4" stroke-linecap="round" stroke-linejoin="round" opacity="1" fill="none"></path><path d="M496.7 998.5V822.6" stroke="#000000" stroke-width="4" stroke-linecap="round" stroke-linejoin="round" opacity="1" fill="none"></path><path d="M486.5 901.3C525.4 901.3 522.3 954.5 549.9 954.5 590.8 954.5 598 841 644 841 690 841 683.9 905.4 715.6 905.4" stroke="#000000" stroke-width="4" stroke-linecap="round" stroke-linejoin="round" opacity="1" fill="none"></path><path d="M606.1 889.1C615.16 889.1 622.5 881.76 622.5 872.7 622.5 863.64 615.16 856.3 606.1 856.3 597.04 856.3 589.7 863.64 589.7 872.7 589.7 881.76 597.04 889.1 606.1 889.1Z" fill="#ffffff" opacity="1" stroke-width="4" stroke="#000000"></path><path d="M537.6 997.5V988.3" stroke="#000000" stroke-width="4" stroke-linecap="round" stroke-linejoin="round" opacity="1" fill="none"></path><path d="M578.5 997.5V988.3" stroke="#000000" stroke-width="4" stroke-linecap="round" stroke-linejoin="round" opacity="1" fill="none"></path><path d="M619.4 997.5V988.3" stroke="#000000" stroke-width="4" stroke-linecap="round" stroke-linejoin="round" opacity="1" fill="none"></path><path d="M660.3 997.5V988.3" stroke="#000000" stroke-width="4" stroke-linecap="round" stroke-linejoin="round" opacity="1" fill="none"></path><path d="M701.3 997.5V988.3" stroke="#000000" stroke-width="4" stroke-linecap="round" stroke-linejoin="round" opacity="1" fill="none"></path></g><g><path d="M330.72 602.43C321.84 602.41 313.33 598.88 307.05 592.6 300.77 586.32 297.23 577.81 297.23 568.93V251.47C297.23 242.59 300.77 234.08 307.05 227.8 313.33 221.52 321.84 217.98 330.72 217.97H742.6C751.48 217.98 759.99 221.52 766.27 227.8 772.55 234.08 776.08 242.59 776.09 251.47V568.93C776.08 577.81 772.55 586.32 766.27 592.6 759.99 598.88 751.48 602.41 742.6 602.43H330.72Z" fill="#ffffff" opacity="1" stroke-width="4" stroke="#000000"></path><path d="M297.25 289.93H777.57" stroke="#000000" stroke-width="4" opacity="1" fill="none"></path><path d="M332.47 265.95C339.5 265.95 345.21 260.25 345.21 253.22 345.21 246.18 339.5 240.48 332.47 240.48 325.43 240.48 319.73 246.18 319.73 253.22 319.73 260.25 325.43 265.95 332.47 265.95Z" fill="#ffffff" opacity="1" stroke-width="4" stroke="#000000"></path><path d="M371.07 265.95C378.11 265.95 383.81 260.25 383.81 253.22 383.81 246.18 378.11 240.48 371.07 240.48 364.04 240.48 358.33 246.18 358.33 253.22 358.33 260.25 364.04 265.95 371.07 265.95Z" fill="#ffffff" opacity="1" stroke-width="4" stroke="#000000"></path><path d="M409.67 265.95C416.71 265.95 422.41 260.25 422.41 253.22 422.41 246.18 416.71 240.48 409.67 240.48 402.64 240.48 396.93 246.18 396.93 253.22 396.93 260.25 402.64 265.95 409.67 265.95Z" fill="#ffffff" opacity="1" stroke-width="4" stroke="#000000"></path></g><g><path d="M404.43 522.14V372.52C404.43 363.11 412.06 355.47 421.48 355.47H665.09C674.51 355.47 682.14 363.11 682.14 372.52V522.14H404.43Z" fill="#ffffff" opacity="1" stroke-width="4" stroke="#000000"></path><path d="M442.01 440.74C436.55 440.74 432.19 436.28 432.19 430.92V336.63C432.19 331.18 436.65 326.82 442.01 326.82H537.29C542.74 326.82 547.1 331.28 547.1 336.63V430.92C547.1 436.38 542.64 440.74 537.29 440.74H442.01V440.74ZM442.01 330.78C438.83 330.78 436.16 333.36 436.16 336.63V430.92C436.16 434.1 438.73 436.77 442.01 436.77H537.29C540.46 436.77 543.14 434.19 543.14 430.92V336.63C543.14 333.46 540.56 330.78 537.29 330.78H442.01Z" fill="#f9bf17" opacity="1" stroke-width="4" stroke="#000000"></path><path d="M593.31 550.4C587.85 550.4 583.49 545.93 583.49 540.58V446.29C583.49 440.84 587.95 436.47 593.31 436.47H688.09C693.54 436.47 697.91 440.94 697.91 446.29V540.58C697.91 546.03 693.44 550.4 688.09 550.4H593.31ZM593.31 440.44C590.13 440.44 587.46 443.02 587.46 446.29V540.58C587.46 543.75 590.03 546.43 593.31 546.43H688.09C691.26 546.43 693.94 543.85 693.94 540.58V446.29C693.94 443.12 691.36 440.44 688.09 440.44H593.31Z" fill="#f9bf17" opacity="1" stroke-width="4" stroke="#000000"></path><path d="M391.44 539.99C385.99 539.99 381.62 535.52 381.62 530.17V469.69C381.62 464.24 386.09 459.87 391.44 459.87H445.28C450.73 459.87 455.09 464.34 455.09 469.69V530.17C455.09 535.62 450.63 539.99 445.28 539.99H391.44ZM391.44 463.84C388.27 463.84 385.59 466.42 385.59 469.69V530.17C385.59 533.34 388.17 536.02 391.44 536.02H445.28C448.45 536.02 451.13 533.44 451.13 530.17V469.69C451.13 466.52 448.55 463.84 445.28 463.84H391.44Z" fill="#f9bf17" opacity="1" stroke-width="4" stroke="#000000"></path><path d="M446.57 400.48L446.47 340.2H532.73V400.48H446.57Z" fill="#f9bf17" opacity="1" stroke-width="4" stroke="#000000"></path><path d="M447.76 419.92C446.07 418.13 446.07 415.46 447.76 413.67 448.65 412.68 449.84 412.18 451.13 412.18 452.32 412.18 453.41 412.58 454.3 413.37L455.29 414.36 456.28 413.37C457.17 412.48 458.36 411.99 459.55 411.99 460.74 411.99 461.93 412.48 462.83 413.37 464.61 415.16 464.61 418.13 462.83 419.92L455.29 427.45 447.76 419.92Z" fill="#f9bf17" opacity="1" stroke-width="4" stroke="#000000"></path><path d="M501.2 496.95C488.9 496.95 478.79 486.94 478.79 474.55V402.37C478.79 390.07 488.8 379.96 501.2 379.96H584.78C597.07 379.96 607.19 389.97 607.19 402.37V474.55C607.19 486.84 597.17 496.95 584.78 496.95H501.2Z" fill="#006b97" opacity="1" stroke-width="4" stroke="#000000"></path><path d="M573.77 457.99C572.68 457.99 571.69 457.59 570.8 457L552.85 442.62C552.56 442.42 552.36 442.13 552.06 441.83 551.27 440.84 550.97 439.65 551.07 438.36 551.17 437.07 551.86 435.98 552.85 435.19L570.8 420.81C571.59 420.12 572.68 419.82 573.77 419.82 576.35 419.82 578.53 421.9 578.53 424.58V453.23C578.53 454.32 578.14 455.31 577.54 456.21 576.55 457.3 575.26 457.99 573.77 457.99Z" fill="#efd7d9" opacity="1" stroke-width="4" stroke="#000000"></path><path d="M519.34 463.05C513.89 463.05 509.53 458.58 509.53 453.23V423.98C509.53 418.53 513.99 414.17 519.34 414.17H550.47C555.93 414.17 560.29 418.63 560.29 423.98V453.13C560.29 458.58 555.83 462.95 550.47 462.95H519.34V463.05Z" fill="#efd7d9" opacity="1" stroke-width="4" stroke="#000000"></path></g><g><path d="M324.22 381.63L258.82 367.23 278.62 322.93C279.02 322.03 278.72 321.03 277.92 320.43 277.12 319.93 276.02 320.03 275.32 320.63L240.52 355.83 206.92 314.93C206.32 314.13 205.22 313.93 204.42 314.43 203.62 314.93 203.22 315.93 203.52 316.83L221.22 365.43H170.22C169.22 365.43 168.42 366.13 168.22 367.13 168.02 368.13 168.62 369.03 169.52 369.33L220.92 387.03 201.12 434.63C200.72 435.53 201.12 436.53 201.92 437.13 202.72 437.63 203.82 437.53 204.52 436.83L239.22 398.63 282.42 448.93C282.82 449.43 283.42 449.63 283.92 449.63 284.32 449.63 284.72 449.53 285.02 449.33 285.82 448.83 286.12 447.73 285.72 446.83L258.52 388.83 323.92 385.53C324.92 385.53 325.72 384.73 325.82 383.73 325.92 382.83 325.22 381.93 324.22 381.63Z" fill="#ff7a01" opacity="1" stroke-width="4" stroke="#000000"></path></g><g><path d="M1236.93 643.9H975.84V857.86H1236.93V643.9Z" fill="#efd7d9" opacity="1" stroke-width="4" stroke="#000000"></path><path d="M1145.03 679.38H1067.69L1068.61 690.36H1144.06L1145.03 679.38Z" fill="#f9bf17" opacity="1" stroke-width="4" stroke="#000000"></path><path d="M1068.61 690.36L1077.49 793.63C1078.1 800.99 1084.28 806.6 1091.63 806.6H1120.99C1128.34 806.6 1134.52 800.99 1135.13 793.63L1144.01 690.36H1068.61Z" fill="#ffffff" opacity="1" stroke-width="4" stroke="#000000"></path><path d="M1073.1 742.48L1077.49 793.69C1078.1 801.04 1084.28 806.65 1091.63 806.65H1120.99C1128.34 806.65 1134.52 801.04 1135.13 793.69L1139.52 742.48H1073.1Z" fill="#f9bf17" opacity="1" stroke-width="4" stroke="#000000"></path><path d="M1106.33 772.86C1119 772.86 1129.26 759.26 1129.26 742.48 1129.26 725.7 1119 712.1 1106.33 712.1 1093.67 712.1 1083.41 725.7 1083.41 742.48 1083.41 759.26 1093.67 772.86 1106.33 772.86Z" fill="#f9bf17" opacity="1" stroke-width="4" stroke="#000000"></path><path d="M1106.33 761.52C1114.29 761.52 1120.73 753 1120.73 742.48 1120.73 731.96 1114.29 723.44 1106.33 723.44 1098.39 723.44 1091.94 731.96 1091.94 742.48 1091.94 753 1098.39 761.52 1106.33 761.52Z" fill="#efd7d9" opacity="1" stroke-width="4" stroke="#000000"></path><path d="M1125.28 806.09H1087.45V828.55H1125.28V806.09Z" fill="#f9bf17" opacity="1" stroke-width="4" stroke="#000000"></path><path d="M1030.16 759.48H1032.97C1046.55 759.48 1057.53 770.51 1057.53 784.04V828.55H1005.56V784.04C1005.56 770.46 1016.58 759.48 1030.16 759.48Z" fill="#ffffff" opacity="1" stroke-width="4" stroke="#000000"></path><path d="M1057.53 800.53H1005.56V828.61H1057.53V800.53Z" fill="#f9bf17" opacity="1" stroke-width="4" stroke="#000000"></path><path d="M1031.54 722.57C1035.58 722.57 1038.84 725.84 1038.84 729.87V748.3C1038.84 748.45 1038.69 748.61 1038.54 748.61H1024.6C1024.45 748.61 1024.29 748.45 1024.29 748.3V729.87C1024.29 725.84 1027.56 722.57 1031.54 722.57Z" fill="#f9bf17" opacity="1" stroke-width="4" stroke="#000000"></path><path d="M1046.09 746.97H1016.99V763.62H1046.09V746.97Z" fill="#f9bf17" opacity="1" stroke-width="4" stroke="#000000"></path><path d="M1022.3 781.64C1025.21 781.64 1027.56 779.28 1027.56 776.38 1027.56 773.47 1025.21 771.12 1022.3 771.12 1019.4 771.12 1017.04 773.47 1017.04 776.38 1017.04 779.28 1019.4 781.64 1022.3 781.64Z" fill="#efd7d9" opacity="1" stroke-width="4" stroke="#000000"></path><path d="M1192.31 747.02H1170.1V799.15H1192.31V747.02Z" fill="#f9bf17" opacity="1" stroke-width="4" stroke="#000000"></path><path d="M1192.31 768.67H1170.1V783.63H1192.31V768.67Z" fill="#f9bf17" opacity="1" stroke-width="4" stroke="#000000"></path><path d="M1207.21 776.43H1155.09V828.55H1207.21V776.43Z" fill="#ffffff" opacity="1" stroke-width="4" stroke="#000000"></path><path d="M1180.97 812.27C1187.61 812.22 1194.2 813.8 1200.07 816.81V783.68H1162.14V816.66C1168.01 813.75 1174.44 812.22 1180.97 812.27Z" fill="#f9bf17" opacity="1" stroke-width="4" stroke="#000000"></path><path d="M1063.35 671.93L1069.53 665.49 1072.84 673.71 1081.57 672.13 1079.43 680.76 1087.45 684.59 1080.66 690.3 1084.84 698.12 1076.01 698.78 1074.78 707.56 1067.28 702.86 1061.15 709.24 1057.78 701.03 1049.05 702.61 1051.2 694.03 1043.23 690.15 1050.02 684.43 1045.79 676.62 1054.67 676.01 1055.84 667.23 1063.35 671.93Z" fill="#76b5dd" opacity="1" stroke-width="4" stroke="#000000"></path></g><g><path d="M1309.2 868.6C1315.55 868.6 1320.7 863.45 1320.7 857.1 1320.7 850.75 1315.55 845.6 1309.2 845.6 1302.85 845.6 1297.7 850.75 1297.7 857.1 1297.7 863.45 1302.85 868.6 1309.2 868.6Z" fill="#f9bf17" opacity="1" stroke-width="4" stroke="#000000"></path></g><g><path d="M1212.64 702.34C1275.93 702.34 1327.24 651.03 1327.24 587.74 1327.24 524.45 1275.93 473.14 1212.64 473.14 1149.35 473.14 1098.04 524.45 1098.04 587.74 1098.04 651.03 1149.35 702.34 1212.64 702.34Z" fill="#f9bf1700" opacity="0" stroke-width="4" stroke="#ffffff00"></path><path d="M1241.54 629.44H1255.64" stroke="#000000" stroke-width="4" stroke-linecap="round" stroke-linejoin="round" opacity="1" fill="none"></path><path d="M1212.64 676.34C1275.93 676.34 1327.24 625.03 1327.24 561.74 1327.24 498.45 1275.93 447.14 1212.64 447.14 1149.35 447.14 1098.04 498.45 1098.04 561.74 1098.04 625.03 1149.35 676.34 1212.64 676.34Z" fill="#ffffff" opacity="1" stroke-width="4" stroke="#000000"></path><path d="M1256.74 630.54V619.64L1192.24 619.54V631.54H1170.74C1154.44 631.54 1141.34 641.14 1135.44 646.34 1182.14 689.04 1254.54 685.74 1297.24 639.04 1297.84 638.34 1298.54 637.64 1299.14 636.94 1292.94 632.84 1285.64 630.64 1278.14 630.44L1256.74 630.54Z" fill="#006b97" opacity="1" stroke-width="4" stroke="#000000"></path><path d="M1159.04 567.44C1161.34 555.84 1161.24 541.54 1163.24 528.64 1164.64 519.84 1166.94 511.74 1171.74 505.74 1183.54 491.04 1215.24 485.34 1240.64 503.94 1266.04 522.54 1264.74 548.74 1263.74 560.54L1256.64 600.24 1256.74 619.94H1192.24L1192.14 609.24C1192.14 609.24 1178.04 612.24 1169.74 606.54 1158.54 598.84 1155.14 586.94 1159.04 567.44Z" fill="#ac704e" opacity="1" stroke-width="4" stroke="#000000"></path><path d="M1171.74 505.74C1183.54 491.04 1217.14 481.84 1242.54 500.44 1267.94 519.04 1264.74 548.74 1263.74 560.54L1256.64 600.24C1256.64 600.24 1237.54 594.24 1229.44 579.04 1229.44 579.04 1257.14 566.64 1244.54 548.84 1232.44 531.74 1211.34 552.84 1211.34 552.84 1199.24 548.84 1187.14 531.64 1187.14 531.64 1169.04 532.64 1163.24 528.54 1163.24 528.54 1164.64 519.84 1166.94 511.74 1171.74 505.74Z" fill="#221f1f" opacity="1" stroke-width="4" stroke="#000000"></path><path d="M1190.14 561.34C1191.85 561.34 1193.24 559.95 1193.24 558.24 1193.24 556.53 1191.85 555.14 1190.14 555.14 1188.43 555.14 1187.04 556.53 1187.04 558.24 1187.04 559.95 1188.43 561.34 1190.14 561.34Z" fill="#000000" opacity="1" stroke-width="4" stroke="#000000"></path><path d="M1168.04 559.24C1169.75 559.24 1171.14 557.85 1171.14 556.14 1171.14 554.43 1169.75 553.04 1168.04 553.04 1166.32 553.04 1164.94 554.43 1164.94 556.14 1164.94 557.85 1166.32 559.24 1168.04 559.24Z" fill="#000000" opacity="1" stroke-width="4" stroke="#000000"></path><path d="M1174.74 566.44C1174.24 568.14 1173.94 569.64 1174.24 570.24 1174.74 571.14 1175.54 571.94 1176.44 572.44" stroke="#000000" stroke-width="4" stroke-linecap="round" stroke-linejoin="round" opacity="1" fill="none"></path><path d="M1185.04 581.14C1183.14 582.94 1180.44 583.74 1177.84 583.14" stroke="#000000" stroke-width="4" stroke-linecap="round" stroke-linejoin="round" opacity="1" fill="none"></path><path d="M1204.44 606.74C1200.84 608.34 1195.94 608.04 1192.14 609.24" stroke="#000000" stroke-width="4" stroke-linecap="round" stroke-linejoin="round" opacity="1" fill="none"></path><path d="M1229.44 559.94L1222.44 564.94" stroke="#000000" stroke-width="4" stroke-linecap="round" stroke-linejoin="round" opacity="1" fill="none"></path></g><g><path d="M1329.14 488.35H1282.1L1264.09 502.87C1262.08 504.48 1259.19 504.14 1257.57 502.2 1256.9 501.39 1256.57 500.38 1256.57 499.31V448.78C1256.57 426.94 1274.31 409.2 1296.14 409.2H1329.14C1350.97 409.2 1368.71 426.94 1368.71 448.78 1368.78 470.61 1351.04 488.35 1329.14 488.35Z" fill="#f9bf17" opacity="1" stroke-width="4" stroke="#000000"></path><path d="M1310.86 463.29L1302.8 468.87C1301.32 469.88 1299.3 469.47 1298.29 468.06 1297.76 467.25 1297.55 466.25 1297.89 465.31L1300.65 455.9C1301.05 454.62 1300.58 453.28 1299.5 452.4L1291.71 446.42C1290.3 445.35 1290.03 443.33 1291.1 441.92 1291.71 441.18 1292.58 440.71 1293.59 440.65L1303.4 440.38C1304.74 440.31 1305.89 439.5 1306.36 438.23L1309.65 429.02C1310.25 427.34 1312.07 426.47 1313.75 427.07 1314.69 427.41 1315.36 428.15 1315.7 429.02L1318.99 438.23C1319.46 439.5 1320.6 440.31 1321.95 440.38L1331.76 440.65C1333.5 440.71 1334.91 442.19 1334.91 443.94 1334.91 444.88 1334.44 445.82 1333.64 446.42L1325.84 452.4C1324.77 453.21 1324.36 454.62 1324.7 455.9L1327.46 465.31C1327.99 466.99 1326.99 468.8 1325.31 469.34 1324.36 469.61 1323.36 469.47 1322.55 468.93L1314.49 463.36C1313.41 462.55 1311.93 462.55 1310.86 463.29Z" fill="#ffffff" opacity="1" stroke-width="4" stroke="#000000"></path></g><g><path d="M416.24 989.8H508.04C521.11 989.8 531.69 1000.38 531.69 1013.45V1062.71C531.69 1075.78 521.11 1086.36 508.04 1086.36H416.24C403.17 1086.36 392.59 1075.78 392.59 1062.71V1013.45C392.59 1000.38 403.17 989.8 416.24 989.8Z" fill="#f9bf1700" opacity="0" stroke-width="4" stroke="#ffffff00"></path><path d="M408.08 974.99H499.88C512.95 974.99 523.53 985.57 523.53 998.64V1047.9C523.53 1060.97 512.95 1071.55 499.88 1071.55H408.08C395.01 1071.55 384.43 1060.97 384.43 1047.9V998.64C384.43 985.57 395.01 974.99 408.08 974.99Z" fill="#f9bf17" opacity="1" stroke-width="4" stroke="#000000"></path><path d="M453.94 1044.95L516.13 981.49H391.76L453.94 1044.95Z" fill="#f9bf1700" opacity="0" stroke-width="4" stroke="#ffffff00"></path><path d="M453.94 1031.2L516.09 981.54C511.97 977.48 506.23 974.99 499.88 974.99H408.08C401.73 974.99 395.99 977.48 391.84 981.49L453.94 1031.2Z" fill="#f9bf17" opacity="1" stroke-width="4" stroke="#000000"></path><path d="M515.82 981.71L453.94 1031.13 391.96 981.61" stroke="#000000" stroke-width="4" stroke-linecap="round" stroke-linejoin="round" opacity="1" fill="none"></path><path d="M466.94 1022.14L517.41 1062.56" stroke="#000000" stroke-width="4" stroke-linecap="round" stroke-linejoin="round" opacity="1" fill="none"></path><path d="M390.17 1062.33L440.8 1021.91" stroke="#000000" stroke-width="4" stroke-linecap="round" stroke-linejoin="round" opacity="1" fill="none"></path></g><g><path d="M525.04 777.74C550.84 751.92 550.84 710.08 525.04 684.26 499.22 658.45 457.38 658.45 431.56 684.26 405.74 710.08 405.74 751.92 431.56 777.74 457.38 803.55 499.22 803.55 525.04 777.74Z" fill="#ff4f00" opacity="1" stroke-width="4" stroke="#000000"></path><path d="M498.59 762.1C498.16 762.09 497.74 762.03 497.33 761.9 495.4 761.3 483.69 754.42 477.4 750.73L475.1 749.37C474.1 748.82 473.36 747.89 473.04 746.79L464.39 717.2C464.13 716.22 464.2 715.18 464.58 714.25 464.97 713.31 465.65 712.53 466.52 712.01 471.26 709.27 476.3 707.1 481.55 705.56L496.35 701.24C496.89 701.08 497.46 701 498.03 701 499.06 701 500.07 701.26 500.97 701.77 501.85 702.29 502.6 703.02 503.12 703.9 503.6 704.79 503.83 705.79 503.78 706.79 503.74 707.79 503.44 708.77 503.48 708.86L503.66 709.08C504.5 709.9 505.49 709.96 506.49 710.68 507.49 711.41 508.23 712.44 508.59 713.62 508.82 714.39 508.88 715.19 508.76 715.98 508.64 716.77 508.54 716.98 508.76 717.41L508.92 717.68C509.3 718.14 510.5 718.53 511.5 719.25 512.5 719.98 513.23 721.01 513.6 722.19 513.88 723.13 513.92 724.14 513.67 725.09 513.43 726.05 512.93 726.91 513.11 727.15 513.29 727.83 514.26 728.38 515.01 729.17 515.76 729.97 516.24 730.98 516.4 732.06 516.57 733.47 516.22 734.89 515.42 736.07 514.63 737.24 513.44 738.09 512.06 738.46L495.6 743.75C494.98 743.97 495.27 744.44 495.56 744.93 497.64 748.34 499.98 752.21 501.38 756.41 502.17 758.74 501.71 760.11 501.18 760.85 500.88 761.25 500.49 761.57 500.03 761.79 499.58 762.01 499.09 762.11 498.59 762.1V762.1Z" fill="#ffffff" opacity="1" stroke-width="4" stroke="#000000"></path><path d="M453.24 758.52C452.5 758.52 451.8 758.29 451.21 757.86 450.62 757.42 450.19 756.82 449.98 756.12L439.51 720.16C439.28 719.31 439.4 718.4 439.82 717.63 440.25 716.87 440.96 716.29 441.8 716.03L454.32 712.39C454.6 712.32 454.89 712.28 455.18 712.28 455.91 712.28 456.62 712.51 457.22 712.94 457.8 713.37 458.23 713.99 458.44 714.68L468.91 750.57C468.91 750.57 468.91 750.58 468.91 750.59 468.91 750.6 468.92 750.6 468.92 750.61 468.93 750.61 468.94 750.62 468.94 750.62 468.95 750.63 468.96 750.63 468.97 750.63 469.08 751.04 469.12 751.48 469.07 751.91 469.02 752.33 468.88 752.75 468.67 753.13 468.46 753.51 468.18 753.84 467.84 754.11 467.5 754.37 467.11 754.57 466.7 754.69L454.11 758.41C453.82 758.48 453.53 758.52 453.24 758.52V758.52Z" fill="#ffffff" opacity="1" stroke-width="4" stroke="#000000"></path></g><g><path d="M771.9 314.05C755.1 304.75 738.9 300.75 728.1 305.05 703.1 313.95 691.8 356.05 691.4 357.75 691.4 357.75 682.2 357.65 680.9 361.35 679.4 365.95 686.1 372.75 686.1 372.75 682.5 383.15 678.5 397.25 684.4 409.45 690 420.95 704.7 426.95 723.1 423.95L722.5 430.75 794.1 441.55C795 438.55 800.3 384.35 801.3 374.05 803.3 352.25 798.8 328.85 771.9 314.05Z" fill="#ac704e" opacity="1" stroke-width="4" stroke="#000000"></path><path d="M723.2 424.05C723.2 424.05 734.2 421.45 740.9 418.15L721.7 440.05 723.2 424.05Z" fill="#f9bf1700" opacity="0" stroke-width="4" stroke="#ffffff00"></path><path d="M967.6 1107.05L1040.1 1074.25 1036.29 1054.02C1035.6 1049.85 1034.5 1045.85 1033.4 1042.05 1032.6 1039.35 1031.8 1036.55 1030.9 1033.75 1027.5 1022.55 1023.4 1010.05 1018.4 996.25 1013.3 982.05 1008 969.25 1002.6 957.45L904.5 992.05C918 1012.55 931 1033.45 939.1 1049.95 941.3 1054.15 943.1 1058.75 944.7 1063.25L967.6 1107.05Z" fill="#ac704e" opacity="1" stroke-width="4" stroke="#000000"></path><path d="M1006.5 1066.75C993.3 1072.35 989.3 1094.15 980.9 1095.45 972.6 1096.75 980.3 1075.75 975.1 1063.45 970.5 1052.65 959.9 1056.55 944.4 1063.15 945.4 1065.95 946.2 1068.75 946.9 1071.55 948.4 1078.05 948.6 1083.65 947.1 1088.05 939.2 1111.05 918.5 1123.15 918 1145.05L918.1 1145.65 1045.1 1091.65V1091.55C1042.7 1079.05 1039.8 1066.25 1036.4 1053.75L1006.5 1066.75Z" fill="#efd7d9" opacity="1" stroke-width="4" stroke="#000000"></path><path d="M962.9 1089.35L947.63 1087.92" stroke="#000000" stroke-width="4" stroke-linecap="round" stroke-linejoin="round" opacity="1" fill="none"></path><path d="M958.9 1105.55L941.91 1100.18" stroke="#000000" stroke-width="4" stroke-linecap="round" stroke-linejoin="round" opacity="1" fill="none"></path><path d="M678.6 409.05C670.3 405.35 662.4 419.75 655.1 427.45 651.7 431.05 647.6 432.85 645.9 429.45 638.7 415.15 672.5 411.05 675.6 404.95 678.7 398.85 673.6 394.75 661.3 396.75 642.9 391.65 625.8 399.95 618.3 412.05 610.1 425.35 610.8 429.55 594.8 458.05 591.9 463.25 588.9 468.85 586.1 474.45L633.4 504.35 659.3 460.15C659.2 460.15 687.8 413.15 678.6 409.05Z" fill="#ac704e" opacity="1" stroke-width="4" stroke="#000000"></path><path d="M842.2 484.75C828.9 460.75 806.4 446.85 794.1 441.75 794.4 440.85 795 435.95 795.7 429.15L722.5 429.45 721.4 440.55C721.4 440.55 702.1 440.95 688.7 444.65 677.5 447.75 669.3 450.95 659 460.15L628.3 496.85 586.5 473.15C566.3 513.35 550.8 562.95 580.2 586.85 619.1 618.55 679.4 560.35 679.4 560.35L700.1 627.95 812.7 629.75 832.9 646.05C832.9 646.05 848.9 644.55 858.3 639.05 902.4 613.85 857.6 512.35 842.2 484.75Z" fill="#ff7a01" opacity="1" stroke-width="4" stroke="#000000"></path><path d="M888.2 483.65C880 420.25 815.6 422.25 806.4 375.25 800.9 347.15 801.6 324.75 774.7 309.85 757.9 300.55 738.9 300.75 728.1 305.05 714.6 309.85 705.4 323.05 700.1 334.45L714.7 347.35C714.7 347.35 738.33 334.26 737.9 335.25 727.7 348.55 722.9 355.25 722.9 355.25L738.7 370.45C738.7 370.45 769.3 354.05 775.6 373.65 781.9 393.25 751.1 406.95 751.1 406.95 745 464.15 770.6 483.75 770.6 483.75H793.5C793.5 483.75 786.34 453.48 788 455.15 797.2 467.45 813.1 483.75 813.1 483.75L888.2 483.65Z" fill="#221f1f" opacity="1" stroke-width="4" stroke="#000000"></path><path d="M812.6 627.85L826.8 541.95" stroke="#000000" stroke-width="4" stroke-linecap="round" stroke-linejoin="round" opacity="1" fill="none"></path><path d="M819.7 593.05L834 599.15" stroke="#000000" stroke-width="4" stroke-linecap="round" stroke-linejoin="round" opacity="1" fill="none"></path><path d="M680.2 559.65L702.1 541.45" stroke="#000000" stroke-width="4" stroke-linecap="round" stroke-linejoin="round" opacity="1" fill="none"></path><path d="M634.6 407.95C641.68 402.56 651.93 398.4 661.14 396.81" stroke="#000000" stroke-width="4" stroke-linecap="round" stroke-linejoin="round" opacity="1" fill="none"></path><path d="M695.8 381.85L704.2 381.45" stroke="#000000" stroke-width="4" stroke-linecap="round" stroke-linejoin="round" opacity="1" fill="none"></path><path d="M723.8 423.85C727.9 422.35 731.9 420.85 735.9 419.35" stroke="#000000" stroke-width="4" stroke-linecap="round" stroke-linejoin="round" opacity="1" fill="none"></path><path d="M722.5 440.65H731.6" stroke="#000000" stroke-width="4" stroke-linecap="round" stroke-linejoin="round" opacity="1" fill="none"></path><path d="M748 386.25L757 381.85" stroke="#000000" stroke-width="4" stroke-linecap="round" stroke-linejoin="round" opacity="1" fill="none"></path><path d="M706.7 364.35C708.47 364.35 709.9 362.92 709.9 361.15 709.9 359.38 708.47 357.95 706.7 357.95 704.93 357.95 703.5 359.38 703.5 361.15 703.5 362.92 704.93 364.35 706.7 364.35Z" fill="#221f1f" opacity="1" stroke-width="4" stroke="#000000"></path><path d="M803.9 325.15C819.42 325.15 832 312.57 832 297.05 832 281.53 819.42 268.95 803.9 268.95 788.38 268.95 775.8 281.53 775.8 297.05 775.8 312.57 788.38 325.15 803.9 325.15Z" fill="#221f1f" opacity="1" stroke-width="4" stroke="#000000"></path><path d="M751.1 285.25L818.7 347.65" stroke="#000000" stroke-width="4" stroke-linecap="round" stroke-linejoin="round" opacity="1" fill="none"></path><path d="M1012.5 981.05C1009.2 972.75 1005.8 964.85 1002.4 957.45L905.3 993.45 1012.5 981.05Z" fill="#ac704e00" opacity="0" stroke-width="4" stroke="#ffffff00"></path><path d="M813.1 1090.55C814.5 1077.95 815.7 1063.45 816.6 1047.15 817.4 1033.35 817.6 1020.35 817.2 1008.35L715 1008.25C719.3 1032.25 722.5 1054.75 722.7 1072.25 722.7 1075.75 722.7 1078.95 722.5 1082.15L730 1124.35 746.2 1136.95 804.4 1130.35 810.6 1109.65C811.2 1105.35 811.8 1101.05 812.3 1096.75 812.7 1094.65 813 1092.65 813.1 1090.55Z" fill="#ac704e" opacity="1" stroke-width="4" stroke="#000000"></path><path d="M744.9 1125.95C736.7 1123.95 752.1 1107.55 752.1 1094.25 752.1 1082.15 740.3 1081.95 722.6 1081.95H722.5C722.1 1087.65 721.2 1092.65 719.8 1096.65 718.9 1099.35 717.4 1101.95 715.5 1104.05 699.1 1122.15 675.5 1125.85 666.4 1144.95L666.5 1149.15 802.9 1147.25 804.4 1144.95C807 1133.15 809.1 1121.25 810.7 1109.45H779.7C765.5 1109.55 753.2 1128.05 744.9 1125.95Z" fill="#efd7d9" opacity="1" stroke-width="4" stroke="#000000"></path><path d="M817.3 1008.45H715.1L817.2 1034.75C817.5 1025.55 817.5 1016.75 817.3 1008.45Z" fill="#ac704e00" opacity="0" stroke-width="4" stroke="#ffffff00"></path><path d="M936.3 847.75C907.6 807.35 900.8 756.45 876.1 706.15 851.4 655.85 812.5 627.85 812.5 627.85H778.1C778.1 627.75 778 627.75 778 627.75H700.1C700.1 627.75 681.2 751.35 697.3 903.05 700.7 935.65 708.8 975.75 715 1010.45L834.7 1011.05C843.9 978.15 807.4 935.15 798.4 896.85 792.6 871.85 796.5 841.65 801.3 810.55 816.9 842.95 834.2 876.95 852.4 909.95 867.1 936.45 887.3 965.95 905.4 993.55L1021.3 951.05C1012 897.85 950.9 868.25 936.3 847.75Z" fill="#f9bf17" opacity="1" stroke-width="4" stroke="#000000"></path><path d="M812.6 627.85L821.23 634.91 832.8 646.15C833.1 646.15 845 644.95 854.1 641.15 831 623.55 822.3 568.65 822.3 568.65L812.6 627.85Z" fill="#ff7a0100" opacity="0" stroke-width="4" stroke="#ffffff00"></path><path d="M613.4 488.35L597.7 538.35 628.4 496.85 613.4 488.35Z" fill="#ff7a0100" opacity="0" stroke-width="4" stroke="#ffffff00"></path><path d="M728.2 1112.05L714.93 1104.74" stroke="#000000" stroke-width="4" stroke-linecap="round" stroke-linejoin="round" opacity="1" fill="none"></path><path d="M717.7 1124.35L705.43 1113.84" stroke="#000000" stroke-width="4" stroke-linecap="round" stroke-linejoin="round" opacity="1" fill="none"></path><path d="M813.2 744.85C833.5 845.55 866.6 859.35 871.2 941.35 864.4 930.65 854.6 914.35 849 904.25 819.8 847.85 826 864.15 802 811.45L813.2 744.85Z" fill="#f9bf1700" opacity="0" stroke-width="4" stroke="#ffffff00"></path><path d="M849.4 665.45H831.1L836.6 685.85C839.4 696.15 850.6 704.45 858.8 704.45 865.6 704.45 869.5 702.35 871.9 698.95" stroke="#000000" stroke-width="4" stroke-linecap="round" stroke-linejoin="round" opacity="1" fill="none"></path><path d="M801.2 810.55C804.6 782.05 812.9 754.15 814.6 726.45" stroke="#000000" stroke-width="4" stroke-linecap="round" stroke-linejoin="round" opacity="1" fill="none"></path><path d="M776.7 704.55C786.9 704.55 793 696.25 790.3 686.05L784.8 665.75H747.8L753.3 686.05C756.1 696.25 766.6 704.55 776.7 704.55Z" stroke="#000000" stroke-width="4" stroke-linecap="round" stroke-linejoin="round" opacity="1" fill="none"></path><path d="M720.8 628.95C715.1 672.95 713.1 789.15 724.6 856.95 735.8 923.45 752.2 957.15 755.7 1007.75" stroke="#000000" stroke-width="4" stroke-linecap="round" stroke-linejoin="round" opacity="1" fill="none"></path><path d="M598 538.35L627.6 497.35" stroke="#000000" stroke-width="4" stroke-linecap="round" stroke-linejoin="round" opacity="1" fill="none"></path><path d="M1047.3 1106.55L920.5 1160.05C918.7 1155.25 917.8 1149.85 917.9 1144.75L1045 1091.15C1046.9 1101.05 1047.3 1106.55 1047.3 1106.55Z" fill="#f9bf17" opacity="1" stroke-width="4" stroke="#000000"></path><path d="M800.5 1160.05H662.9C663.2 1154.85 664.4 1149.75 666.5 1145.05H804.5C802.2 1155.15 800.5 1160.05 800.5 1160.05Z" fill="#f9bf17" opacity="1" stroke-width="4" stroke="#000000"></path></g><g><path d="M281.75 893.86L264.45 919.77 295.96 906.91 281.75 893.86Z" fill="#ffffff" opacity="1" stroke-width="4" stroke="#000000"></path><path d="M281.75 893.86L264.45 919.77 295.96 906.91 281.75 893.86Z" fill="#ffffff00" opacity="0" stroke-width="4" stroke="#ffffff00"></path><path d="M281.75 893.86L300.01 934.18 359.68 863.25C359.81 863.12 359.68 862.93 359.49 863L281.75 893.86Z" fill="#ffffff" opacity="1" stroke-width="4" stroke="#000000"></path><path d="M246.51 868.65L281.75 893.86 359.55 863C359.62 862.93 359.62 862.8 359.49 862.8L246.51 868.65Z" fill="#ffffff" opacity="1" stroke-width="4" stroke="#000000"></path><path d="M281.75 893.86L289.4 910.77" stroke="#000000" stroke-width="4" stroke-linecap="round" stroke-linejoin="round" opacity="1" fill="none"></path><path d="M359.49 863L281.75 893.86" stroke="#000000" stroke-width="4" stroke-linecap="round" stroke-linejoin="round" opacity="1" fill="none"></path></g></svg>