<svg width="237" height="452" viewBox="0 0 237 452" fill="none" xmlns="http://www.w3.org/2000/svg">
<path d="M37.6638 64.2287H17.9447C14.3844 64.2287 11.4982 66.9125 11.4982 70.2232V110.374C11.4982 113.685 14.3844 116.369 17.9447 116.369H37.6638C41.2241 116.369 44.1104 113.685 44.1104 110.374V70.2232C44.1104 66.9125 41.2241 64.2287 37.6638 64.2287Z" fill="black"/>
<path d="M37.6638 64.2287H17.9447C14.3844 64.2287 11.4982 66.9125 11.4982 70.2232V110.374C11.4982 113.685 14.3844 116.369 17.9447 116.369H37.6638C41.2241 116.369 44.1104 113.685 44.1104 110.374V70.2232C44.1104 66.9125 41.2241 64.2287 37.6638 64.2287Z" stroke="black" stroke-width="0.57" stroke-miterlimit="22.93" stroke-linecap="round"/>
<path fill-rule="evenodd" clip-rule="evenodd" d="M104.936 103.228C91.1832 116.228 81.0962 131.179 56.9025 146.764C49.116 151.771 44.0598 155.673 42.4418 156.355C42.4418 156.355 42.6694 124.972 42.6694 123.962C42.543 121.399 51.189 118.578 54.3997 107.295C55.1948 104.814 55.1587 102.168 54.2961 99.7067C53.4335 97.2458 51.7854 95.0876 49.571 93.5193C42.8463 88.0185 36.2986 90.6983 39.4587 98.0797C40.7001 100.228 42.2666 102.199 44.1104 103.933V110.468C44.1104 110.468 26.4138 108.259 17.6919 108.282C14.3296 108.282 11.7004 109.081 13.2678 108.47C20.2453 105.72 22.7228 96.3872 15.6189 96.5753C17.4536 96.264 19.1006 95.335 20.2453 93.9659C21.6104 91.6151 21.8633 87.5248 15.4925 86.9136C15.1891 86.9136 19.8913 87.2897 21.661 85.7147C23.4307 84.1397 24.8464 77.8632 13.7481 76.7348C8.26218 76.1471 5.30433 80.2139 7.35207 87.4543C7.65544 88.4651 -1.31925 87.9009 3.25658 98.8555C-5.64227 111.597 14.6329 120.506 14.8857 125.137C16.0739 146.294 12.3577 170.601 16.2004 179.769C25.1245 201.137 51.5935 187.949 88.6551 161.785C101.599 152.688 108.88 125.302 105.164 110.656C105.037 110.022 104.936 103.228 104.936 103.228Z" fill="white"/>
<path d="M104.936 103.228C91.1832 116.228 81.0962 131.179 56.9025 146.764C49.116 151.771 44.0598 155.673 42.4418 156.355C42.4418 156.355 42.6694 124.972 42.6694 123.962C42.543 121.399 51.189 118.578 54.3997 107.295C55.1948 104.814 55.1587 102.168 54.2961 99.7067C53.4335 97.2458 51.7854 95.0876 49.571 93.5193C42.8463 88.0185 36.2986 90.6983 39.4587 98.0797C40.7001 100.228 42.2666 102.199 44.1104 103.933V110.468C44.1104 110.468 26.4138 108.259 17.6919 108.282C14.3296 108.282 11.7004 109.081 13.2678 108.47C20.2453 105.72 22.7228 96.3872 15.6189 96.5753C17.4536 96.264 19.1006 95.335 20.2453 93.9659C21.6104 91.6151 21.8633 87.5248 15.4925 86.9136C15.1891 86.9136 19.8913 87.2897 21.661 85.7147C23.4307 84.1397 24.8464 77.8632 13.7481 76.7348C8.26218 76.1471 5.30433 80.2139 7.35207 87.4543C7.65544 88.4651 -1.31925 87.9009 3.25658 98.8555C-5.64227 111.597 14.6329 120.506 14.8857 125.137C16.0739 146.294 12.3577 170.601 16.2004 179.769C25.1245 201.137 51.5935 187.949 88.6551 161.785C101.599 152.688 108.88 125.302 105.164 110.656C105.037 110.022 104.936 103.228 104.936 103.228Z" stroke="black" stroke-width="0.57" stroke-miterlimit="22.93" stroke-linecap="round"/>
<path fill-rule="evenodd" clip-rule="evenodd" d="M22.3184 104.944L37.6891 104.286C39.3988 104.286 41.0386 104.917 42.2475 106.042C43.4565 107.166 44.1357 108.69 44.1357 110.28C44.1357 111.87 43.4565 113.395 42.2475 114.519C41.0386 115.643 39.3988 116.275 37.6891 116.275H17.9701C16.2603 116.275 14.6206 115.643 13.4116 114.519C12.2026 113.395 11.5235 111.87 11.5235 110.28C11.5235 110.28 11.9785 108.423 13.2931 108.376C17.692 108.282 19.7903 105.156 22.3184 104.944Z" fill="black"/>
<path d="M22.3184 104.944L37.6891 104.286C39.3988 104.286 41.0386 104.917 42.2475 106.042C43.4565 107.166 44.1357 108.69 44.1357 110.28C44.1357 111.87 43.4565 113.395 42.2475 114.519C41.0386 115.643 39.3988 116.275 37.6891 116.275H17.9701C16.2603 116.275 14.6206 115.643 13.4116 114.519C12.2026 113.395 11.5235 111.87 11.5235 110.28C11.5235 110.28 11.9785 108.423 13.2931 108.376C17.692 108.282 19.7903 105.156 22.3184 104.944Z" stroke="black" stroke-width="0.57" stroke-miterlimit="22.93" stroke-linecap="round"/>
<path fill-rule="evenodd" clip-rule="evenodd" d="M42.366 154.686C42.366 155.744 42.366 164.512 42.366 167.122C42.5224 163.298 43.5477 159.549 45.3744 156.12C45.3744 156.12 47.1441 153.205 46.7143 153.534C45.4784 154.313 44.1665 154.982 42.7958 155.532C42.7199 155.391 42.543 154.71 42.366 154.686Z" fill="black"/>
<path d="M42.366 154.686C42.366 155.744 42.366 164.512 42.366 167.122C42.5224 163.298 43.5477 159.549 45.3744 156.12C45.3744 156.12 47.1441 153.205 46.7143 153.534C45.4784 154.313 44.1665 154.982 42.7958 155.532C42.7199 155.391 42.543 154.71 42.366 154.686Z" stroke="black" stroke-width="0.57" stroke-linecap="round" stroke-linejoin="round"/>
<path fill-rule="evenodd" clip-rule="evenodd" d="M104.961 104.685L96.4417 112.114C91.3855 133.929 83.8013 146.717 79.8575 168.086C84.9136 164.183 88.5541 161.033 93.6355 157.037L104.961 104.685Z" fill="black"/>
<path d="M104.961 104.685L96.4417 112.114C91.3855 133.929 83.8013 146.717 79.8575 168.086C84.9136 164.183 88.5541 161.033 93.6355 157.037L104.961 104.685Z" stroke="black" stroke-width="0.57" stroke-miterlimit="22.93" stroke-linecap="round"/>
<path fill-rule="evenodd" clip-rule="evenodd" d="M90.8799 411.413H143.97C144.395 411.425 144.799 411.587 145.1 411.867C145.4 412.146 145.575 412.522 145.588 412.918L148.116 446.204H63.0963C61.5036 432.264 72.5008 428.033 85.4445 422.062C90.5766 418.606 90.8799 411.413 90.8799 411.413Z" fill="white"/>
<path d="M90.8799 411.413H143.97C144.395 411.425 144.799 411.587 145.1 411.867C145.4 412.146 145.575 412.522 145.588 412.918L148.116 446.204H63.0963C61.5036 432.264 72.5008 428.033 85.4445 422.062C90.5766 418.606 90.8799 411.413 90.8799 411.413Z" stroke="black" stroke-width="0.57" stroke-linecap="round" stroke-linejoin="round"/>
<path d="M149.026 440.868H63.1216C62.228 440.868 61.5036 441.542 61.5036 442.373V449.495C61.5036 450.326 62.228 451 63.1216 451H149.026C149.919 451 150.644 450.326 150.644 449.495V442.373C150.644 441.542 149.919 440.868 149.026 440.868Z" fill="white"/>
<path d="M149.026 440.868H63.1216C62.228 440.868 61.5036 441.542 61.5036 442.373V449.495C61.5036 450.326 62.228 451 63.1216 451H149.026C149.919 451 150.644 450.326 150.644 449.495V442.373C150.644 441.542 149.919 440.868 149.026 440.868Z" stroke="black" stroke-width="0.57" stroke-linecap="round" stroke-linejoin="round"/>
<path fill-rule="evenodd" clip-rule="evenodd" d="M143.161 411.413H196.25C196.673 411.43 197.074 411.594 197.374 411.873C197.673 412.151 197.85 412.524 197.868 412.918L200.396 446.204H115.377C113.784 432.264 124.781 428.033 137.725 422.062C142.756 418.606 143.161 411.413 143.161 411.413Z" fill="white"/>
<path d="M143.161 411.413H196.25C196.673 411.43 197.074 411.594 197.374 411.873C197.673 412.151 197.85 412.524 197.868 412.918L200.396 446.204H115.377C113.784 432.264 124.781 428.033 137.725 422.062C142.756 418.606 143.161 411.413 143.161 411.413Z" stroke="black" stroke-width="0.57" stroke-linecap="round" stroke-linejoin="round"/>
<path d="M201.306 440.868H115.402C114.509 440.868 113.784 441.542 113.784 442.373V449.495C113.784 450.326 114.509 451 115.402 451H201.306C202.2 451 202.924 450.326 202.924 449.495V442.373C202.924 441.542 202.2 440.868 201.306 440.868Z" fill="white"/>
<path d="M201.306 440.868H115.402C114.509 440.868 113.784 441.542 113.784 442.373V449.495C113.784 450.326 114.509 451 115.402 451H201.306C202.2 451 202.924 450.326 202.924 449.495V442.373C202.924 441.542 202.2 440.868 201.306 440.868Z" stroke="black" stroke-width="0.57" stroke-linecap="round" stroke-linejoin="round"/>
<path fill-rule="evenodd" clip-rule="evenodd" d="M105.745 33.8332C105.745 53.9322 105.745 53.6031 105.745 73.7962C105.745 126.923 79.7563 138.137 78.1131 192.815C77.8097 202.806 87.4417 201.56 89.0597 214.983C101.22 217.733 133.68 206.685 145.815 209.435C157.925 206.685 189.88 229.017 201.989 226.267C223.25 139.453 178.377 122.551 178.453 77.3223V33.9272C178.604 -10.7138 105.897 -9.18578 105.745 33.8332Z" fill="white"/>
<path d="M105.745 33.8332C105.745 53.9322 105.745 53.6031 105.745 73.7962C105.745 126.923 79.7563 138.137 78.1131 192.815C77.8097 202.806 87.4417 201.56 89.0597 214.983C101.22 217.733 133.68 206.685 145.815 209.435C157.925 206.685 189.88 229.017 201.989 226.267C223.25 139.453 178.377 122.551 178.453 77.3223V33.9272C178.604 -10.7138 105.897 -9.18578 105.745 33.8332Z" stroke="black" stroke-width="0.57" stroke-linecap="round" stroke-linejoin="round"/>
<path fill-rule="evenodd" clip-rule="evenodd" d="M105.745 33.8333C105.745 53.9324 105.745 53.6033 105.745 73.7963C105.766 79.7032 105.411 85.606 104.683 91.4741H179.944C178.932 86.8319 178.433 82.1059 178.453 77.3695V33.9744C178.604 -10.7136 105.897 -9.18565 105.745 33.8333Z" fill="white"/>
<path d="M105.745 33.8333C105.745 53.9324 105.745 53.6033 105.745 73.7963C105.766 79.7032 105.411 85.606 104.683 91.4741H179.944C178.932 86.8319 178.433 82.1059 178.453 77.3695V33.9744C178.604 -10.7136 105.897 -9.18565 105.745 33.8333Z" stroke="black" stroke-width="0.57" stroke-linecap="round" stroke-linejoin="round"/>
<path fill-rule="evenodd" clip-rule="evenodd" d="M178.377 30.2602C174.762 -9.39719 109.866 -8.10426 106.023 30.2602H178.377Z" fill="white"/>
<path d="M178.377 30.2602C174.762 -9.39719 109.866 -8.10426 106.023 30.2602H178.377Z" stroke="black" stroke-width="0.57" stroke-linecap="round" stroke-linejoin="round"/>
<path fill-rule="evenodd" clip-rule="evenodd" d="M206.995 191.264C206.995 191.758 206.995 192.228 206.995 192.722C207.45 215.453 199.562 227.983 199.638 248.74C199.638 293.757 201.104 409.485 200.953 411.836H88.0484C88.0484 411.836 87.0372 294.039 87.745 249.892C88.099 226.384 80.7675 219.661 78.0372 192.98C77.9993 192.409 77.9993 191.836 78.0372 191.264H206.995Z" fill="white"/>
<path d="M206.995 191.264C206.995 191.758 206.995 192.228 206.995 192.722C207.45 215.453 199.562 227.983 199.638 248.74C199.638 293.757 201.104 409.485 200.953 411.836H88.0484C88.0484 411.836 87.0372 294.039 87.745 249.892C88.099 226.384 80.7675 219.661 78.0372 192.98C77.9993 192.409 77.9993 191.836 78.0372 191.264H206.995Z" stroke="black" stroke-width="0.57" stroke-linecap="round" stroke-linejoin="round"/>
<path fill-rule="evenodd" clip-rule="evenodd" d="M109.057 57.247C109.887 57.2467 110.7 57.0187 111.392 56.5913C112.083 56.164 112.624 55.5563 112.947 54.8444C113.269 54.1326 113.358 53.3481 113.203 52.5892C113.049 51.8304 112.656 51.1309 112.076 50.5783C111.496 50.0257 110.753 49.6446 109.941 49.4827C109.129 49.3207 108.283 49.3852 107.51 49.6679C106.737 49.9507 106.071 50.4392 105.595 51.0723C105.119 51.7054 104.855 52.455 104.835 53.2272C104.821 53.7506 104.921 54.2712 105.127 54.7584C105.333 55.2456 105.642 55.6895 106.035 56.0641C106.429 56.4387 106.899 56.7363 107.417 56.9394C107.936 57.1425 108.494 57.2471 109.057 57.247Z" fill="#FEFEFE"/>
<path d="M109.057 57.247C109.887 57.2467 110.7 57.0187 111.392 56.5913C112.083 56.164 112.624 55.5563 112.947 54.8444C113.269 54.1326 113.358 53.3481 113.203 52.5892C113.049 51.8304 112.656 51.1309 112.076 50.5783C111.496 50.0257 110.753 49.6446 109.941 49.4827C109.129 49.3207 108.283 49.3852 107.51 49.6679C106.737 49.9507 106.071 50.4392 105.595 51.0723C105.119 51.7054 104.855 52.455 104.835 53.2272C104.821 53.7506 104.921 54.2712 105.127 54.7584C105.333 55.2456 105.642 55.6895 106.035 56.0641C106.429 56.4387 106.899 56.7363 107.417 56.9394C107.936 57.1425 108.494 57.2471 109.057 57.247Z" stroke="black" stroke-width="0.57" stroke-linecap="round" stroke-linejoin="round"/>
<path fill-rule="evenodd" clip-rule="evenodd" d="M144.5 49.3954C143.661 49.3956 142.841 49.6284 142.145 50.0641C141.448 50.4998 140.908 51.1185 140.591 51.8414C140.275 52.5642 140.197 53.3583 140.369 54.1223C140.54 54.8863 140.952 55.5855 141.553 56.1306C142.153 56.6757 142.915 57.042 143.741 57.1826C144.566 57.3233 145.418 57.232 146.187 56.9204C146.957 56.6088 147.609 56.0911 148.061 55.4332C148.512 54.7754 148.742 54.0073 148.722 53.2272C148.696 52.2024 148.24 51.2278 147.451 50.5118C146.662 49.7958 145.603 49.3951 144.5 49.3954Z" fill="#FEFEFE"/>
<path d="M144.5 49.3954C143.661 49.3956 142.841 49.6284 142.145 50.0641C141.448 50.4998 140.908 51.1185 140.591 51.8414C140.275 52.5642 140.197 53.3583 140.369 54.1223C140.54 54.8863 140.952 55.5855 141.553 56.1306C142.153 56.6757 142.915 57.042 143.741 57.1826C144.566 57.3233 145.418 57.232 146.187 56.9204C146.957 56.6088 147.609 56.0911 148.061 55.4332C148.512 54.7754 148.742 54.0073 148.722 53.2272C148.696 52.2024 148.24 51.2278 147.451 50.5118C146.662 49.7958 145.603 49.3951 144.5 49.3954Z" stroke="black" stroke-width="0.57" stroke-linecap="round" stroke-linejoin="round"/>
<path d="M142.68 250.386C142.68 240.771 125.692 241.664 119.498 228.007" stroke="black" stroke-width="0.57" stroke-linecap="round" stroke-linejoin="round"/>
<path d="M110.65 38.0882C108.984 37.8571 107.282 38.1031 105.77 38.7935" stroke="black" stroke-width="0.57" stroke-miterlimit="22.93" stroke-linecap="round"/>
<path d="M142.731 38.0882C144.397 37.8616 146.097 38.1074 147.61 38.7935" stroke="black" stroke-width="0.57" stroke-miterlimit="22.93" stroke-linecap="round"/>
<path fill-rule="evenodd" clip-rule="evenodd" d="M177.846 85.2916H105.745C104.404 85.2916 103.118 85.7869 102.17 86.6686C101.222 87.5503 100.689 88.7462 100.689 89.9931C100.689 91.24 101.222 92.4359 102.17 93.3176C103.118 94.1993 104.404 94.6946 105.745 94.6946H177.795C179.136 94.6946 180.422 94.1993 181.371 93.3176C182.319 92.4359 182.851 91.24 182.851 89.9931C182.851 88.7462 182.319 87.5503 181.371 86.6686C180.422 85.7869 179.136 85.2916 177.795 85.2916H177.846Z" fill="white"/>
<path d="M177.846 85.2916H105.745C104.404 85.2916 103.118 85.7869 102.17 86.6686C101.222 87.5503 100.689 88.7462 100.689 89.9931C100.689 91.24 101.222 92.4359 102.17 93.3176C103.118 94.1993 104.404 94.6946 105.745 94.6946H177.795C179.136 94.6946 180.422 94.1993 181.371 93.3176C182.319 92.4359 182.851 91.24 182.851 89.9931C182.851 88.7462 182.319 87.5503 181.371 86.6686C180.422 85.7869 179.136 85.2916 177.795 85.2916H177.846Z" stroke="black" stroke-width="0.57" stroke-miterlimit="22.93" stroke-linecap="round"/>
<path d="M178.528 29.9311H67.6974" stroke="black" stroke-width="0.57" stroke-miterlimit="22.93" stroke-linecap="round"/>
<path fill-rule="evenodd" clip-rule="evenodd" d="M199.739 246.93L178.2 156.238C177.922 158.001 180.475 174.785 182.851 191.264C182.851 191.875 185.379 190.559 185.531 191.264C190.132 223.14 198.374 262.539 193.267 293.945C191.776 303.137 198.879 305.535 198.526 304.853C196.848 301.33 196.431 297.399 197.337 293.64C198.247 288.938 201.584 286.588 199.865 284.237L199.739 246.93Z" fill="black"/>
<path d="M199.739 246.93L178.2 156.238C177.922 158.001 180.475 174.785 182.851 191.264C182.851 191.875 185.379 190.559 185.531 191.264C190.132 223.14 198.374 262.539 193.267 293.945C191.776 303.137 198.879 305.535 198.526 304.853C196.848 301.33 196.431 297.399 197.337 293.64C198.247 288.938 201.584 286.588 199.865 284.237L199.739 246.93Z" stroke="black" stroke-width="0.57" stroke-miterlimit="22.93" stroke-linecap="round"/>
<path fill-rule="evenodd" clip-rule="evenodd" d="M104.81 94.5771L103.697 98.738C117.766 96.6242 131.956 95.2819 146.194 94.7182L104.81 94.5771Z" fill="black"/>
<path d="M104.81 94.5771L103.697 98.738C117.766 96.6242 131.956 95.2819 146.194 94.7182L104.81 94.5771Z" stroke="black" stroke-width="0.57" stroke-miterlimit="22.93" stroke-linecap="round"/>
<path fill-rule="evenodd" clip-rule="evenodd" d="M90.4249 411.742L89.3378 415.903C103.381 413.792 117.546 412.458 131.759 411.907L90.4249 411.742Z" fill="black"/>
<path d="M90.4249 411.742L89.3378 415.903C103.381 413.792 117.546 412.458 131.759 411.907L90.4249 411.742Z" stroke="black" stroke-width="0.57" stroke-miterlimit="22.93" stroke-linecap="round"/>
<path fill-rule="evenodd" clip-rule="evenodd" d="M143.413 411.742L142.326 415.903C156.369 413.792 170.535 412.458 184.748 411.907L143.413 411.742Z" fill="black"/>
<path d="M143.413 411.742L142.326 415.903C156.369 413.792 170.535 412.458 184.748 411.907L143.413 411.742Z" stroke="black" stroke-width="0.57" stroke-miterlimit="22.93" stroke-linecap="round"/>
<path fill-rule="evenodd" clip-rule="evenodd" d="M106.958 29.7195L105.745 33.9274C119.797 31.8154 133.97 30.4732 148.191 29.9076L106.958 29.7195Z" fill="black"/>
<path d="M106.958 29.7195L105.745 33.9274C119.797 31.8154 133.97 30.4732 148.191 29.9076L106.958 29.7195Z" stroke="black" stroke-width="0.57" stroke-miterlimit="22.93" stroke-linecap="round"/>
<path fill-rule="evenodd" clip-rule="evenodd" d="M107.161 53.6973C107.035 53.703 106.917 53.7519 106.828 53.8345C106.739 53.917 106.687 54.0273 106.68 54.144C106.68 54.2624 106.731 54.376 106.821 54.4598C106.911 54.5436 107.033 54.5906 107.161 54.5906C107.225 54.594 107.289 54.5848 107.349 54.5636C107.409 54.5423 107.463 54.5095 107.509 54.4674C107.554 54.4252 107.589 54.3746 107.612 54.3188C107.635 54.2631 107.645 54.2035 107.641 54.144C107.641 54.0255 107.59 53.9119 107.5 53.8281C107.41 53.7444 107.288 53.6973 107.161 53.6973Z" fill="black"/>
<path d="M107.161 53.6973C107.035 53.703 106.917 53.7519 106.828 53.8345C106.739 53.917 106.687 54.0273 106.68 54.144C106.68 54.2624 106.731 54.376 106.821 54.4598C106.911 54.5436 107.033 54.5906 107.161 54.5906C107.225 54.594 107.289 54.5848 107.349 54.5636C107.409 54.5423 107.463 54.5095 107.509 54.4674C107.554 54.4252 107.589 54.3746 107.612 54.3188C107.635 54.2631 107.645 54.2035 107.641 54.144C107.641 54.0255 107.59 53.9119 107.5 53.8281C107.41 53.7444 107.288 53.6973 107.161 53.6973Z" stroke="black" stroke-width="0.57" stroke-linecap="round" stroke-linejoin="round"/>
<path fill-rule="evenodd" clip-rule="evenodd" d="M142.149 54.6376C142.277 54.6376 142.399 54.5906 142.489 54.5068C142.579 54.423 142.63 54.3094 142.63 54.191C142.63 54.0725 142.579 53.9589 142.489 53.8752C142.399 53.7914 142.277 53.7443 142.149 53.7443C142.022 53.7443 141.9 53.7914 141.81 53.8752C141.72 53.9589 141.669 54.0725 141.669 54.191C141.669 54.3094 141.72 54.423 141.81 54.5068C141.9 54.5906 142.022 54.6376 142.149 54.6376Z" fill="black"/>
<path d="M142.149 54.6376C142.277 54.6376 142.399 54.5906 142.489 54.5068C142.579 54.423 142.63 54.3094 142.63 54.191C142.63 54.0725 142.579 53.9589 142.489 53.8752C142.399 53.7914 142.277 53.7443 142.149 53.7443C142.022 53.7443 141.9 53.7914 141.81 53.8752C141.72 53.9589 141.669 54.0725 141.669 54.191C141.669 54.3094 141.72 54.423 141.81 54.5068C141.9 54.5906 142.022 54.6376 142.149 54.6376Z" stroke="black" stroke-width="0.57" stroke-linecap="round" stroke-linejoin="round"/>
<path d="M142.604 411.836V250.08" stroke="black" stroke-width="0.57" stroke-miterlimit="22.93" stroke-linecap="round"/>
<path fill-rule="evenodd" clip-rule="evenodd" d="M217.461 305.84C219.205 305.394 213.593 318.652 214.528 321.097C216.298 325.798 223.832 321.332 225.273 319.193C225.98 318.135 235.385 325.281 235.992 306.216C236.219 300.198 231.694 277.678 231.214 269.497C229.014 232.003 214.503 138.301 180.829 98.926C178.301 95.9876 176.177 97.9622 174.079 98.4089C170.792 99.1141 167.784 101.042 164.548 111.691C161.135 122.927 166.646 150.032 177.037 156.238C184.899 190.253 197.009 231.627 198.703 266.583C199.056 274.058 199.992 279.3 198.703 283.626C197.615 287.269 194.531 289.855 192.509 296.672C191.144 301.374 198.323 312.563 202.115 310.988C204.643 309.954 205.174 308.262 207.854 300.363C208.511 298.388 211.747 290.678 213.214 290.043C216.601 288.304 218.017 301.139 217.436 305.84" fill="white"/>
<path d="M217.562 303.137C217.67 308.147 216.609 313.119 214.453 317.712C213.087 320.932 215.287 322.413 217.815 322.578C221.354 322.93 224.11 320.556 226.764 313.997C228.76 308.373 229.542 302.437 229.065 296.531C228.761 293.146 233.388 292.3 232.958 287.128C229.823 262.093 226.132 163.078 181.79 98.2913" stroke="black" stroke-width="0.57" stroke-linecap="round" stroke-linejoin="round"/>
<path d="M217.461 305.84C218.042 301.139 216.627 288.304 213.239 290.043C211.773 290.678 208.537 298.388 207.879 300.363C206.818 303.513 206.514 307.227 205.705 308.92C203 314.679 194.86 307.227 193.495 302.079C190.967 292.182 198.248 284.895 198.728 283.626C200.321 279.347 198.955 271.872 198.728 266.583C197.034 231.627 184.925 190.253 177.062 156.238" stroke="black" stroke-width="0.57" stroke-linecap="round" stroke-linejoin="round"/>
<path fill-rule="evenodd" clip-rule="evenodd" d="M217.107 292.605C219.306 299.658 217.107 319.545 210.129 323.4C206.742 325.305 202.217 323.824 201.686 321.755C200.447 316.748 203.354 315.431 204.77 308.191C205.96 301.883 206.045 295.437 205.023 289.103C204.037 284.213 210.762 280.828 215.691 289.573C216.295 290.526 216.771 291.544 217.107 292.605Z" fill="white"/>
<path d="M217.107 292.605C219.306 299.658 217.107 319.545 210.129 323.4C206.742 325.305 202.217 323.824 201.686 321.755C200.447 316.748 203.354 315.431 204.77 308.191C205.96 301.883 206.045 295.437 205.023 289.103C204.037 284.213 210.762 280.828 215.691 289.573C216.295 290.526 216.771 291.544 217.107 292.605Z" stroke="black" stroke-width="0.57" stroke-miterlimit="22.93" stroke-linecap="round"/>
<path d="M231.922 278.901C231.669 280.17 236.624 296.226 235.638 307.509C235.107 313.786 230.986 321.92 225.273 319.099" stroke="black" stroke-width="0.57" stroke-miterlimit="22.93" stroke-linecap="round"/>
<path fill-rule="evenodd" clip-rule="evenodd" d="M212.405 275.892C209.707 276.025 207.171 277.131 205.335 278.974C203.499 280.817 202.508 283.253 202.571 285.765C202.478 286.992 202.65 288.223 203.076 289.388C203.503 290.552 204.175 291.625 205.053 292.545C205.931 293.465 206.998 294.212 208.191 294.743C209.384 295.274 210.679 295.578 212 295.638C214.698 295.504 217.234 294.398 219.07 292.555C220.906 290.712 221.897 288.276 221.835 285.765C221.927 284.538 221.755 283.306 221.329 282.142C220.902 280.978 220.23 279.904 219.352 278.985C218.474 278.065 217.407 277.318 216.214 276.787C215.021 276.255 213.726 275.951 212.405 275.892Z" fill="white"/>
<path fill-rule="evenodd" clip-rule="evenodd" d="M229.267 277.584C227.194 277.584 219.585 294.98 227.042 295.638C234.5 296.296 229.95 307.392 232.099 307.392C234.247 307.392 234.627 301.186 234.627 298.318C234.627 295.45 231.315 277.514 229.267 277.514" fill="white"/>
<path d="M205.351 293.969C205.351 291.924 203.455 291.266 203.101 294.392C202.855 297.09 203.585 299.787 205.174 302.056" stroke="black" stroke-width="0.57" stroke-miterlimit="22.93" stroke-linecap="round"/>
<path d="M124.301 61.1963C122.253 61.6664 120.307 64.1817 123.34 65.2161C128.093 66.8851 119.371 68.6247 123.34 71.4221C124.048 71.9157 125.06 71.5631 125.869 71.4221" stroke="#373435" stroke-width="0.57" stroke-miterlimit="22.93" stroke-linecap="round"/>
<path d="M11.4982 86.9841C13.7078 86.8008 15.9348 86.9436 18.0964 87.4073" stroke="black" stroke-width="0.57" stroke-miterlimit="22.93" stroke-linecap="round"/>
<path d="M7.85771 98.1503C8.46445 97.8447 18.8043 96.0111 20.0431 95.7995" stroke="black" stroke-width="0.57" stroke-miterlimit="22.93" stroke-linecap="round"/>
<path d="M109.36 42.5782C111.599 42.5596 113.794 43.16 115.666 44.3032C117.537 45.4464 119.001 47.081 119.872 48.9993C120.743 50.9177 120.981 53.0334 120.557 55.0779C120.132 57.1223 119.064 59.0035 117.488 60.4824C115.911 61.9614 113.898 62.9716 111.703 63.3847C109.509 63.7978 107.231 63.5953 105.16 62.8028C103.09 62.0104 101.319 60.6636 100.072 58.9336C98.8262 57.2036 98.1609 55.1684 98.1608 53.0861C98.1606 50.3155 99.3373 47.6569 101.435 45.6889C103.532 43.721 106.381 42.603 109.36 42.5782Z" stroke="#373435" stroke-width="0.57" stroke-miterlimit="22.93" stroke-linecap="round"/>
<path d="M143.995 42.5782C146.23 42.5782 148.415 43.1945 150.273 44.3491C152.131 45.5037 153.58 47.1449 154.435 49.0649C155.29 50.985 155.514 53.0978 155.078 55.1361C154.642 57.1745 153.566 59.0468 151.986 60.5164C150.405 61.9859 148.392 62.9867 146.2 63.3921C144.007 63.7976 141.735 63.5895 139.67 62.7942C137.605 61.9989 135.841 60.652 134.599 58.924C133.357 57.196 132.694 55.1644 132.694 53.0861C132.694 50.2993 133.885 47.6265 136.004 45.6559C138.123 43.6853 140.998 42.5782 143.995 42.5782Z" stroke="#373435" stroke-width="0.57" stroke-miterlimit="22.93" stroke-linecap="round"/>
<path d="M155.877 51.6757H178.503" stroke="#373435" stroke-width="0.57" stroke-miterlimit="22.93" stroke-linecap="round"/>
<path d="M119.472 48.5256C122.001 44.2472 130.899 43.8241 134.489 48.126" stroke="#373435" stroke-width="0.57" stroke-miterlimit="22.93" stroke-linecap="round"/>
<path d="M42.366 57.5761L43.8576 48.3376" stroke="#373435" stroke-width="0.57" stroke-miterlimit="22.93" stroke-linecap="round"/>
<path d="M49.8492 62.6067L61.4783 54.9902" stroke="#373435" stroke-width="0.57" stroke-miterlimit="22.93" stroke-linecap="round"/>
<path d="M63.2986 70.6698L54.9053 71.9392" stroke="#373435" stroke-width="0.57" stroke-miterlimit="22.93" stroke-linecap="round"/>
</svg>
