<svg width="170" height="282" viewBox="0 0 170 282" fill="none" xmlns="http://www.w3.org/2000/svg">
<path fill-rule="evenodd" clip-rule="evenodd" d="M101.685 57.2852C101.901 57.8847 123.778 73.0057 129.013 78.9284C129.013 78.9284 136.795 61.0873 137.054 60.517C139.053 55.9983 133.573 46.7268 143.958 41.7839C148.575 39.5757 151.451 43.5827 148.057 46.7706C147.541 47.3279 146.906 47.7581 146.201 48.0283L150.79 47.8528C155.105 47.9698 169.143 50.1049 168.999 53.7023C168.898 56.2761 167.446 56.0567 167.129 56.2469C167.372 56.3884 167.58 56.584 167.738 56.8189C167.895 57.0537 167.999 57.3219 168.04 57.6032C168.082 57.8845 168.06 58.1717 167.977 58.4433C167.894 58.7149 167.752 58.9639 167.561 59.1716C166.05 61.0581 163.792 59.9321 164.684 60.4878C166.568 61.6138 164.929 65.2259 162.34 64.6263C155.292 62.9592 152.429 65.0796 151.077 67.7412C145.137 79.4402 141.009 94.064 136.694 98.4511C126.698 108.425 116.341 94.6928 103.612 71.0169C99.1965 62.7837 94.076 68.8964 99.6856 61.4676C99.9157 61.1166 101.685 57.2852 101.685 57.2852Z" fill="white"/>
<path d="M101.685 57.2852C101.901 57.8847 123.778 73.0057 129.013 78.9284C129.013 78.9284 136.795 61.0873 137.054 60.517C139.053 55.9983 133.573 46.7268 143.958 41.7839C148.575 39.5757 151.451 43.5827 148.057 46.7706C147.541 47.3279 146.906 47.7581 146.201 48.0283L150.79 47.8528C155.105 47.9698 169.143 50.1049 168.999 53.7023C168.898 56.2761 167.446 56.0567 167.129 56.2469C167.372 56.3884 167.58 56.584 167.738 56.8189C167.895 57.0537 167.999 57.3219 168.041 57.6032C168.082 57.8845 168.06 58.1717 167.977 58.4433C167.894 58.7149 167.752 58.9639 167.561 59.1716C166.05 61.0581 163.792 59.9321 164.684 60.4878C166.568 61.6138 164.929 65.2259 162.34 64.6263C155.292 62.9592 152.429 65.0796 151.077 67.7412C145.137 79.4402 141.009 94.064 136.694 98.4511C126.698 108.425 116.341 94.6928 103.612 71.0169C99.1965 62.7837 94.076 68.8964 99.6856 61.4675C99.9157 61.1166 101.685 57.2852 101.685 57.2852Z" stroke="black" stroke-width="0.57" stroke-miterlimit="22.93" stroke-linecap="round"/>
<path fill-rule="evenodd" clip-rule="evenodd" d="M107.827 61.5407L112.674 66.1618C115.551 79.7327 117.636 83.0961 119.866 96.3892C116.989 93.9616 117.406 100.557 114.529 98.1294L107.827 61.5407Z" fill="black"/>
<path d="M107.827 61.5407L112.674 66.1618C115.551 79.7327 117.636 83.0961 119.866 96.3892C116.989 93.9616 117.406 100.557 114.529 98.1294L107.827 61.5407Z" stroke="black" stroke-width="0.57" stroke-miterlimit="22.93" stroke-linecap="round"/>
<path fill-rule="evenodd" clip-rule="evenodd" d="M64.8633 60.0052C58.362 64.7579 44.9423 74.4974 40.9869 78.8845C40.9869 78.8845 33.2055 61.0435 32.9466 60.4731C30.9473 55.9983 36.4273 46.7121 26.0282 41.7839C21.4255 39.5757 18.5488 43.5826 21.9433 46.7121C22.4596 47.2694 23.0942 47.6996 23.7987 47.9698L19.2104 47.7943C14.8954 47.9113 0.857264 50.0464 1.0011 53.6438C1.10178 56.2176 2.55451 55.9982 2.88533 56.1884C2.64162 56.3287 2.4323 56.5232 2.27308 56.7575C2.11387 56.9917 2.00887 57.2596 1.96598 57.541C1.92308 57.8224 1.94339 58.11 2.02539 58.3823C2.10738 58.6545 2.24893 58.9044 2.43943 59.1131C3.94969 60.9996 6.20788 59.8735 5.31611 60.4293C3.43189 61.5553 5.0716 65.1674 7.6606 64.5678C14.7085 62.9007 17.5707 65.0211 18.9228 67.6827C24.8631 79.3817 28.9911 94.0055 33.3061 98.3926C39.3759 104.447 44.8128 100.586 52.3353 93.8593C50.1409 102.326 49.2577 111.088 49.7176 119.831H123.332C122.282 86.1964 107.625 79.2208 107.625 46.3173C107.625 33.8139 107.625 34.0187 107.625 21.4568C107.625 -5.30471 66.2153 -6.32838 66.2585 21.4568V48.4524C66.2801 52.3481 65.8112 56.2305 64.8633 60.0052Z" fill="white"/>
<path d="M64.8633 60.0052C58.362 64.7579 44.9423 74.4973 40.9869 78.8845C40.9869 78.8845 33.2055 61.0435 32.9466 60.4731C30.9473 55.9983 36.4273 46.7121 26.0282 41.7839C21.4255 39.5757 18.5488 43.5826 21.9433 46.7121C22.4596 47.2694 23.0942 47.6996 23.7987 47.9698L19.2104 47.7943C14.8954 47.9113 0.857264 50.0464 1.0011 53.6438C1.10178 56.2176 2.55451 55.9983 2.88533 56.1884C2.64162 56.3287 2.4323 56.5232 2.27308 56.7575C2.11387 56.9917 2.00887 57.2596 1.96598 57.541C1.92308 57.8224 1.94339 58.11 2.02539 58.3823C2.10738 58.6545 2.24893 58.9044 2.43943 59.1131C3.94969 60.9996 6.20788 59.8735 5.31611 60.4293C3.43189 61.5553 5.0716 65.1674 7.6606 64.5678C14.7085 62.9007 17.5707 65.0211 18.9228 67.6827C24.8631 79.3817 28.9911 94.0055 33.3061 98.3926C39.3759 104.447 44.8128 100.586 52.3353 93.8593C50.1409 102.326 49.2577 111.088 49.7176 119.831H123.332C122.282 86.1964 107.625 79.2208 107.625 46.3173C107.625 33.814 107.625 34.0187 107.625 21.4568C107.625 -5.30471 66.2153 -6.32838 66.2584 21.4568V48.4524C66.2801 52.3481 65.8112 56.2305 64.8633 60.0052Z" stroke="black" stroke-width="0.57" stroke-miterlimit="22.93" stroke-linecap="round"/>
<path fill-rule="evenodd" clip-rule="evenodd" d="M128.999 78.8845C128.74 79.4841 126.511 84.4415 125.863 85.9185C126.745 83.7158 127.162 81.3492 127.086 78.9722C127.086 78.9722 126.899 76.9103 127.086 77.1881C127.53 77.9259 128.045 78.6167 128.625 79.2501C128.639 79.1185 128.941 78.7967 128.999 78.8845Z" fill="black"/>
<path d="M128.999 78.8845C128.74 79.4841 126.511 84.4415 125.863 85.9185C126.745 83.7158 127.162 81.3492 127.086 78.9722C127.086 78.9722 126.899 76.9103 127.086 77.1881C127.53 77.9259 128.045 78.6167 128.625 79.2501C128.639 79.1185 128.941 78.7967 128.999 78.8845Z" stroke="black" stroke-width="0.57" stroke-linecap="round" stroke-linejoin="round"/>
<path fill-rule="evenodd" clip-rule="evenodd" d="M41.0012 78.8845C41.2601 79.4841 43.4895 84.4415 44.1368 85.9185C43.2548 83.7158 42.8383 81.3492 42.9142 78.9722C42.9142 78.9722 43.1012 76.9103 42.9142 77.1881C42.4702 77.9259 41.9546 78.6167 41.3752 79.2501C41.3752 79.2501 41.0588 78.7967 41.0012 78.8845Z" fill="black"/>
<path d="M41.0012 78.8845C41.2601 79.4841 43.4895 84.4415 44.1368 85.9185C43.2548 83.7158 42.8383 81.3492 42.9142 78.9722C42.9142 78.9722 43.1012 76.9103 42.9142 77.1881C42.4702 77.9259 41.9546 78.6167 41.3752 79.2501C41.3752 79.2501 41.0588 78.7967 41.0012 78.8845Z" stroke="black" stroke-width="0.57" stroke-linecap="round" stroke-linejoin="round"/>
<path fill-rule="evenodd" clip-rule="evenodd" d="M115.896 256.374H85.6907C85.4499 256.384 85.2219 256.486 85.0515 256.66C84.8811 256.833 84.7807 257.065 84.7701 257.309L83.3318 278.017H131.631C132.537 269.345 126.281 266.713 118.916 262.998C116.126 260.848 115.896 256.374 115.896 256.374Z" fill="white"/>
<path d="M115.896 256.374H85.6907C85.4499 256.384 85.2219 256.486 85.0515 256.66C84.8811 256.833 84.7807 257.065 84.7701 257.309L83.3318 278.017H131.631C132.537 269.345 126.281 266.713 118.916 262.998C116.126 260.848 115.896 256.374 115.896 256.374Z" stroke="black" stroke-width="0.57" stroke-linecap="round" stroke-linejoin="round"/>
<path d="M131.689 274.697H82.8141C82.3057 274.697 81.8936 275.116 81.8936 275.633V280.064C81.8936 280.581 82.3057 281 82.8141 281H131.689C132.197 281 132.609 280.581 132.609 280.064V275.633C132.609 275.116 132.197 274.697 131.689 274.697Z" fill="white"/>
<path d="M131.689 274.697H82.8141C82.3057 274.697 81.8936 275.116 81.8936 275.633V280.064C81.8936 280.581 82.3057 281 82.8141 281H131.689C132.197 281 132.609 280.581 132.609 280.064V275.633C132.609 275.116 132.197 274.697 131.689 274.697Z" stroke="black" stroke-width="0.57" stroke-linecap="round" stroke-linejoin="round"/>
<path fill-rule="evenodd" clip-rule="evenodd" d="M86.1506 256.374H55.9455C55.7048 256.384 55.4767 256.486 55.3063 256.66C55.1359 256.833 55.0356 257.065 55.025 257.309L53.5867 278.017H101.886C102.792 269.345 96.5354 266.713 89.1711 262.998C86.4383 260.848 86.1506 256.374 86.1506 256.374Z" fill="white"/>
<path d="M86.1506 256.374H55.9455C55.7048 256.384 55.4767 256.486 55.3063 256.66C55.1359 256.833 55.0356 257.065 55.025 257.309L53.5867 278.017H101.886C102.792 269.345 96.5354 266.713 89.1711 262.998C86.4383 260.848 86.1506 256.374 86.1506 256.374Z" stroke="black" stroke-width="0.57" stroke-linecap="round" stroke-linejoin="round"/>
<path d="M101.958 274.697H53.069C52.5606 274.697 52.1484 275.116 52.1484 275.633V280.064C52.1484 280.581 52.5606 281 53.069 281H101.958C102.466 281 102.879 280.581 102.879 280.064V275.633C102.879 275.116 102.466 274.697 101.958 274.697Z" fill="white"/>
<path d="M101.958 274.697H53.069C52.5606 274.697 52.1484 275.116 52.1484 275.633V280.064C52.1484 280.581 52.5606 281 53.069 281H101.958C102.466 281 102.879 280.581 102.879 280.064V275.633C102.879 275.116 102.466 274.697 101.958 274.697Z" stroke="black" stroke-width="0.57" stroke-linecap="round" stroke-linejoin="round"/>
<path fill-rule="evenodd" clip-rule="evenodd" d="M107.596 21.4861C107.596 33.9894 107.596 33.7847 107.596 46.3465C107.589 50.0214 107.796 53.6935 108.215 57.3436H65.4243C65.9858 54.4537 66.27 51.5151 66.2729 48.5693V21.5738C66.1866 -6.22602 107.553 -5.27548 107.596 21.4861Z" fill="white"/>
<path d="M107.596 21.4861C107.596 33.9894 107.596 33.7847 107.596 46.3465C107.589 50.0214 107.796 53.6935 108.215 57.3436H65.4243C65.9858 54.4537 66.27 51.5151 66.2729 48.5693V21.5738C66.1866 -6.22602 107.553 -5.27548 107.596 21.4861Z" stroke="black" stroke-width="0.57" stroke-linecap="round" stroke-linejoin="round"/>
<path fill-rule="evenodd" clip-rule="evenodd" d="M66.3018 19.2633C68.3586 -5.40708 105.295 -4.60277 107.481 19.2633H66.3018Z" fill="white"/>
<path d="M66.3018 19.2633C68.3586 -5.40708 105.295 -4.60277 107.481 19.2633H66.3018Z" stroke="black" stroke-width="0.57" stroke-linecap="round" stroke-linejoin="round"/>
<path fill-rule="evenodd" clip-rule="evenodd" d="M49.8471 119.422C49.8257 119.723 49.8257 120.026 49.8471 120.328C49.5882 134.47 54.0758 142.264 54.0326 155.177C54.0326 183.181 53.2128 255.174 53.2847 256.637H117.65C117.65 256.637 118.226 183.357 117.823 155.893C117.622 141.27 121.793 137.087 123.346 120.489C123.368 120.134 123.368 119.777 123.346 119.422H49.8471Z" fill="white"/>
<path d="M49.8471 119.422C49.8257 119.723 49.8257 120.026 49.8471 120.328C49.5882 134.47 54.0758 142.264 54.0326 155.177C54.0326 183.181 53.2128 255.174 53.2847 256.637H117.65C117.65 256.637 118.226 183.357 117.823 155.893C117.622 141.27 121.793 137.087 123.346 120.489C123.368 120.134 123.368 119.777 123.346 119.422H49.8471Z" stroke="black" stroke-width="0.57" stroke-linecap="round" stroke-linejoin="round"/>
<path fill-rule="evenodd" clip-rule="evenodd" d="M105.755 36.0514C105.283 36.0512 104.821 35.9094 104.427 35.6435C104.033 35.3776 103.726 34.9996 103.542 34.5568C103.359 34.1139 103.308 33.6259 103.396 33.1539C103.484 32.6818 103.707 32.2466 104.038 31.9029C104.368 31.5591 104.79 31.322 105.252 31.2213C105.715 31.1206 106.196 31.1607 106.635 31.3366C107.075 31.5125 107.454 31.8164 107.725 32.2102C107.996 32.6041 108.146 33.0703 108.157 33.5507C108.165 33.8763 108.109 34.2002 107.991 34.5033C107.874 34.8063 107.698 35.0825 107.475 35.3155C107.251 35.5485 106.983 35.7337 106.688 35.86C106.393 35.9864 106.076 36.0515 105.755 36.0514Z" fill="#FEFEFE"/>
<path d="M105.755 36.0514C105.283 36.0512 104.821 35.9094 104.427 35.6435C104.033 35.3776 103.726 34.9996 103.542 34.5568C103.359 34.1139 103.308 33.6259 103.396 33.1539C103.484 32.6818 103.707 32.2466 104.038 31.9029C104.368 31.5591 104.79 31.322 105.252 31.2213C105.715 31.1206 106.196 31.1607 106.635 31.3366C107.075 31.5125 107.454 31.8164 107.725 32.2102C107.996 32.6041 108.146 33.0703 108.157 33.5507C108.165 33.8763 108.109 34.2002 107.991 34.5033C107.874 34.8063 107.698 35.0825 107.475 35.3155C107.251 35.5485 106.983 35.7337 106.688 35.86C106.393 35.9864 106.076 36.0515 105.755 36.0514Z" stroke="black" stroke-width="0.57" stroke-linecap="round" stroke-linejoin="round"/>
<path fill-rule="evenodd" clip-rule="evenodd" d="M85.5897 31.167C86.0672 31.1672 86.5338 31.312 86.93 31.583C87.3262 31.854 87.6339 32.239 87.8139 32.6886C87.9939 33.1383 88.038 33.6323 87.9405 34.1076C87.8431 34.5828 87.6085 35.0178 87.2668 35.3569C86.9251 35.696 86.4917 35.9238 86.0221 36.0114C85.5524 36.0989 85.0677 36.0421 84.6299 35.8482C84.1922 35.6544 83.8211 35.3323 83.5643 34.9231C83.3074 34.5138 83.1763 34.036 83.1877 33.5507C83.2027 32.9132 83.4624 32.3069 83.9113 31.8615C84.3601 31.4161 84.9625 31.1668 85.5897 31.167Z" fill="#FEFEFE"/>
<path d="M85.5897 31.167C86.0672 31.1672 86.5338 31.312 86.93 31.583C87.3262 31.854 87.6339 32.239 87.8139 32.6886C87.9939 33.1383 88.038 33.6323 87.9405 34.1076C87.8431 34.5828 87.6085 35.0178 87.2668 35.3569C86.9251 35.696 86.4917 35.9238 86.0221 36.0114C85.5524 36.0989 85.0677 36.0421 84.6299 35.8482C84.1922 35.6544 83.8211 35.3323 83.5643 34.9231C83.3074 34.5138 83.1763 34.036 83.1877 33.5507C83.2027 32.9132 83.4624 32.3069 83.9113 31.8615C84.3601 31.4161 84.9625 31.1668 85.5897 31.167Z" stroke="black" stroke-width="0.57" stroke-linecap="round" stroke-linejoin="round"/>
<path d="M86.4385 156.2C86.4385 150.219 96.1041 150.775 99.628 142.279" stroke="black" stroke-width="0.57" stroke-linecap="round" stroke-linejoin="round"/>
<path d="M104.864 24.133C105.811 23.992 106.779 24.1449 107.64 24.5717" stroke="black" stroke-width="0.57" stroke-miterlimit="22.93" stroke-linecap="round"/>
<path d="M86.5965 24.133C85.6489 23.992 84.6814 24.1449 83.8206 24.5717" stroke="black" stroke-width="0.57" stroke-miterlimit="22.93" stroke-linecap="round"/>
<path fill-rule="evenodd" clip-rule="evenodd" d="M66.6181 53.4976H107.611C108.374 53.4976 109.105 53.8057 109.645 54.3542C110.184 54.9027 110.487 55.6466 110.487 56.4223C110.487 57.198 110.184 57.942 109.645 58.4905C109.105 59.039 108.374 59.3471 107.611 59.3471H66.6181C65.8552 59.3471 65.1235 59.039 64.584 58.4905C64.0445 57.942 63.7415 57.198 63.7415 56.4223C63.7415 55.6466 64.0445 54.9027 64.584 54.3542C65.1235 53.8057 65.8552 53.4976 66.6181 53.4976Z" fill="white"/>
<path d="M66.6181 53.4976H107.611C108.374 53.4976 109.105 53.8057 109.645 54.3542C110.184 54.9027 110.487 55.6466 110.487 56.4223C110.487 57.198 110.184 57.942 109.645 58.4905C109.105 59.039 108.374 59.3471 107.611 59.3471H66.6181C65.8552 59.3471 65.1235 59.039 64.584 58.4905C64.0445 57.942 63.7415 57.198 63.7415 56.4223C63.7415 55.6466 64.0445 54.9027 64.584 54.3542C65.1235 53.8057 65.8552 53.4976 66.6181 53.4976Z" stroke="black" stroke-width="0.57" stroke-miterlimit="22.93" stroke-linecap="round"/>
<path d="M66.2297 19.0585H129.286" stroke="black" stroke-width="0.57" stroke-miterlimit="22.93" stroke-linecap="round"/>
<path fill-rule="evenodd" clip-rule="evenodd" d="M108.186 59.274L108.805 61.8624C100.81 60.5474 92.7462 59.7124 84.655 59.3617L108.186 59.274Z" fill="black"/>
<path d="M108.186 59.274L108.805 61.8624C100.81 60.5474 92.7462 59.7124 84.655 59.3617L108.186 59.274Z" stroke="black" stroke-width="0.57" stroke-miterlimit="22.93" stroke-linecap="round"/>
<path fill-rule="evenodd" clip-rule="evenodd" d="M116.155 256.578L116.773 259.167C108.783 257.853 100.724 257.023 92.6377 256.681L116.155 256.578Z" fill="black"/>
<path d="M116.155 256.578L116.773 259.167C108.783 257.853 100.724 257.023 92.6377 256.681L116.155 256.578Z" stroke="black" stroke-width="0.57" stroke-miterlimit="22.93" stroke-linecap="round"/>
<path fill-rule="evenodd" clip-rule="evenodd" d="M86.007 256.578L86.6255 259.167C78.6359 257.853 70.5766 257.023 62.4902 256.681L86.007 256.578Z" fill="black"/>
<path d="M86.007 256.578L86.6255 259.167C78.6359 257.853 70.5766 257.023 62.4902 256.681L86.007 256.578Z" stroke="black" stroke-width="0.57" stroke-miterlimit="22.93" stroke-linecap="round"/>
<path fill-rule="evenodd" clip-rule="evenodd" d="M106.949 18.9269L107.582 21.5153C99.5872 20.2003 91.5233 19.3653 83.4321 19.0147L106.949 18.9269Z" fill="black"/>
<path d="M106.949 18.9269L107.582 21.5153C99.5872 20.2003 91.5233 19.3653 83.4321 19.0147L106.949 18.9269Z" stroke="black" stroke-width="0.57" stroke-miterlimit="22.93" stroke-linecap="round"/>
<path fill-rule="evenodd" clip-rule="evenodd" d="M105.54 33.3606C105.612 33.3606 105.682 33.3899 105.733 33.442C105.784 33.4941 105.813 33.5647 105.813 33.6384C105.815 33.6755 105.809 33.7126 105.796 33.7472C105.783 33.7819 105.763 33.8134 105.738 33.8396C105.712 33.8659 105.681 33.8863 105.647 33.8995C105.613 33.9127 105.576 33.9184 105.54 33.9163C105.467 33.9163 105.398 33.887 105.346 33.8349C105.295 33.7828 105.266 33.7121 105.266 33.6384C105.27 33.5659 105.3 33.4973 105.35 33.4459C105.401 33.3945 105.468 33.3641 105.54 33.3606Z" fill="black"/>
<path d="M105.54 33.3606C105.612 33.3606 105.682 33.3899 105.733 33.442C105.784 33.4941 105.813 33.5647 105.813 33.6384C105.815 33.6755 105.809 33.7126 105.796 33.7472C105.783 33.7819 105.763 33.8134 105.738 33.8396C105.712 33.8659 105.681 33.8863 105.647 33.8995C105.613 33.9127 105.576 33.9184 105.54 33.9163C105.467 33.9163 105.398 33.887 105.346 33.8349C105.295 33.7828 105.266 33.7121 105.266 33.6384C105.27 33.5659 105.3 33.4973 105.35 33.4459C105.401 33.3945 105.468 33.3641 105.54 33.3606Z" stroke="black" stroke-width="0.57" stroke-linecap="round" stroke-linejoin="round"/>
<path fill-rule="evenodd" clip-rule="evenodd" d="M85.6329 33.9456C85.5616 33.942 85.494 33.9116 85.4435 33.8603C85.393 33.8089 85.3631 33.7403 85.3596 33.6677C85.3596 33.594 85.3884 33.5233 85.4397 33.4712C85.4909 33.4191 85.5604 33.3899 85.6329 33.3899C85.67 33.3879 85.7071 33.3936 85.7419 33.4067C85.7767 33.4197 85.8086 33.4399 85.8355 33.4659C85.8624 33.4919 85.8839 33.5232 85.8985 33.5579C85.9131 33.5926 85.9206 33.63 85.9206 33.6677C85.9169 33.7427 85.885 33.8134 85.8314 33.8651C85.7778 33.9169 85.7068 33.9457 85.6329 33.9456Z" fill="black"/>
<path d="M85.6329 33.9456C85.5616 33.942 85.494 33.9116 85.4435 33.8603C85.393 33.8089 85.3631 33.7403 85.3596 33.6677C85.3596 33.594 85.3884 33.5233 85.4397 33.4712C85.4909 33.4191 85.5604 33.3899 85.6329 33.3899C85.67 33.3879 85.7071 33.3936 85.7419 33.4067C85.7767 33.4197 85.8086 33.4399 85.8355 33.4659C85.8624 33.4919 85.8839 33.5232 85.8985 33.5579C85.9131 33.5926 85.9206 33.63 85.9206 33.6677C85.9169 33.7427 85.885 33.8134 85.8314 33.8651C85.7778 33.9169 85.7068 33.9457 85.6329 33.9456Z" stroke="black" stroke-width="0.57" stroke-linecap="round" stroke-linejoin="round"/>
<path d="M86.4817 256.637V156.01" stroke="black" stroke-width="0.57" stroke-miterlimit="22.93" stroke-linecap="round"/>
<path d="M167.402 56.2176C164.577 54.9377 161.545 54.1943 158.456 54.024" stroke="black" stroke-width="0.57" stroke-miterlimit="22.93" stroke-linecap="round"/>
<path d="M2.59766 56.2176C5.42325 54.9377 8.45533 54.1943 11.5441 54.024" stroke="black" stroke-width="0.57" stroke-miterlimit="22.93" stroke-linecap="round"/>
<path d="M164.957 60.4439C164.137 60.1221 163.317 59.1277 158.183 59.1277" stroke="black" stroke-width="0.57" stroke-miterlimit="22.93" stroke-linecap="round"/>
<path d="M5.04297 60.4439C5.86282 60.1221 6.68267 59.1277 11.8175 59.1277" stroke="black" stroke-width="0.57" stroke-miterlimit="22.93" stroke-linecap="round"/>
<path d="M93.7886 42.0033H99.9015" stroke="#373435" stroke-width="0.57" stroke-miterlimit="22.93" stroke-linecap="round"/>
<path d="M146.503 47.882C146.374 49.9001 147.151 49.2567 148.661 51.5087C149.37 52.5939 149.859 53.8119 150.099 55.0916" stroke="#373435" stroke-width="0.57" stroke-miterlimit="22.93" stroke-linecap="round"/>
<path d="M23.4967 47.882C23.6262 49.9001 22.8495 49.2567 21.3392 51.5087C20.6303 52.5939 20.1413 53.8119 19.9009 55.0916" stroke="#373435" stroke-width="0.57" stroke-miterlimit="22.93" stroke-linecap="round"/>
<path d="M51.1704 94.7659L61.9004 84.6609" stroke="black" stroke-width="0.57" stroke-miterlimit="22.93" stroke-linecap="round"/>
<path fill-rule="evenodd" clip-rule="evenodd" d="M52.3354 93.8446L61.3537 85.1727L51.0984 99.1238L52.3354 93.8446Z" fill="black"/>
<path d="M52.3354 93.8446L61.3537 85.1727L51.0984 99.1238L52.3354 93.8446Z" stroke="black" stroke-width="0.57" stroke-linecap="round" stroke-linejoin="round"/>
</svg>
